<svg id="Layer_1" data-name="Layer 1" xmlns="http://www.w3.org/2000/svg" viewBox="0 0 731.08 427.47"><defs><style>.cls-1{fill:#a7a9ac;}.cls-2{fill:#d1d3d4;}.cls-3{fill:#808285;}.cls-4{fill:#58595b;}.cls-5,.cls-6,.cls-7{fill:#fff;}.cls-6{opacity:0.4;}.cls-7{opacity:0.1;}</style></defs><g id="CityScape_White" data-name="CityScape White"><polygon class="cls-1" points="427.55 297.78 427.55 301.27 396.16 301.27 396.16 372.9 455.19 372.9 455.19 369.4 455.19 301.27 455.19 297.78 427.55 297.78"/><rect class="cls-1" x="523.65" y="252.37" width="43.95" height="159.25"/><rect class="cls-1" x="466.43" y="276.37" width="43.95" height="135.93"/><polygon class="cls-1" points="637.55 345.25 636.99 345.25 636.31 345.25 636.31 344.27 636.31 342.98 636.31 340.96 636.31 339.67 636.31 337.66 636.31 336.36 636.31 334.35 636.31 333.05 636.31 331.04 636.31 329.75 636.31 327.73 636.31 326.44 636.31 324.42 636.31 323.13 636.31 321.12 636.31 319.83 636.31 317.81 636.31 316.52 636.31 314.5 636.31 313.21 636.31 311.19 636.31 309.9 636.31 307.89 636.31 306.59 636.31 304.58 636.31 303.29 636.31 301.27 636.31 299.98 636.31 298.94 634.92 298.94 634.92 240.4 631.39 240.4 631.39 230.99 631.42 230.99 631.42 230.32 631.7 230.32 631.7 229.53 626.09 229.53 626.09 228.72 626.09 228.72 626.09 228.03 626.09 228.03 626.09 227.07 626.09 227.07 626.09 226.38 626.09 226.38 626.09 225.42 626.09 225.42 626.09 224.72 626.09 224.72 626.09 223.76 626.09 223.76 626.09 223.07 626.09 223.07 626.09 222.11 626.09 222.11 626.09 221.42 626.09 221.42 626.09 220.25 626.4 220.25 626.4 219.45 623.42 219.45 623.42 218.8 623.42 218.8 623.42 218.11 623.42 218.11 623.42 217.15 623.42 217.15 623.42 216.46 623.42 216.46 623.42 215.49 623.42 215.49 623.42 214.8 623.42 214.8 623.42 214.41 623.42 213.84 623.42 213.84 623.42 213.58 623.62 213.58 623.62 212.79 619.03 212.79 619.03 212.78 619.04 212.78 619.04 212.32 619.03 212.32 619.03 211.36 619.04 211.36 619.04 210.67 619.03 210.67 619.03 209.7 619.04 209.7 619.04 209.01 619.03 209.01 619.03 208.05 619.04 208.05 619.04 207.36 619.03 207.36 619.03 206.4 619.04 206.4 619.04 205.71 619.03 205.71 619.03 204.74 619.04 204.74 619.04 204.05 619.03 204.05 619.03 203.78 619.17 203.78 619.17 202.98 610.43 202.98 610.43 203.78 610.57 203.78 610.57 204.05 610.57 204.6 610.57 204.74 610.57 205.71 610.57 206.4 610.57 207.36 610.57 208.05 610.57 209.01 610.57 209.7 610.57 210.67 610.57 211.36 610.57 212.32 610.57 212.78 610.57 212.79 605.99 212.79 605.99 213.58 606.18 213.58 606.18 213.84 606.18 214.41 606.18 214.8 606.18 215.49 606.18 216.46 606.18 217.15 606.18 218.11 606.18 218.8 606.18 219.47 603.17 219.47 603.17 220.26 603.5 220.26 603.5 221.09 603.51 221.09 603.51 221.42 603.51 222.11 603.51 223.07 603.51 223.76 603.51 224.72 603.51 225.42 603.51 226.38 603.51 227.07 603.51 228.03 603.51 228.72 603.51 229.53 597.69 229.53 597.69 230.32 598.19 230.32 598.19 230.82 598.19 231.15 598.19 231.34 598.19 231.94 598.19 233.83 598.19 234.65 598.19 235.34 598.19 235.47 598.19 237.36 598.19 237.96 598.19 238.18 598.19 239.47 598.19 239.61 598.19 240.23 597.12 240.23 596.48 240.23 595.31 240.23 594.67 240.23 594.67 298.94 593.3 298.94 593.3 345.25 592.61 345.25 592.06 345.25 591.97 345.25 591.97 398.87 591.97 398.97 591.97 412.37 597.17 412.37 603.47 412.37 604.13 412.37 605.53 412.37 608.86 412.37 610.43 412.37 611.17 412.37 612.8 412.37 616.8 412.37 618.43 412.37 619.17 412.37 620.66 412.37 623.99 412.37 625.48 412.37 626.19 412.37 632.5 412.37 637.63 412.37 637.63 398.97 637.63 398.87 637.63 345.25 637.55 345.25"/><polygon class="cls-1" points="643.21 257.93 643.52 257.93 644.21 257.93 644.52 257.93 645.21 257.93 645.53 257.93 645.88 257.93 645.88 255.58 655.34 255.58 672.63 255.58 672.63 257.93 673.88 257.93 674.19 257.93 675.72 257.93 676.04 257.93 676.37 257.93 676.37 259.22 676.37 259.4 676.37 260.88 676.37 261.06 676.37 262.54 676.37 262.72 676.37 264.2 676.37 264.38 676.37 265.86 676.37 266.04 676.37 267.52 676.37 267.7 676.37 269.18 676.37 269.36 676.37 270.84 676.37 271.02 676.37 272.5 676.37 272.68 676.37 274.15 676.37 274.34 676.37 275.82 676.37 276 676.37 277.47 676.37 277.66 676.37 279.13 676.37 279.32 676.37 280.8 676.37 280.98 676.37 282.45 676.37 282.64 676.37 284.11 676.37 284.3 676.37 285.77 676.37 285.96 676.37 287.23 679.22 287.23 679.22 287.94 679.99 287.94 679.99 289.82 679.99 290.01 681.19 290.01 681.4 290.01 682.33 290.01 682.33 291.19 682.33 291.38 682.33 292.87 682.33 293.06 682.33 295.02 682.33 295.21 682.33 296.7 682.33 296.9 682.33 298.39 682.33 298.58 682.33 300.08 682.33 300.27 682.33 301.76 682.33 301.95 682.33 303.45 682.33 303.64 682.33 305.13 682.33 305.33 682.33 306.97 682.33 307.16 682.33 308.66 682.33 308.85 682.33 310.35 682.33 310.54 682.33 312.03 682.33 312.22 682.33 313.72 682.33 313.91 682.33 315.56 682.33 315.75 682.33 317.24 682.33 317.43 682.33 318.93 682.33 319.08 682.33 319.12 682.33 319.27 682.33 320.77 682.33 320.96 682.33 322.45 682.33 322.64 682.33 324.14 682.33 324.33 682.33 325.82 682.33 326.01 682.33 327.51 682.33 327.7 682.33 328.71 682.94 328.71 683.15 328.71 684.78 328.71 685 328.71 686.49 328.71 686.49 329.9 686.49 330.1 686.49 331.59 686.49 331.78 686.49 333.28 686.49 333.47 686.49 334.96 686.49 335.15 686.49 336.65 686.49 336.84 686.49 338.34 686.49 338.53 686.49 340.02 686.49 340.21 686.49 341.71 686.49 341.9 686.49 343.39 686.49 343.58 686.49 344.93 686.49 345.12 686.49 346.61 686.49 346.81 686.49 348.3 686.49 348.49 686.49 349.98 686.49 350.17 686.49 351.67 686.49 351.87 686.49 353.35 686.49 353.55 686.49 355.04 686.49 355.23 686.49 356.73 686.49 356.92 686.49 358.41 686.49 358.61 686.49 360.25 686.49 360.44 686.49 361.94 686.49 362.13 686.49 363.63 686.49 363.82 686.49 365.31 686.49 365.5 686.49 367 686.49 367.19 686.49 368.68 686.49 368.87 686.49 370.37 686.49 370.56 686.49 372.05 686.49 372.25 686.49 373.74 686.49 373.93 686.49 375.43 686.49 375.62 686.49 377.11 686.49 377.3 686.49 378.8 686.49 378.99 686.49 380.49 686.49 380.68 686.49 382.48 686.49 382.67 686.49 384.16 686.49 384.36 686.49 385.85 686.49 386.04 686.49 387.53 686.49 387.73 686.49 389.22 686.49 389.42 686.49 390.9 686.49 391.1 686.49 392.59 686.49 392.78 686.49 394.28 686.49 394.47 686.49 395.97 686.49 396.15 686.49 397.65 686.49 397.84 686.49 399.33 686.49 399.53 686.49 401.02 686.49 401.22 686.49 402.71 686.49 402.9 686.49 404.39 686.49 404.59 686.49 406.08 686.49 406.27 686.49 407.77 686.49 407.96 686.49 409.46 686.49 409.64 686.49 411.14 686.49 411.33 686.49 412.82 686.49 413.02 686.49 413.42 686.49 414.76 685 414.76 684.78 414.76 683.15 414.76 682.94 414.76 682.33 414.76 681.3 414.76 681.1 414.76 679.46 414.76 679.25 414.76 677.45 414.76 677.24 414.76 676.37 414.76 675.72 414.76 675.52 414.76 675.51 414.76 675.51 414.77 673.5 414.77 673.37 414.77 672.32 414.77 671.5 414.77 670.82 414.77 670.2 414.77 670.12 414.77 669.47 414.77 668.78 414.77 668.18 414.77 668.18 414.79 668.09 414.79 668.09 414.77 667.42 414.77 666.74 414.77 666.09 414.77 666.01 414.77 663.96 414.77 662.81 414.77 662.77 414.77 659.93 414.77 659.72 414.77 657.13 414.77 642.23 414.77 642.23 414.76 642.23 414.76 642.23 414.67 642.23 413.19 642.23 413 642.23 411.53 642.23 411.34 642.23 409.87 642.23 409.68 642.23 408.21 642.23 408.03 642.23 406.55 642.23 406.37 642.23 404.89 642.23 404.7 642.23 403.23 642.23 403.04 642.23 401.57 642.23 401.39 642.23 399.91 642.23 399.73 642.23 398.25 642.23 398.07 642.23 396.59 642.23 396.41 642.23 394.94 642.23 394.74 642.23 393.27 642.23 393.09 642.23 391.61 642.23 391.43 642.23 389.96 642.23 389.77 642.23 388.3 642.23 388.11 642.23 386.64 642.23 386.45 642.23 385.53 642.23 385.35 642.23 383.87 642.23 383.68 642.23 382.21 642.23 382.03 642.23 380.55 642.23 380.37 642.23 378.89 642.23 378.83 642.23 378.7 642.23 377.23 642.23 377.05 642.23 375.57 642.23 375.39 642.23 373.91 642.23 373.73 642.23 372.25 642.23 372.07 642.23 370.6 642.23 370.41 642.23 368.93 642.23 368.75 642.23 367.27 642.23 367.09 642.23 365.62 642.23 365.43 642.23 363.95 642.23 363.77 642.23 362.3 642.23 362.11 642.23 360.64 642.23 360.45 642.23 358.98 642.23 358.79 642.23 357.32 642.23 357.13 642.23 355.66 642.23 355.47 642.23 354 642.23 353.81 642.23 352.34 642.23 352.15 642.23 350.68 642.23 350.49 642.23 349.02 642.23 348.83 642.23 347.36 642.23 347.17 642.23 345.7 642.23 345.51 642.23 344.04 642.23 343.86 642.23 342.38 642.23 342.2 642.23 340.72 642.23 340.54 642.23 339.06 642.23 338.88 642.23 337.4 642.23 337.22 642.23 335.74 642.23 335.56 642.23 334.08 642.23 333.9 642.23 332.42 642.23 332.24 642.23 330.77 642.23 330.58 642.23 329.11 642.23 328.92 642.23 327.44 642.23 327.26 642.23 325.79 642.23 325.6 642.23 324.13 642.23 323.94 642.23 322.46 642.23 322.29 642.23 321.71 642.23 320.81 642.23 320.62 642.23 319.15 642.23 318.96 642.23 317.49 642.23 317.31 642.23 315.83 642.23 315.64 642.23 314.17 642.23 313.99 642.23 312.51 642.23 312.32 642.23 310.85 642.23 310.67 642.23 309.19 642.23 309.01 642.23 307.53 642.23 307.35 642.23 305.87 642.23 305.69 642.23 304.21 642.23 304.03 642.23 302.55 642.23 302.37 642.23 300.89 642.23 300.71 642.23 299.23 642.23 299.05 642.23 297.57 642.23 297.39 642.23 295.91 642.23 295.73 642.23 294.25 642.23 294.07 642.23 292.6 642.23 292.41 642.23 290.93 642.23 290.75 642.23 289.28 642.23 289.09 642.23 287.62 642.23 287.43 642.23 285.96 642.23 285.77 642.23 284.3 642.23 284.11 642.23 282.64 642.23 282.45 642.23 280.98 642.23 280.8 642.23 279.32 642.23 279.13 642.23 277.66 642.23 277.47 642.23 276 642.23 275.82 642.23 274.34 642.23 274.15 642.23 272.68 642.23 272.5 642.23 271.02 642.23 270.84 642.23 269.36 642.23 269.18 642.23 267.7 642.23 267.52 642.23 266.04 642.23 265.86 642.23 264.38 642.23 264.2 642.23 262.72 642.23 262.54 642.23 261.06 642.23 260.88 642.23 259.4 642.23 259.22 642.23 257.93 642.23 257.93 643.21 257.93"/><polygon class="cls-1" points="372.2 233.25 372.2 233.24 372 233.24 372 233.25 371.46 233.25 371.46 233.24 371.07 233.24 371.07 233.25 370.56 233.25 370.56 233.24 370.37 233.24 370.37 233.25 368.63 233.25 368.44 233.25 366.71 233.25 366.71 233.24 366.51 233.24 366.51 233.25 365.9 233.25 365.9 233.24 365.9 231.11 364.25 231.11 364.25 230.99 364.57 230.99 364.57 230.65 363.83 230.65 363.83 230.99 364.14 230.99 364.14 231.11 352.01 231.11 351.82 231.11 351.82 230.04 350.46 230.04 350.46 231.11 350.12 231.11 350.12 230.69 348.54 230.69 348.54 231.11 347.65 231.11 347.65 230.69 346.11 230.69 346.11 231.11 343.3 231.11 343.3 233.24 343.3 233.25 342.51 233.25 342.51 233.24 342.31 233.24 342.31 233.25 341.99 233.25 341.58 233.25 340.86 233.25 340.86 233.24 340.67 233.24 340.67 233.25 340.66 233.25 339.96 233.25 339.58 233.25 339.21 233.25 339.21 233.24 339.01 233.24 339.01 233.25 338.89 233.25 338.13 233.25 338.13 233.24 337.74 233.24 337.74 233.25 337.55 233.25 337.55 235.29 337.55 235.64 337.55 236.44 337.55 236.61 337.55 237.61 337.55 237.96 337.55 238.86 337.55 239.03 337.55 240.4 337.55 240.74 337.55 241.29 337.55 241.46 337.55 242.71 337.55 243.06 337.55 243.72 337.55 243.89 337.55 245.5 337.55 245.84 337.55 246.63 337.55 246.8 337.55 247.81 337.55 248.17 337.55 249.05 337.55 249.23 337.55 250.6 337.55 250.95 337.55 251.47 337.55 251.65 337.55 252.92 337.55 253.26 337.55 253.9 337.55 254.08 337.55 255.24 337.55 255.59 337.55 256.33 337.55 256.5 337.55 257.55 337.55 257.9 337.55 258.75 337.55 258.93 337.55 260.34 337.55 260.69 337.55 261.18 337.55 261.35 337.55 262.65 337.55 263 337.55 263.6 337.55 263.79 337.55 265.44 337.55 265.79 337.55 266.52 337.55 266.69 337.55 267.77 337.55 268.11 337.55 268.95 337.55 269.12 337.55 270.55 337.55 270.89 337.55 271.36 337.55 271.55 337.55 272.86 337.55 273.21 337.55 273.8 337.55 273.97 337.55 275.18 337.55 275.54 337.55 276.22 337.55 276.39 337.55 277.5 337.55 277.85 337.55 278.65 337.55 278.82 337.55 280.29 337.55 280.63 337.55 281.08 337.55 281.25 337.55 282.6 337.55 282.95 337.55 283.5 337.55 283.68 337.55 285.38 337.55 285.74 337.55 286.42 337.55 286.59 337.55 287.7 337.55 288.05 337.55 288.84 337.55 289.02 337.55 290.49 337.55 290.84 337.55 291.75 337.55 291.92 337.55 292.81 337.55 293.15 337.55 293.69 337.55 293.87 337.55 294.67 337.55 295.01 337.55 295.63 337.55 295.8 337.55 296.98 337.55 297.33 337.55 298.06 337.55 298.24 337.55 299.76 337.55 300.12 337.55 300.97 337.55 301.15 337.55 302.09 337.55 302.43 337.55 302.91 337.55 303.08 337.55 304.87 337.55 305.21 337.55 305.83 337.55 306 337.55 307.18 337.55 307.54 337.55 308.25 337.55 308.43 337.55 309.97 337.55 310.32 337.55 310.67 337.55 310.85 337.55 312.29 337.55 312.64 337.55 313.11 337.55 313.28 337.55 315.07 337.55 315.43 337.55 316.01 337.55 316.19 337.55 317.39 337.55 317.75 337.55 318.44 337.55 318.61 337.55 320.18 337.55 320.53 337.55 320.86 337.55 321.04 337.55 322.5 337.55 322.84 337.55 323.77 337.55 323.95 337.55 325.28 337.55 325.63 337.55 326.2 337.55 326.38 337.55 327.61 337.55 327.94 337.55 328.63 337.55 328.8 337.55 330.38 337.55 330.72 337.55 331.54 337.55 331.72 337.55 332.7 337.55 333.05 337.55 333.48 337.55 333.65 337.55 335.02 337.55 335.37 337.55 335.9 337.55 336.08 337.55 337.34 337.55 337.69 337.55 338.34 337.55 338.51 337.55 340.12 337.55 340.47 337.55 341.25 337.55 341.42 337.55 342.45 337.55 342.79 337.55 343.67 337.55 343.84 337.55 345.22 337.55 345.57 337.55 346.1 337.55 346.27 337.55 347.54 337.55 347.9 337.55 348.52 337.55 348.7 337.55 350.33 337.55 350.68 337.55 351.44 337.55 351.6 337.55 352.65 337.55 352.99 337.55 353.87 337.55 354.04 337.55 354.96 337.55 355.31 337.55 355.8 337.55 355.97 337.55 357.29 337.55 357.63 337.55 358.23 337.55 358.4 337.55 360.06 337.55 360.42 337.55 361.15 337.55 361.31 337.55 362.4 337.55 362.73 337.55 363.56 337.55 363.75 337.55 365.17 337.55 365.52 337.55 365.99 337.55 366.16 337.55 367.49 337.55 367.84 337.55 368.42 337.55 368.6 337.55 370.28 337.55 370.62 337.55 371.33 337.55 371.51 337.55 372.59 337.55 372.94 337.55 373.76 337.55 373.93 337.55 374.91 337.55 375.26 337.55 376.18 337.55 376.36 337.55 377.23 337.55 377.58 337.55 378.61 337.55 378.78 337.55 380.01 337.55 380.36 337.55 381.04 337.55 381.2 337.55 382.34 337.55 382.68 337.55 383.46 337.55 383.63 337.55 385.12 337.55 385.46 337.55 385.89 337.55 386.06 337.55 387.44 337.55 387.78 337.55 388.31 337.55 388.48 337.55 390.22 337.55 390.57 337.55 391.22 337.55 391.39 337.55 392.54 337.55 392.88 337.55 393.65 337.55 393.82 337.55 394.86 337.55 395.21 337.55 396.08 337.55 396.25 337.55 397.18 337.55 397.52 337.55 398.02 337.55 398.18 337.55 399.95 337.55 400.31 337.55 400.93 337.55 401.11 337.55 402.29 337.55 402.62 337.55 403.36 337.55 403.53 337.55 405.07 337.55 405.41 337.55 406.27 337.55 406.44 337.55 407.38 337.55 407.73 337.55 408.69 337.55 408.86 337.55 411.76 341.58 411.76 341.99 411.76 345.93 411.76 346.03 411.76 354.73 411.76 354.81 411.76 372.49 411.76 372.49 407.73 372.49 407.38 372.49 405.41 372.49 405.07 372.49 402.62 372.49 402.29 372.49 400.31 372.49 399.95 372.49 263.3 372.49 233.25 372.2 233.25"/><polygon class="cls-1" points="233.43 405.78 233.43 402.09 230.46 402.09 230.46 401.28 230.23 401.28 230.23 397.84 230.02 397.84 230.02 401.28 229.8 401.28 229.8 402.09 224.38 402.09 224.38 401.88 224.38 401.41 224.38 400.94 224.38 400.07 224.38 399.59 224.38 399.13 224.38 398.25 224.38 397.77 224.38 397.14 224.38 396.27 224.38 395.78 224.38 395.32 224.38 394.45 224.38 393.97 224.38 393.52 224.38 392.63 224.38 392.15 224.38 391.7 224.38 390.81 224.38 390.34 224.38 389.88 224.38 389 224.38 388.52 224.38 388.07 224.38 387.19 224.38 386.7 224.38 386.25 224.38 385.38 224.38 384.89 224.38 384.44 224.38 383.56 224.38 383.07 224.38 382.6 224.38 381.72 224.38 381.23 224.38 380.78 224.38 379.9 224.38 379.42 224.38 378.96 224.38 378.09 224.38 377.61 224.38 377.14 224.38 376.28 224.38 375.79 224.38 375.33 224.38 374.45 224.38 373.97 224.38 373.52 224.38 372.64 224.38 372.16 224.38 371.71 224.38 370.83 224.38 370.35 224.38 369.89 224.38 369.01 224.38 368.53 224.38 368.01 224.38 367.13 224.38 366.65 224.38 366.19 224.38 365.31 224.38 364.83 224.38 364.38 224.38 363.5 224.38 363.02 224.38 362.56 224.38 361.68 224.38 361.2 224.38 360.75 224.38 359.87 224.38 359.39 224.38 358.93 224.38 358.05 224.38 357.57 224.38 357.11 224.38 356.24 224.38 355.75 224.38 355.3 224.38 354.42 224.38 353.94 224.38 353.49 224.38 352.6 224.38 352.13 224.38 351.67 224.38 350.79 224.38 350.31 224.38 349.86 224.38 348.98 224.38 348.49 224.38 348.04 224.38 347.16 224.38 346.68 224.38 346.22 224.38 345.35 224.38 344.86 224.38 344.41 224.38 343.53 224.38 343.05 224.38 342.6 224.38 341.72 224.38 341.23 224.38 340.79 224.38 339.9 224.38 339.42 224.38 338.97 224.38 338.09 224.38 337.6 224.38 337.15 224.38 336.27 224.38 335.79 224.38 335.33 224.38 334.45 224.38 333.97 224.38 333.52 224.38 332.64 224.38 332.16 224.38 331.7 224.38 330.83 224.38 330.34 224.38 329.89 224.38 329.01 224.38 328.53 224.38 328.07 224.38 327.19 224.38 326.71 224.38 326.26 224.38 325.38 224.38 324.9 224.38 324.45 224.38 323.56 224.38 323.08 224.38 322.63 224.38 321.75 224.38 321.27 224.38 320.81 224.38 319.93 224.38 319.45 224.38 319 224.38 318.12 224.38 317.64 224.38 317.18 224.38 316.31 224.38 315.82 224.38 315.37 224.38 314.49 224.38 314 224.38 313.55 224.38 312.67 224.38 312.19 224.38 311.73 224.38 310.86 224.38 310.38 224.38 309.93 224.38 309.04 224.38 308.56 224.38 308.11 224.38 307.23 224.38 306.75 224.38 306.29 224.38 305.41 224.38 304.93 224.38 304.48 224.38 303.6 224.38 303.11 224.38 302.66 224.38 301.78 224.38 301.3 224.38 300.85 224.38 299.97 224.38 299.48 224.38 299.03 224.38 298.15 224.38 297.67 224.38 297.22 224.38 296.33 224.38 295.86 224.38 295.4 224.38 294.52 224.38 294.04 224.38 293.58 224.38 292.71 224.38 292.22 224.38 291.77 224.38 290.89 224.38 290.41 224.38 289.96 224.38 289.08 224.38 288.59 224.38 288.14 224.38 287.26 224.38 286.77 224.38 286.32 224.38 285.44 224.38 284.96 224.38 284.51 224.38 283.63 224.38 283.15 224.38 282.69 224.38 281.81 224.38 281.33 224.38 280.88 224.38 280 224.38 279.52 224.38 279.07 224.38 278.18 224.38 277.7 224.38 277.25 224.38 276.37 224.38 275.89 224.38 275.44 224.38 274.55 224.38 274.07 224.38 273.62 224.38 272.74 224.38 272.26 224.38 271.8 224.38 270.92 224.38 270.44 224.38 269.99 224.38 269.11 224.38 268.63 224.38 268.17 224.38 267.29 224.38 266.81 224.38 266.36 224.38 265.48 224.38 265 224.38 264.54 224.38 263.66 224.38 263.18 224.38 262.73 224.38 261.85 224.38 261.37 224.38 260.91 224.38 260.03 224.38 259.55 224.38 259.1 224.38 258.22 224.38 257.74 224.38 257.28 224.38 256.4 224.38 255.92 224.38 255.47 224.38 254.59 224.38 254.11 224.38 253.65 224.38 252.77 224.38 252.29 224.38 251.84 224.38 250.96 224.38 250.47 224.38 250.02 224.38 249.14 224.38 248.66 224.38 248.21 224.38 247.33 224.38 246.85 224.38 246.39 224.38 245.51 224.38 245.03 224.38 244.57 224.38 243.69 224.38 243.21 224.38 242.76 224.38 241.88 224.38 241.4 224.38 240.95 224.38 240.06 224.38 239.58 224.38 239.13 224.38 238.25 224.38 237.77 224.38 237.31 224.38 236.44 224.38 235.95 224.38 235.5 224.38 234.62 224.38 234.14 224.38 233.68 224.38 232.8 224.38 232.32 224.38 231.87 224.38 230.99 224.38 230.51 224.38 230.05 224.38 229.17 224.38 228.69 224.38 228.24 224.38 227.7 224.38 227.36 224.38 226.88 224.38 224.25 223.47 224.25 222.55 224.25 221.97 224.25 221.97 222.99 220.81 222.99 220.81 220.15 220.46 220.15 220.46 212.39 219.96 212.39 219.96 220.15 219.6 220.15 219.6 222.99 218.51 222.99 218.51 220.52 218.23 220.52 218.23 217.21 218.3 217.21 218.3 216.66 218.02 216.66 218.02 217.21 218.08 217.21 218.08 220.52 217.81 220.52 217.81 222.99 216.91 222.99 216.91 218.86 216.42 218.86 216.42 208.67 215.73 208.67 215.73 218.86 215.25 218.86 215.25 222.99 214.45 222.99 214.45 221.48 210.25 221.48 210.25 217.05 209.98 217.05 209.98 213.74 210.04 213.74 210.04 213.19 209.76 213.19 209.76 213.74 209.82 213.74 209.82 217.05 209.55 217.05 209.55 221.48 208.92 221.48 208.92 206.77 208.28 206.77 208.28 205.26 208.92 205.26 208.92 204.47 208.28 204.47 208.28 202.97 208.92 202.97 208.92 202.18 208.28 202.18 208.28 200.67 208.92 200.67 208.92 199.88 208.28 199.88 208.28 198.38 208.92 198.38 208.92 197.59 208.28 197.59 208.28 196.08 208.92 196.08 208.92 195.29 208.28 195.29 208.28 193.78 208.92 193.78 208.92 193 208.28 193 208.28 191.49 208.92 191.49 208.92 190.7 208.28 190.7 208.28 189.19 208.92 189.19 208.92 188.4 208.28 188.4 208.28 186.9 208.92 186.9 208.92 186.11 208.28 186.11 208.28 177.91 206.62 177.91 206.62 186.11 205.97 186.11 205.97 186.9 206.62 186.9 206.62 188.4 205.97 188.4 205.97 189.19 206.62 189.19 206.62 190.7 205.97 190.7 205.97 191.49 206.62 191.49 206.62 193 205.97 193 205.97 193.78 206.62 193.78 206.62 195.29 205.97 195.29 205.97 196.08 206.62 196.08 206.62 197.59 205.97 197.59 205.97 198.38 206.62 198.38 206.62 199.88 205.97 199.88 205.97 200.67 206.62 200.67 206.62 202.18 205.97 202.18 205.97 202.97 206.62 202.97 206.62 204.47 205.97 204.47 205.97 205.26 206.62 205.26 206.62 206.77 205.97 206.77 205.97 221.48 203.26 221.48 203.26 217.83 202.91 217.83 202.91 210.07 202.41 210.07 202.41 217.83 202.05 217.83 202.05 221.48 201.34 221.48 201.34 222.99 201.03 222.99 201.03 219.31 200.7 219.31 200.7 215.34 200.78 215.34 200.78 214.68 200.44 214.68 200.44 215.34 200.52 215.34 200.52 219.31 200.19 219.31 200.19 222.99 199.13 222.99 199.13 220.15 198.78 220.15 198.78 212.39 198.28 212.39 198.28 220.15 197.92 220.15 197.92 222.99 196.83 222.99 196.83 220.52 196.56 220.52 196.56 217.21 196.62 217.21 196.62 216.66 196.34 216.66 196.34 217.21 196.4 217.21 196.4 220.52 196.13 220.52 196.13 222.99 193.69 222.99 193.69 224.25 193.23 224.25 191.41 224.25 191.25 224.25 191.25 405.78 183.19 405.78 183.19 408.22 183.19 408.29 183.19 409.57 183.19 412.23 183.99 412.23 184.78 412.23 186.55 412.23 187.08 412.23 190.95 412.23 192.07 412.23 192.94 412.23 194.06 412.23 194.93 412.23 196.06 412.23 196.93 412.23 198.05 412.23 198.92 412.23 200.05 412.23 200.92 412.23 202.04 412.23 202.92 412.23 204.04 412.23 204.91 412.23 206.03 412.23 206.9 412.23 208.02 412.23 208.9 412.23 210.02 412.23 210.89 412.23 212.02 412.23 212.89 412.23 214.01 412.23 214.19 412.23 214.88 412.23 215.66 412.23 216 412.23 216.56 412.23 216.88 412.23 216.91 412.23 218 412.23 218.56 412.23 218.87 412.23 218.91 412.23 219.99 412.23 220.55 412.23 220.87 412.23 220.9 412.23 221.99 412.23 222.55 412.23 222.86 412.23 222.9 412.23 223.98 412.23 224.54 412.23 224.9 412.23 225.2 412.23 225.55 412.23 226.53 412.23 226.89 412.23 227.2 412.23 227.55 412.23 228.53 412.23 228.88 412.23 229.19 412.23 229.54 412.23 230.52 412.23 230.88 412.23 231.19 412.23 231.54 412.23 231.96 412.23 232.52 412.23 232.87 412.23 233.43 412.23 234.18 412.23 234.18 408.29 234.18 408.22 234.18 405.78 233.43 405.78"/><polygon class="cls-1" points="172.13 361.82 172.13 244.43 163.71 205.76 157.7 205.76 157.7 243.75 156.58 243.75 156.58 234.47 141.98 234.47 141.98 243.75 140.86 243.75 140.86 205.76 134.85 205.76 126.43 244.43 126.43 361.82 124.92 361.82 124.92 411.66 126.43 411.66 133.96 411.66 140.86 411.66 157.7 411.66 164.6 411.66 172.13 411.66 179.65 411.66 179.65 361.82 172.13 361.82"/><polygon class="cls-2" points="465.86 286.25 464.4 286.25 464.4 280.87 434.69 280.87 434.69 278.7 433.64 278.7 433.64 276.75 433.03 276.75 433.03 278.7 432.75 278.7 432.75 273.8 432.17 273.8 432.17 278.7 431.37 278.7 431.37 280.87 429.81 280.87 429.81 286.25 428.34 286.25 428.34 292.56 429.81 292.56 429.81 342.61 427.17 342.61 427.17 339.23 402.55 339.23 402.55 342.61 399.29 342.61 399.29 412.35 429.81 412.35 433.88 412.35 464.4 412.35 464.4 292.56 465.86 292.56 465.86 286.25"/><polygon class="cls-2" points="728.98 323.25 728.98 320.59 720.81 320.59 720.81 316.68 715.88 316.68 715.88 315.1 715.88 314.34 715.88 311.83 713.86 311.83 713.86 297.62 713.16 297.62 713.16 297.55 713.18 297.55 713.18 297.12 713.16 297.12 713.16 296.51 713.18 296.51 713.18 296.07 713.16 296.07 713.16 295.47 713.18 295.47 713.18 295.04 712.62 295.04 712.62 294.96 712.19 294.96 712.19 295.04 708.21 295.04 708.21 294.96 707.77 294.96 707.77 295.04 704.31 295.04 704.31 294.96 703.87 294.96 703.87 295.04 702.77 295.04 702.77 295.47 702.8 295.47 702.8 296.07 702.77 296.07 702.77 296.51 702.8 296.51 702.8 297.12 702.77 297.12 702.77 297.55 702.8 297.55 702.8 297.62 702.13 297.62 702.13 311.83 700.1 311.83 700.1 314.34 700.1 315.1 700.1 316.68 695.18 316.68 695.18 320.59 687 320.59 687 323.25 684.9 323.25 684.9 384 684.9 390.93 684.9 400.22 684.9 401.01 684.9 411.6 687.48 411.6 687.48 411.61 688.31 411.61 688.31 411.6 688.99 411.6 688.99 411.61 689.83 411.61 689.83 411.6 691.67 411.6 691.67 411.61 692.5 411.61 692.5 411.6 693.19 411.6 693.19 411.61 694.02 411.61 694.02 411.6 696.21 411.6 696.21 411.61 697.04 411.61 697.04 411.6 697.73 411.6 697.73 411.61 698.56 411.61 698.56 411.6 706.82 411.6 706.82 411.61 707.65 411.61 707.65 411.6 708.34 411.6 708.34 411.61 709.16 411.61 709.16 411.6 717.3 411.6 717.3 411.61 718.13 411.61 718.13 411.6 718.82 411.6 718.82 411.61 719.64 411.61 719.64 411.6 722.01 411.6 722.01 411.61 722.85 411.61 722.85 411.6 723.53 411.6 723.53 411.61 724.36 411.61 724.36 411.6 726.21 411.6 726.21 411.61 727.04 411.61 727.04 411.6 727.73 411.6 727.73 411.61 728.56 411.61 728.56 411.6 731.08 411.6 731.08 401.01 731.08 400.22 731.08 390.93 731.08 384 731.08 323.25 728.98 323.25"/><polygon class="cls-2" points="625.27 285.21 625.27 280.67 572.61 280.67 572.61 285.21 567.6 285.21 567.6 347.65 630.28 347.65 630.28 285.21 625.27 285.21"/><polygon class="cls-2" points="347.65 254.44 347.65 251.1 324.64 251.1 324.64 244.78 310.35 244.78 310.35 251.1 307.12 251.1 307.12 254.44 305.23 254.44 305.23 412.32 349.54 412.32 349.54 254.44 347.65 254.44"/><polygon class="cls-2" points="29.36 386.68 29.87 386.68 31.23 386.68 31.73 386.68 32.78 386.68 33.29 386.68 33.29 386.25 33.29 384.9 33.29 384.24 33.29 383.81 33.29 382.47 33.29 381.81 33.29 381.38 33.29 380.03 33.29 379.37 33.29 378.94 33.29 377.59 33.29 376.93 33.29 376.5 33.29 375.16 33.29 374.5 33.29 374.07 33.29 372.72 33.29 372.06 33.29 371.63 33.29 370.28 33.29 369.62 33.29 369.19 33.29 367.84 33.29 367.18 33.29 366.75 33.29 365.41 33.29 364.75 33.29 364.31 33.29 362.97 33.29 362.31 33.29 361.88 33.29 360.53 33.29 359.87 33.29 359.44 33.29 358.1 33.29 357.43 33.29 357 33.29 355.66 33.29 355 33.29 354.57 33.29 353.22 33.29 352.56 33.29 352.13 33.29 350.78 33.29 350.12 33.29 349.69 33.29 348.35 33.29 347.68 33.29 347.25 33.29 345.91 33.29 345.25 33.29 344.81 33.29 343.47 33.29 342.81 33.29 342.38 33.29 341.04 33.29 340.37 33.29 339.94 33.29 338.6 33.29 337.93 33.29 337.5 33.29 336.15 33.29 335.49 33.29 335.06 33.29 333.72 33.29 333.06 33.29 332.63 33.29 331.28 33.29 330.62 33.29 330.19 33.29 328.85 33.29 328.19 33.29 327.76 33.29 326.41 33.29 325.74 33.29 325.32 33.29 323.97 33.29 323.31 33.29 322.88 33.29 321.53 33.29 320.87 33.29 320.44 33.29 319.09 33.29 318.43 33.29 318 33.29 316.66 33.29 316 33.29 315.57 33.29 314.22 33.29 313.56 33.29 313.12 33.29 311.78 33.29 311.12 33.29 310.69 33.29 309.34 33.29 308.68 33.29 308.25 33.29 306.9 33.29 306.25 33.29 305.81 33.29 304.47 33.29 303.81 33.29 303.38 33.29 302.03 33.29 301.37 33.29 300.94 33.29 299.59 33.29 298.93 33.29 298.5 33.29 297.16 33.29 296.5 33.29 296.06 33.29 294.72 33.29 294.06 33.29 293.63 33.29 292.28 33.29 291.62 33.29 291.19 33.29 289.84 33.29 289.19 33.29 288.75 33.29 287.41 33.29 286.75 33.29 286.31 33.29 284.97 33.29 284.31 33.29 283.88 33.29 282.53 33.29 281.87 33.29 281.44 33.29 280.1 33.29 279.43 33.29 279 33.29 277.66 33.29 277 33.29 276.56 33.29 275.22 33.29 274.56 33.29 274.13 33.29 272.78 33.29 272.12 33.29 271.69 33.29 270.34 33.29 269.69 33.29 269.25 33.29 267.91 33.29 267.25 33.29 266.82 33.29 265.47 33.29 264.81 33.29 264.38 33.29 263.03 33.29 262.37 33.29 261.94 33.29 260.6 33.29 259.94 33.29 259.5 33.29 258.16 33.29 257.5 33.29 257.07 33.29 254.86 33.5 254.86 33.5 254.85 33.74 254.85 33.74 254.86 34.13 254.86 34.13 254.85 34.36 254.85 34.36 254.86 34.75 254.86 34.75 254.85 34.98 254.85 34.98 254.86 35.37 254.86 35.37 254.85 35.6 254.85 35.6 254.86 36.61 254.86 36.61 254.85 36.85 254.85 36.85 254.86 37.86 254.86 37.86 254.85 38.09 254.85 38.09 254.86 38.59 254.86 38.59 254.47 38.59 254.16 38.59 254.15 38.59 253.97 38.59 253.54 38.59 252.84 38.59 252.54 38.59 251.34 38.59 250.91 38.59 250.64 38.59 250.41 38.59 252.1 38.59 250.78 38.59 250.47 38.59 249.94 38.59 249.5 38.59 249.15 38.59 248.85 38.59 248.75 39.04 248.69 39.04 248.63 39.27 248.63 39.27 248.65 39.72 248.58 39.72 248.56 39.84 248.56 40.96 248.39 40.96 248.37 41.08 248.37 43.45 248.01 43.45 247.99 43.57 247.99 44.69 247.82 44.69 247.8 44.81 247.8 45.94 247.63 45.94 247.62 46 247.62 48.36 247.26 48.36 247.22 48.59 247.22 48.59 247.22 50.85 246.88 50.85 246.84 51.08 246.84 51.08 246.84 53.33 246.5 53.33 246.48 53.46 246.48 54.58 246.31 54.58 246.29 54.7 246.29 55.82 246.12 55.82 246.1 55.95 246.1 57.06 245.93 57.06 245.91 57.19 245.91 57.69 245.84 57.69 245.79 57.92 245.79 57.92 245.8 58.31 245.74 58.31 245.7 58.54 245.7 58.54 245.7 58.93 245.64 58.93 245.5 59.16 245.5 59.16 245.61 59.55 245.55 59.55 245.5 59.78 245.5 59.78 245.51 59.84 245.5 59.84 248.85 59.84 249.15 59.84 249.5 59.84 249.94 59.84 250.47 59.84 250.78 59.84 252.1 59.84 250.41 59.84 250.64 59.84 250.91 59.84 251.34 59.84 252.54 59.84 252.84 59.84 253.54 59.84 253.97 59.84 254.15 59.84 254.16 59.84 254.47 59.84 254.86 60.56 254.86 60.56 254.85 60.79 254.85 60.79 254.86 61.8 254.86 61.8 254.85 62.03 254.85 62.03 254.86 63.04 254.86 63.04 254.85 63.27 254.85 63.27 254.86 63.66 254.86 63.66 254.85 63.9 254.85 63.9 254.86 64.28 254.86 64.28 254.85 64.52 254.85 64.52 254.86 64.91 254.86 64.91 254.85 65.14 254.85 65.14 254.86 65.15 254.86 65.15 257.07 65.15 257.5 65.15 258.16 65.15 259.5 65.15 259.94 65.15 260.6 65.15 261.94 65.15 262.37 65.15 263.03 65.15 264.38 65.15 264.81 65.15 265.47 65.15 266.82 65.15 267.25 65.15 267.91 65.15 269.25 65.15 269.69 65.15 270.34 65.15 271.69 65.15 272.12 65.15 272.78 65.15 274.13 65.15 274.56 65.15 275.22 65.15 276.56 65.15 277 65.15 277.66 65.15 279 65.15 279.43 65.15 280.1 65.15 281.44 65.15 281.87 65.15 282.53 65.15 283.88 65.15 284.31 65.15 284.97 65.15 286.31 65.15 286.75 65.15 287.41 65.15 288.75 65.15 289.19 65.15 289.84 65.15 291.19 65.15 291.62 65.15 292.28 65.15 293.63 65.15 294.06 65.15 294.72 65.15 296.06 65.15 296.5 65.15 297.16 65.15 298.5 65.15 298.93 65.15 299.59 65.15 300.94 65.15 301.37 65.15 302.03 65.15 303.38 65.15 303.81 65.15 304.47 65.15 305.81 65.15 306.25 65.15 306.9 65.15 308.25 65.15 308.68 65.15 309.34 65.15 310.69 65.15 311.12 65.15 311.78 65.15 313.12 65.15 313.56 65.15 314.22 65.15 315.57 65.15 316 65.15 316.66 65.15 318 65.15 318.43 65.15 319.09 65.15 320.44 65.15 320.87 65.15 321.53 65.15 322.88 65.15 323.31 65.15 323.97 65.15 325.32 65.15 325.74 65.15 326.41 65.15 327.76 65.15 328.19 65.15 328.85 65.15 330.19 65.15 330.62 65.15 331.28 65.15 332.63 65.15 333.06 65.15 333.72 65.15 335.06 65.15 335.49 65.15 336.15 65.15 337.5 65.15 337.93 65.15 338.6 65.15 339.94 65.15 340.37 65.15 341.04 65.15 342.38 65.15 342.81 65.15 343.47 65.15 344.81 65.15 345.25 65.15 345.91 65.15 347.25 65.15 347.68 65.15 348.35 65.15 349.69 65.15 350.12 65.15 350.78 65.15 352.13 65.15 352.56 65.15 353.22 65.15 354.57 65.15 355 65.15 355.66 65.15 357 65.15 357.43 65.15 358.1 65.15 359.44 65.15 359.87 65.15 360.53 65.15 361.88 65.15 362.31 65.15 362.97 65.15 364.31 65.15 364.75 65.15 365.41 65.15 366.75 65.15 367.18 65.15 367.84 65.15 369.19 65.15 369.62 65.15 370.28 65.15 371.63 65.15 372.06 65.15 372.72 65.15 374.07 65.15 374.5 65.15 375.16 65.15 376.5 65.15 376.93 65.15 377.59 65.15 378.94 65.15 379.37 65.15 380.03 65.15 381.38 65.15 381.81 65.15 382.47 65.15 383.81 65.15 384.24 65.15 384.9 65.15 386.25 65.15 386.68 65.15 387.34 65.15 388.69 65.15 389.12 65.15 389.78 65.15 391.13 65.15 391.56 65.15 392.22 65.15 393.56 65.15 394 65.15 394.65 65.15 396 65.15 396.44 65.15 397.09 65.15 398.44 65.15 398.87 65.15 399.53 65.15 400.88 65.15 401.31 65.15 401.96 65.15 403.32 65.15 403.75 65.15 404.41 65.15 405.75 65.15 406.19 65.15 406.51 65.15 407.42 65.15 408.19 65.15 408.62 65.15 409.28 65.15 411.46 51.53 411.46 51.53 411.49 51.29 411.49 51.29 411.46 51.29 411.46 49.22 411.46 47.35 411.46 47.35 411.49 47.12 411.49 47.12 411.46 33.29 411.46 32.78 411.46 31.73 411.46 31.23 411.46 29.87 411.46 29.36 411.46 28 411.46 27.5 411.46 26.14 411.46 25.63 411.46 24.43 411.46 24.43 411.44 24.43 409.28 24.43 408.62 24.43 408.19 24.43 406.85 24.43 406.19 24.43 405.75 24.43 404.41 24.43 403.75 24.43 403.32 24.43 401.96 24.43 401.31 24.43 400.88 24.43 400.87 24.43 399.53 24.43 398.87 24.43 398.44 24.43 397.09 24.43 396.44 24.43 396 24.43 394.65 24.43 394 24.43 393.56 24.43 392.22 24.43 391.56 24.43 391.13 24.43 389.78 24.43 389.15 24.43 389.12 24.43 388.69 24.43 386.68 29.36 386.68"/><polygon class="cls-2" points="185.26 294.77 185.26 290.12 185.26 290.12 171.05 277.23 166.06 277.23 151.85 290.12 151.85 294.77 148.66 294.77 148.66 412.76 188.45 412.76 188.45 294.77 185.26 294.77"/><polygon class="cls-2" points="235.14 254.48 235.14 251.14 210.73 251.14 210.73 254.48 209.6 254.48 209.6 412.37 236.28 412.37 236.28 254.48 235.14 254.48"/><rect class="cls-2" x="488.33" y="295.82" width="19.06" height="107.67"/><rect class="cls-3" x="475.89" y="309.89" width="34.99" height="101.44"/><polygon class="cls-3" points="665.26 349.42 665.26 344.87 612.6 344.87 612.6 349.42 607.59 349.42 607.59 411.85 670.27 411.85 670.27 349.42 665.26 349.42"/><path class="cls-3" d="M214.58,403.26A1.28,1.28,0,1,0,213.3,402,1.28,1.28,0,0,0,214.58,403.26Z" transform="translate(-35.23 -54.13)"/><path class="cls-3" d="M225.52,405.46a1.28,1.28,0,1,0-1.28-1.28A1.28,1.28,0,0,0,225.52,405.46Z" transform="translate(-35.23 -54.13)"/><path class="cls-3" d="M230.76,408.26a1.28,1.28,0,0,0,0-2.56,1.28,1.28,0,0,0,0,2.56Z" transform="translate(-35.23 -54.13)"/><path class="cls-3" d="M234.64,411.65a1.28,1.28,0,1,0-1.28-1.28A1.28,1.28,0,0,0,234.64,411.65Z" transform="translate(-35.23 -54.13)"/><path class="cls-3" d="M238.22,416a1.28,1.28,0,1,0-1.28-1.28A1.28,1.28,0,0,0,238.22,416Z" transform="translate(-35.23 -54.13)"/><path class="cls-3" d="M240.9,421.49a1.28,1.28,0,1,0-1.28-1.28A1.27,1.27,0,0,0,240.9,421.49Z" transform="translate(-35.23 -54.13)"/><path class="cls-3" d="M241.35,426.17a1.28,1.28,0,1,0,2.56,0,1.28,1.28,0,1,0-2.56,0Z" transform="translate(-35.23 -54.13)"/><path class="cls-3" d="M242.41,431.69a1.27,1.27,0,0,0-1.26,1.19c.08-.86.12-1.73.12-2.6a26.93,26.93,0,0,0-21.39-26.38,1.26,1.26,0,1,0-.52-.1,27.27,27.27,0,0,0-5.05-.48,26.94,26.94,0,0,0-26.95,27c0,.68,0,1.36.1,2a1.32,1.32,0,0,0-.77-.28,1.28,1.28,0,1,0,0,2.56,1.24,1.24,0,0,0,1-.48,26.74,26.74,0,0,0,1.24,5.1,1.22,1.22,0,0,0-.62-.19,1.28,1.28,0,0,0,0,2.56,1.27,1.27,0,0,0,1.19-.83,27,27,0,0,0,24.31,16.45v6.65h1.39v-6.67a26.89,26.89,0,0,0,11.66-3,1.25,1.25,0,0,0-.7,1.12,1.28,1.28,0,1,0,1.28-1.28,1.07,1.07,0,0,0-.43.09,27.18,27.18,0,0,0,6.4-4.76,26.83,26.83,0,0,0,6.25-9.85,1.28,1.28,0,1,0,1.19-.79,1.28,1.28,0,0,0-1.19.79,27.11,27.11,0,0,0,1.5-6.46,1.27,1.27,0,0,0,1.27,1.25,1.28,1.28,0,0,0,0-2.56Zm-25.72.08-1.05-.77,0,0,23,9a26.49,26.49,0,0,1-2.32,4.49Zm19.42,13c-.19.29-.39.57-.59.85l-13.8-10.17Zm-22.85-12.48-9.76,21.82a27.42,27.42,0,0,1-4-2.25Zm-14,19.35c-.37-.26-.72-.53-1.08-.8l13-16.13Zm-6.12-6a28,28,0,0,1-2.27-3.76l21.81-10.69.11,0-.6.5Zm14.23-10L194,446.76c-.22-.28-.44-.55-.65-.83Zm-19.06-8.14a24.09,24.09,0,0,1,.57-3.31l22.93,5.5.26.08Zm20.48,2.33-20.61-.62c0-.45.05-.89.09-1.34Zm-7.86-22a26,26,0,0,1,4.58-2.18l8,22.09.38,1.3h0Zm10.33,17.72-11.77-16.8c.37-.25.74-.5,1.12-.73Zm12.6-19.66-8.72,22,4.37-23.24A26.54,26.54,0,0,1,223.81,405.85Zm-7.45,23.94-.1,0,.67-.3,22-8.14a26.78,26.78,0,0,1,1.13,4.2Zm23.79-3.85c.06.34.11.69.15,1L222.73,429ZM222.67,427l15.77-6.93c.14.31.26.64.38,1Zm-5.84,2.15-.52.2L237,417.2a25.74,25.74,0,0,1,1.28,2.51Zm2-1.74L236,415.61c.28.41.55.83.8,1.27Zm-2.69,1.39,1.47-1.58,15.86-14.74a26.88,26.88,0,0,1,2.28,2.83Zm-.11-.62,12.37-19.95a27,27,0,0,1,3.73,2.9L217.4,427Zm-1,.85,10.59-22.34a25.77,25.77,0,0,1,2.42,1.34Zm1.5-4.06,7.54-19,1.21.53Zm-1.41.16,3-20.76c.3,0,.6.1.89.15ZM214,428.17v.12l-.26-.71-6.62-22.51a26.35,26.35,0,0,1,4.28-.84Zm-2.22-24,1-.08.87,17.69Zm-.15,17.5-5.84-16.2,1-.32Zm.94,7.39-20.78-12.24a25.77,25.77,0,0,1,2.73-3.74Zm-17.81-16.27.63-.66,15.14,14.62ZM207,426.19l-15.82-8.11c.16-.31.33-.62.51-.92Zm5.52,3.25.1.06-.75-.18-22.52-6.87a26,26,0,0,1,1.66-4Zm-6.7-1.57-16.86-4.05c.09-.34.19-.67.28-1Zm6.67,3-22.37,9.37a25.78,25.78,0,0,1-1.37-4.45Zm-23.82,4.56c-.06-.3-.12-.6-.16-.9l20.94-3.42Zm18.12-1.77-16.09,7.89c-.15-.32-.29-.64-.43-1Zm5.77,1.25-7.81,19.74c-.29-.11-.57-.22-.85-.35Zm1.27-2.19v.57L209.53,456a25.94,25.94,0,0,1-4.49-1.26Zm-.59,5.78-2.25,17.77-1-.16Zm2-2.78v-.92l4.44,21.15c-.7.15-1.41.25-2.13.34Zm1.94,20.62c-.35,0-.69.06-1,.08l-.9-17.34Zm-1.33-20.46,5.48,19.67c-.42.12-.85.22-1.28.32Zm-.5-3.19,10.57,21.12a26.66,26.66,0,0,1-4.23,1.64Zm1.52,2.2L227,453.21l-.8.42ZM215.65,432l15.43,18.35a26.75,26.75,0,0,1-3.77,2.63Zm4.36,4.6,12.13,12.82-.77.69Zm-.25-4.48,19.46,6.23c-.13.42-.28.84-.44,1.25Zm-2.95-1.34,23.49,2.79a25.12,25.12,0,0,1-1,4.43Zm2.76-.05,20.86,1.56c0,.3-.05.6-.08.9Zm-3.09-.61,23.87-2.82a26.07,26.07,0,0,1,.17,2.94c0,.56,0,1.12-.06,1.67Zm16.78-18-11.95,11.12,11.14-11.93Zm-15.43-7.88-3.42,23.79-1.19-24c.36,0,.73,0,1.09,0A27.14,27.14,0,0,1,217.83,404.31Zm-18.69,4.62,13.61,19.44-17.08-16.5A27.1,27.1,0,0,1,199.14,408.93Zm-11,20.66,23.82.72-23.55,3.84a27.54,27.54,0,0,1-.28-3.87C188.11,430,188.12,429.81,188.12,429.59Zm6.08,17.46,18.18-15.12,1-.74,0,.06-15.58,19.38A25.66,25.66,0,0,1,194.2,447.05Zm17.11,9.25,2.47-19.49v19.66C213,456.45,212.13,456.4,211.31,456.3Zm3.86-10,.52,10.1-.52,0Zm17.25,2.86-16.51-17.45-.08-.09.65.42L235.3,446A27.77,27.77,0,0,1,232.42,449.2Z" transform="translate(-35.23 -54.13)"/><path class="cls-3" d="M237.43,445.49a1.28,1.28,0,1,0,1.28,1.28A1.28,1.28,0,0,0,237.43,445.49Z" transform="translate(-35.23 -54.13)"/><path class="cls-3" d="M233.06,450.21a1.28,1.28,0,1,0,1.28,1.28A1.28,1.28,0,0,0,233.06,450.21Z" transform="translate(-35.23 -54.13)"/><path class="cls-3" d="M221.17,456.48a1.28,1.28,0,1,0,1.27,1.28A1.28,1.28,0,0,0,221.17,456.48Z" transform="translate(-35.23 -54.13)"/><path class="cls-3" d="M191.66,445.84a1.28,1.28,0,1,0,1.28,1.28A1.28,1.28,0,0,0,191.66,445.84Z" transform="translate(-35.23 -54.13)"/><path class="cls-3" d="M196,450.56a1.28,1.28,0,1,0,1.28,1.27A1.28,1.28,0,0,0,196,450.56Z" transform="translate(-35.23 -54.13)"/><path class="cls-3" d="M201.68,454.34a1.28,1.28,0,1,0,1.28,1.28A1.28,1.28,0,0,0,201.68,454.34Z" transform="translate(-35.23 -54.13)"/><path class="cls-3" d="M207.93,456.82a1.28,1.28,0,0,0,0,2.56,1.28,1.28,0,0,0,0-2.56Z" transform="translate(-35.23 -54.13)"/><path class="cls-3" d="M208.85,403.78a1.28,1.28,0,1,0-1.28-1.27A1.28,1.28,0,0,0,208.85,403.78Z" transform="translate(-35.23 -54.13)"/><path class="cls-3" d="M203.11,405.43a1.28,1.28,0,1,0-1.28-1.28A1.28,1.28,0,0,0,203.11,405.43Z" transform="translate(-35.23 -54.13)"/><path class="cls-3" d="M197.87,408.23a1.28,1.28,0,1,0-1.28-1.28A1.28,1.28,0,0,0,197.87,408.23Z" transform="translate(-35.23 -54.13)"/><path class="cls-3" d="M194,411.62a1.29,1.29,0,1,0-1.28-1.29A1.28,1.28,0,0,0,194,411.62Z" transform="translate(-35.23 -54.13)"/><path class="cls-3" d="M190.41,416a1.28,1.28,0,1,0-1.28-1.28A1.28,1.28,0,0,0,190.41,416Z" transform="translate(-35.23 -54.13)"/><path class="cls-3" d="M187.73,421.46a1.28,1.28,0,1,0-1.28-1.28A1.28,1.28,0,0,0,187.73,421.46Z" transform="translate(-35.23 -54.13)"/><path class="cls-3" d="M187.28,426.14a1.28,1.28,0,1,0-1.28,1.28A1.29,1.29,0,0,0,187.28,426.14Z" transform="translate(-35.23 -54.13)"/><polygon class="cls-3" points="32.08 380.92 32.08 316.07 30.02 316.07 30.02 291.38 28.47 291.38 28.47 275.58 27.23 275.58 27.23 266.46 24.96 266.46 24.96 264.24 23.72 264.24 23.72 262.68 22.93 262.68 22.93 261.57 11.19 261.57 11.19 262.68 10.39 262.68 10.39 264.24 9.16 264.24 9.16 266.46 6.88 266.46 6.88 275.58 5.65 275.58 5.65 291.38 4.1 291.38 4.1 316.07 2.04 316.07 2.04 380.92 0 380.92 0 410.94 34.12 410.94 34.12 380.92 32.08 380.92"/><polygon class="cls-3" points="335.11 409.46 335.11 389.93 335.11 389.52 335.11 388.64 335.11 388.24 335.11 387.35 335.11 386.95 335.11 386.06 335.11 385.66 335.11 384.78 335.11 384.37 335.11 383.49 335.11 383.08 335.11 382.19 335.11 381.8 335.11 380.91 335.11 380.5 335.11 379.62 335.11 379.22 335.11 378.33 335.11 377.93 335.11 377.04 335.11 376.64 335.11 375.76 335.11 375.35 335.11 374.47 335.11 374.06 335.11 373.18 335.11 372.77 335.11 371.89 335.11 371.48 335.11 370.6 335.11 370.2 335.11 369.31 335.11 368.91 335.11 368.02 335.11 367.62 335.11 366.74 335.11 366.33 335.11 365.45 335.11 365.04 335.11 364.15 335.11 363.75 335.11 362.87 335.11 362.46 335.11 361.58 335.11 361.18 335.11 360.29 335.11 359.89 335.11 359 335.11 358.6 335.11 357.71 335.11 357.31 335.11 356.43 335.11 356.02 335.11 355.14 335.11 354.74 335.11 353.85 335.11 353.45 335.11 352.56 335.11 352.16 335.11 351.27 335.11 350.87 335.11 349.99 335.11 349.58 335.11 348.69 335.11 348.29 335.11 347.41 335.11 347.01 335.11 346.12 335.11 345.71 335.11 344.83 335.11 344.43 335.11 343.54 335.11 343.14 335.11 342.25 335.11 341.85 335.11 340.96 335.11 340.56 335.11 339.68 335.11 339.27 335.11 338.39 335.11 337.99 335.11 337.1 335.11 336.69 335.11 335.81 335.11 335.41 335.11 334.52 335.11 334.12 335.11 333.23 335.11 332.83 335.11 331.94 335.11 331.54 335.11 330.66 335.11 330.25 335.11 329.37 335.11 328.97 335.11 328.07 335.11 327.68 335.11 326.79 335.11 326.39 335.11 325.5 335.11 325.1 335.11 324.21 335.11 323.81 335.11 322.92 335.11 322.52 335.11 321.64 335.11 321.23 335.11 321.09 335.11 320.35 335.11 319.95 335.11 319.06 335.11 318.65 335.11 317.77 335.11 317.37 335.11 316.48 335.11 316.08 335.11 315.19 335.11 314.79 335.11 314.63 332.73 314.63 332.73 313.91 332.73 313.5 332.73 312.62 332.73 312.21 332.73 311.33 332.73 310.92 332.73 310.04 332.73 309.64 332.73 308.75 332.73 308.35 332.73 307.46 332.73 307.06 332.73 306.17 332.73 305.77 332.73 304.89 332.73 304.48 332.73 303.6 332.73 303.19 332.73 301.64 329.1 301.64 328.69 301.64 325.13 301.64 324.72 301.64 322.48 301.64 322.07 301.64 318.51 301.64 318.1 301.64 314.78 301.64 314.78 303.19 314.78 303.6 314.78 304.48 314.78 304.89 314.78 305.77 314.78 306.17 314.78 307.06 314.78 307.46 314.78 308.35 314.78 308.75 314.78 309.64 314.78 310.04 314.78 310.92 314.78 311.33 314.78 312.21 314.78 312.62 314.78 313.5 314.78 313.91 314.78 314.63 312.36 314.63 312.36 314.79 312.36 315.19 312.36 316.08 312.36 316.48 312.36 317.37 312.36 317.77 312.36 318.65 312.36 319.06 312.36 319.95 312.36 320.35 312.36 321.23 312.36 321.64 312.36 322.52 312.36 322.92 312.36 323.81 312.36 324.21 312.36 325.1 312.36 325.5 312.36 326.39 312.36 326.79 312.36 327.68 312.36 328.07 312.36 328.97 312.36 329.37 312.36 330.25 312.36 330.66 312.36 331.54 312.36 331.94 312.36 332.83 312.36 333.23 312.36 334.12 312.36 334.52 312.36 335.41 312.36 335.81 312.36 336.69 312.36 337.1 312.36 337.99 312.36 338.39 312.36 339.27 312.36 339.68 312.36 340.56 312.36 340.96 312.36 341.85 312.36 342.25 312.36 343.14 312.36 343.54 312.36 344.43 312.36 344.83 312.36 345.71 312.36 346.12 312.36 347.01 312.36 347.41 312.36 348.29 312.36 348.69 312.36 349.58 312.36 349.99 312.36 350.87 312.36 351.27 312.36 352.16 312.36 352.56 312.36 353.45 312.36 353.85 312.36 354.74 312.36 355.14 312.36 356.02 312.36 356.43 312.36 357.31 312.36 357.71 312.36 358.6 312.36 359 312.36 359.89 312.36 360.29 312.36 361.18 312.36 361.58 312.36 362.46 312.36 362.87 312.36 363.75 312.36 364.15 312.36 365.04 312.36 365.45 312.36 366.33 312.36 366.74 312.36 367.62 312.36 368.02 312.36 368.91 312.36 369.31 312.36 370.2 312.36 370.6 312.36 371.48 312.36 371.89 312.36 372.77 312.36 373.18 312.36 374.06 312.36 374.47 312.36 375.35 312.36 375.76 312.36 376.64 312.36 377.04 312.36 377.93 312.36 378.33 312.36 379.22 312.36 379.62 312.36 380.5 312.36 380.91 312.36 381.8 312.36 382.19 312.36 383.08 312.36 383.49 312.36 384.37 312.36 384.78 312.36 385.66 312.36 386.06 312.36 386.95 312.36 387.35 312.36 388.24 312.36 388.64 312.36 389.52 312.36 389.93 312.36 410.11 312.38 410.11 316.1 410.11 316.42 410.11 316.51 410.11 316.85 410.11 320.07 410.11 320.48 410.11 323.37 410.11 323.66 410.11 323.79 410.11 327.01 410.11 327.42 410.11 330.31 410.11 330.65 410.11 330.73 410.11 331.06 410.11 335.11 410.11 335.13 410.11 335.11 409.46"/><polygon class="cls-3" points="246.07 408.39 246.07 388.94 246.07 386.72 245.57 386.72 245.57 375.46 244.92 375.46 244.74 375.3 244.74 374.32 243.68 374.32 243.68 373.59 243.68 372.62 243.68 371.71 243.68 370.74 243.68 369.83 243.68 368.86 243.68 367.95 243.68 366.98 243.68 366.07 243.68 365.1 243.68 364.19 243.68 363.23 243.68 362.31 243.68 361.35 243.68 360.44 243.68 359.47 243.68 358.56 243.68 357.59 243.68 356.68 243.68 355.71 243.68 354.8 243.68 353.83 243.68 352.92 243.68 351.95 243.68 351.04 243.68 350.07 243.68 349.17 243.68 348.19 243.68 347.28 243.68 346.31 243.68 345.4 243.68 344.44 243.68 343.53 243.68 342.56 243.68 341.65 243.68 340.68 243.68 339.77 243.68 338.8 243.68 337.89 243.68 336.92 243.68 336.02 243.68 335.04 243.68 334.13 243.68 333.16 243.68 332.25 243.68 331.28 243.68 330.38 243.68 329.41 243.68 328.5 243.68 327.53 243.68 326.61 243.68 325.65 243.68 324.74 243.68 323.85 243.68 323.77 243.68 322.86 243.68 322.12 243.68 322.12 243.68 321.6 243.68 320.69 243.68 320.02 243.68 319.1 243.68 318.31 243.68 317.4 243.68 317.29 243.68 317 243.68 316.82 243.68 316.54 243.68 316.35 243.68 316.06 243.68 315.88 243.68 315.6 243.68 315.42 243.68 315.13 243.68 314.94 243.68 314.65 243.68 314.48 243.68 314.19 243.68 314.01 243.68 313.72 243.68 313.54 243.68 313.25 243.68 313.07 243.68 312.78 243.68 312.6 243.68 312.54 243.68 312.31 243.68 312.13 243.68 311.84 243.68 311.65 243.68 311.36 243.68 311.19 243.68 310.9 243.68 310.82 241.83 310.82 241.81 310.81 241.81 310.52 241.81 310.34 241.81 310.05 241.81 309.87 241.81 309.58 241.81 309.42 240.93 309.42 240.93 309 240.93 308.91 241.81 308.91 241.81 308.59 241.81 308.28 240.93 308.28 240.93 307.46 239.29 307.46 239.29 307.08 237.15 307.08 237.15 306.69 237.15 305.16 235.51 305.16 235.51 305.13 235.51 304.87 235.51 304.19 235.51 303.93 235.51 303.25 235.51 303 235.51 302.43 234.52 302.43 232.3 301.16 232.3 300.72 232.41 300.72 232.41 300.45 232.3 300.45 232.3 300.25 232.41 300.25 232.41 299.99 232.3 299.99 232.3 299.78 232.41 299.78 232.41 299.51 232.3 299.51 232.3 299.31 232.41 299.31 232.41 299.04 232.3 299.04 232.3 298.84 232.41 298.84 232.41 298.57 232.3 298.57 232.3 298.37 232.41 298.37 232.41 298.11 232.3 298.11 232.3 297.9 232.41 297.9 232.41 297.64 232.3 297.64 232.3 297.43 232.41 297.43 232.41 297.16 232.3 297.16 232.3 296.77 231.56 296.77 231.56 297.16 231.44 297.16 231.44 297.43 231.56 297.43 231.56 297.64 231.44 297.64 231.44 297.9 231.56 297.9 231.56 298.11 231.44 298.11 231.44 298.37 231.56 298.37 231.56 298.57 231.44 298.57 231.44 298.84 231.56 298.84 231.56 299.04 231.44 299.04 231.44 299.31 231.56 299.31 231.56 299.51 231.44 299.51 231.44 299.78 231.56 299.78 231.56 299.99 231.44 299.99 231.44 300.25 231.56 300.25 231.56 300.45 231.44 300.45 231.44 300.72 231.56 300.72 231.56 301.16 229.34 302.43 228.35 302.43 228.35 303 228.35 303.25 228.35 303.93 228.35 304.19 228.35 304.87 228.35 305.13 228.35 305.16 226.71 305.16 226.71 307.08 224.57 307.08 224.57 307.46 222.93 307.46 222.93 308.28 222.05 308.28 222.05 308.59 222.05 308.91 222.93 308.91 222.93 309.42 222.05 309.42 222.05 309.58 222.05 309.87 222.05 310.05 222.05 310.34 222.05 310.52 222.05 310.81 222.05 310.82 220.18 310.82 220.18 310.89 220.18 311.18 220.18 311.36 220.18 311.65 220.18 311.83 220.18 312.12 220.18 312.3 220.18 312.59 220.18 312.77 220.18 313.06 220.18 313.24 220.18 313.53 220.18 313.71 220.18 314 220.18 314.18 220.18 314.47 220.18 314.65 220.18 314.94 220.18 315.12 220.18 315.41 220.18 315.59 220.18 315.88 220.18 316.06 220.18 316.35 220.18 316.53 220.18 316.82 220.18 317 220.18 317.29 220.18 317.4 220.18 318.31 220.18 319.1 220.18 320.02 220.18 320.69 220.18 321.6 220.18 322.12 220.18 322.12 220.18 322.86 220.18 323.77 220.18 324.74 220.18 325.65 220.18 326.61 220.18 327.53 220.18 328.5 220.18 329.41 220.18 330.38 220.18 331.28 220.18 332.25 220.18 333.16 220.18 334.13 220.18 335.04 220.18 336.02 220.18 336.92 220.18 337.89 220.18 338.8 220.18 339.77 220.18 340.68 220.18 341.65 220.18 342.56 220.18 343.53 220.18 344.44 220.18 345.4 220.18 346.31 220.18 347.28 220.18 348.19 220.18 349.17 220.18 350.07 220.18 351.04 220.18 351.95 220.18 352.92 220.18 353.83 220.18 354.8 220.18 355.71 220.18 356.68 220.18 357.59 220.18 358.56 220.18 359.47 220.18 360.44 220.18 361.35 220.18 362.31 220.18 363.23 220.18 364.19 220.18 365.1 220.18 366.07 220.18 366.98 220.18 367.95 220.18 368.86 220.18 369.83 220.18 370.74 220.18 371.71 220.18 372.62 220.18 373.59 220.18 374.32 219.13 374.32 219.13 375.46 218.23 375.46 218.23 386.72 217.12 386.72 217.12 408.39 216.92 408.39 216.92 410.15 217.35 410.15 217.35 408.78 218.28 408.78 218.28 410.15 219.86 410.15 220.69 410.15 223.35 410.15 224.53 410.15 227.19 410.15 228.38 410.15 231.04 410.15 232.23 410.15 234.88 410.15 236.07 410.15 238.73 410.15 239.92 410.15 242.57 410.15 243.33 410.15 244.92 410.15 245.84 410.15 246.26 410.15 246.26 408.39 246.07 408.39"/><polygon class="cls-3" points="308.25 406.26 308.25 405.87 308.25 404.83 308.25 404.46 308.25 403.42 308.25 403.04 308.25 402 308.25 401.62 308.25 400.58 308.25 400.21 308.25 399.17 308.25 398.79 308.25 397.75 308.25 397.37 308.25 396.34 308.25 395.96 308.25 394.92 308.25 394.54 308.25 393.5 308.25 393.12 308.25 392.09 308.25 391.7 308.25 390.67 308.25 390.29 308.25 389.25 308.25 388.87 308.25 387.84 308.25 387.46 308.25 386.42 308.25 386.04 308.25 385.01 308.25 384.63 308.25 383.59 308.25 383.21 308.25 382.17 308.25 381.79 308.25 380.75 308.25 380.38 308.25 379.34 308.25 378.96 308.25 377.92 308.25 377.54 308.25 376.5 308.25 376.13 308.25 375.09 308.25 374.71 308.25 373.67 308.25 373.29 308.25 372.26 308.25 371.88 308.25 370.84 308.25 370.46 308.25 369.42 308.25 369.04 308.25 368.01 308.25 367.62 308.25 366.59 308.25 366.21 308.25 365.17 308.25 364.79 308.25 363.75 308.25 363.37 308.25 362.34 308.25 361.96 308.25 360.93 308.25 360.54 308.25 359.51 308.25 359.13 308.25 358.09 308.25 357.71 308.25 356.67 308.25 356.29 308.25 355.26 308.25 354.88 308.25 353.84 308.25 353.46 308.25 352.42 308.25 352.04 308.25 351.01 308.25 350.63 308.25 349.59 308.25 349.21 308.25 348.17 308.25 347.8 308.25 346.76 308.25 346.38 308.25 345.34 308.25 344.96 308.25 343.92 308.25 343.54 308.25 342.51 308.25 342.13 308.25 341.09 308.25 340.71 308.25 339.67 308.25 339.29 308.25 338.26 308.25 337.88 308.25 336.84 308.25 336.46 308.25 335.42 308.25 335.04 308.25 334.01 308.25 333.62 308.25 332.59 308.25 332.21 308.25 331.17 308.25 330.79 308.25 329.76 308.25 329.38 308.25 328.34 308.25 327.96 308.25 327.57 308.25 326.93 307.01 326.93 307.01 326.3 301.74 321.52 301.58 321.52 296.31 326.3 296.31 326.93 295.08 326.93 295.08 327.57 295.08 327.96 295.08 328.34 295.08 329.38 295.08 329.76 295.08 330.79 295.08 331.17 295.08 332.21 295.08 332.59 295.08 333.62 295.08 334.01 295.08 335.04 295.08 335.42 295.08 336.46 295.08 336.84 295.08 337.88 295.08 338.26 295.08 339.29 295.08 339.67 295.08 340.71 295.08 341.09 295.08 342.13 295.08 342.51 295.08 343.54 295.08 343.92 295.08 344.96 295.08 345.34 295.08 346.38 295.08 346.76 295.08 347.8 295.08 348.17 295.08 349.21 295.08 349.59 295.08 350.63 295.08 351.01 295.08 352.04 295.08 352.42 295.08 353.46 295.08 353.84 295.08 354.88 295.08 355.26 295.08 356.29 295.08 356.67 295.08 357.71 295.08 358.09 295.08 359.13 295.08 359.51 295.08 360.54 295.08 360.93 295.08 361.96 295.08 362.34 295.08 363.37 295.08 363.75 295.08 364.79 295.08 365.17 295.08 366.21 295.08 366.59 295.08 367.62 295.08 368.01 295.08 369.04 295.08 369.42 295.08 370.46 295.08 370.84 295.08 371.88 295.08 372.26 295.08 373.29 295.08 373.67 295.08 374.71 295.08 375.09 295.08 376.13 295.08 376.5 295.08 377.54 295.08 377.92 295.08 378.96 295.08 379.34 295.08 380.38 295.08 380.75 295.08 381.79 295.08 382.17 295.08 383.21 295.08 383.59 295.08 384.63 295.08 385.01 295.08 386.04 295.08 386.42 295.08 387.46 295.08 387.84 295.08 388.87 295.08 389.25 295.08 390.29 295.08 390.67 295.08 391.7 295.08 392.09 295.08 393.12 295.08 393.5 295.08 394.54 295.08 394.92 295.08 395.96 295.08 396.34 295.08 397.37 295.08 397.75 295.08 398.79 295.08 399.17 295.08 400.21 295.08 400.58 295.08 401.62 295.08 402 295.08 403.04 295.08 403.42 295.08 404.46 295.08 404.83 295.08 405.87 295.08 406.26 292.87 406.26 292.87 407.29 292.87 407.67 292.87 408.71 292.87 409.08 292.87 410.12 292.87 410.58 295.08 410.58 295.08 410.58 308.25 410.58 308.25 410.58 314.79 410.58 314.79 410.12 314.79 409.08 314.79 408.71 314.79 407.67 314.79 407.29 314.79 406.26 308.25 406.26"/><polygon class="cls-4" points="427.79 208.12 427.79 207.28 426.84 207.28 421.06 194.23 421.06 194.17 419.85 194.17 414.33 181.69 414.33 181.44 414.22 181.44 414.22 181.44 413.08 181.44 407.44 168.68 405.47 168.68 405.47 168.05 404.55 168.05 404.55 167.42 403.86 167.42 403.86 162.81 401.35 160.86 401.35 155.79 399.48 154.05 399.48 142.95 398.85 142.37 398.85 142.36 398.84 142.37 398.84 142.36 398.84 142.37 398.2 142.95 398.2 154.05 396.33 155.79 396.33 160.86 393.82 162.81 393.82 167.42 393.13 167.42 393.13 168.05 392.21 168.05 392.21 168.68 390.47 168.68 384.82 181.44 383.7 181.44 378.06 194.17 376.99 194.17 376.99 194.18 371.19 207.28 370.07 207.28 370.07 208.12 369.39 208.12 369.39 208.95 369.92 208.95 370.23 209.67 370.23 209.67 371.09 211.69 370.28 211.69 370.28 212.52 371.09 212.52 371.09 213.3 371.09 213.92 371.09 216.09 371.09 218 371.09 220.78 371.09 222.69 371.09 225.48 371.09 227.39 371.09 230.18 371.09 232.08 371.09 234.87 371.09 235.12 371.09 235.21 371.09 236.78 371.09 239.57 371.09 241.47 371.09 244.26 371.09 246.17 371.09 248.96 371.09 250.87 371.09 253.66 371.09 255.56 371.09 258.35 371.09 260.26 371.09 263.05 371.09 264.95 371.09 267.74 371.09 270.04 371.09 272.15 371.09 274.64 371.09 276.84 371.09 279.34 371.09 281.54 371.09 284.03 371.09 286.23 371.09 288.73 371.09 290.93 371.09 293.42 371.09 295.63 371.09 298.12 371.09 300.32 371.09 302.82 371.09 305.02 371.09 307.51 371.09 309.71 371.09 312.21 371.09 314.41 371.09 316.9 371.09 319.1 371.09 321.6 371.09 323.8 371.09 326.3 371.09 328.5 371.09 330.99 371.09 333.19 371.09 335.69 371.09 337.89 371.09 340.38 371.09 342.58 371.09 345.08 371.09 347.28 371.09 349.77 371.09 351.98 371.09 354.47 371.09 356.68 371.09 359.17 371.09 361.37 371.09 363.86 371.09 366.07 371.09 368.56 371.09 370.76 371.09 373.25 371.09 375.46 371.09 377.95 371.09 380.15 371.09 382.65 371.09 384.85 371.09 387.34 371.09 389.54 371.09 392.04 371.09 394.24 371.09 396.73 371.09 400.35 369.99 400.35 369.99 411.66 371.09 411.66 371.76 411.66 373.19 411.66 376.4 411.66 377.22 411.66 377.78 411.66 378.65 411.66 379.89 411.66 380.71 411.66 382.22 411.66 383.04 411.66 384.55 411.66 385.37 411.66 386.83 411.66 388.55 411.66 389.2 411.66 390.03 411.66 391.53 411.66 392.36 411.66 393.86 411.66 394.69 411.66 396.19 411.66 397.01 411.66 398.52 411.66 399.34 411.66 400.84 411.66 401.67 411.66 403.18 411.66 404 411.66 405.5 411.66 406.33 411.66 407.83 411.66 408.65 411.66 409.31 411.66 412.49 411.66 413.31 411.66 414.81 411.66 415.64 411.66 417.14 411.66 417.97 411.66 417.99 411.66 419.22 411.66 420.1 411.66 420.22 411.66 421.05 411.66 424.68 411.66 426.24 411.66 426.77 411.66 427.88 411.66 427.89 411.66 427.89 400.35 427.88 400.35 426.77 400.35 426.77 270.04 426.77 267.74 426.77 264.95 426.77 263.05 426.77 260.26 426.77 258.35 426.77 255.56 426.77 253.66 426.77 250.87 426.77 248.96 426.77 246.17 426.77 244.26 426.77 241.47 426.77 239.57 426.77 236.78 426.77 235.21 426.77 235.12 426.77 234.87 426.77 232.08 426.77 230.18 426.77 227.39 426.77 225.48 426.77 222.69 426.77 220.78 426.77 218 426.77 216.09 426.77 213.92 426.77 213.3 426.77 212.52 427.57 212.52 427.57 211.69 426.77 211.69 427.63 209.67 427.63 209.67 427.94 208.95 428.47 208.95 428.47 208.12 427.79 208.12"/><path class="cls-4" d="M155.66,273h-4.28v-5.44h-1a2.65,2.65,0,0,0-2.59-2.69,1.75,1.75,0,0,0-.32,0v-1H146v-1h-3.06v-6.84H146v-1.68h1.5v-2.16H125.61v2.16h1.5v1.68h3.07V263h-3.07v1h-1.5v.94a2.6,2.6,0,0,0-2.31,1.5h-7.41v0a2.57,2.57,0,0,0-2.32-1.52,1.75,1.75,0,0,0-.32,0v-1h-1.5v-1h-3.06v-6.84h3.06v-1.68h1.5v-2.16H91.36v2.16h1.5v1.68h3.06V263H92.86v1h-1.5v.94a2.65,2.65,0,0,0-2.59,2.69h-1V273H83.18V430.39H78.43v36.2H94.56v-.38h22.56v.2h4.94v-.2h29.32v.2l1.89-.2H156V273ZM98,256.13h1.51V263H98Zm3.61,0h1.51V263h-1.51Zm3.61,0h1.35V263h-1.35Zm27,0h1.51V263h-1.51Zm3.61,0h1.51V263h-1.51Zm3.61,0h1.35V263h-1.35Z" transform="translate(-35.23 -54.13)"/><path class="cls-4" d="M594.73,444h-1.57V280.28h-.86v.9h-.52v-.87h-.26v-1h-.35v1h-.26v.87h-4.09v-.87h-.25v-1h-.36v1H586v.87h-.27V271.12h-1.85v-2.68h0l-11-20.86V247H569v-1.22h-.13v-2.17H569v-1.23h-.58v-.76H568v-2h-1.34v2h-.51v.76h-.53v1.23h.16v2.17h-.16V247h-3.53v.44l-11.14,21.07v2.66h-2v9.16h-.25v.9H544.4v-.9h-.26v-.94h-.35v.94h-.25v.9h-.93v-.9h-.87V283h-.26V444h-2.09v21.76h1v0h22v0H573v0h3.35v0h.86v0h3.48v0h.87v0H586v0h.87v0h4.09v0h.87v0h2.45v0h1V444ZM567.1,243.6h.45v2.13h-.45Z" transform="translate(-35.23 -54.13)"/><path class="cls-4" d="M332.72,390.87H331v-51.7h-1.88V266.6h-2.42v-2.24h-2.36v-.66h0v-.21h0v-.92h.38v-.89H317.1v-.9h0V260h0v-1.08h0v-.77h0v-1.07h0v-.77h0v-1.08h0v-.77h0v-1.08h0v-.77h0v-1.3h.43v-.89h-4.06v-.73h0v-.77h0v-1.08h0v-.77h0V246h0v-.77h0v-1.08h0v-.29h.26V243h-6.24v-.51h0v-1.08h0v-.77h0v-1.07h0v-.77h0V237.7h0v-.77h0v-1.08h0v-.77h0V234h0v-.77h0v-.31h.18V232h-11.9v.89H296v10h-6.24v.88H290v6.58h-4.11v.88h.45v.93h0v9.42H278.4v.89h.67v1.79h-2.33v2.24h-2.46v72.57h-1.87v51.7h-1.82v74.92h62.25V390.87ZM275.16,272.78h1.58v.85h-1.58Zm50.69.85h-1.48v-.7h0v-.15h1.48Zm-46.78-.7v.7h-1.45v-.85h1.45Zm46.78-1.59h-1.48v-.92h1.48Zm-46.78-.25v.25h-1.45v-.92h1.45Zm46.78-2.78h-1.48v-.15h0v-1.68h1.48Zm-46.78-1.83v1.83h-1.45v-1.83Zm-3.91,2.23h1.58v1.83h-1.58Z" transform="translate(-35.23 -54.13)"/><polygon class="cls-4" points="221.51 317.85 221.51 317.83 220.19 317.83 220.19 315.52 220.19 313.56 220.19 311.46 220.19 309.49 220.19 307.39 220.19 305.42 220.19 303.32 220.19 301.36 220.19 299.26 220.19 297.29 220.19 295.19 220.19 293.22 220.19 292.04 219.82 292.04 219.07 292.04 218.02 292.04 216.23 292.04 215.48 292.04 214.43 292.04 212.64 292.04 211.88 292.04 210.84 292.04 209.05 292.04 208.29 292.04 207.24 292.04 205.45 292.04 204.7 292.04 203.65 292.04 201.86 292.04 201.11 292.04 200.06 292.04 198.27 292.04 197.51 292.04 196.47 292.04 194.68 292.04 193.92 292.04 192.87 292.04 191.96 292.04 191.51 292.04 191.08 292.04 190.33 292.04 189.28 292.04 188.89 292.04 188.45 292.04 188.16 292.04 188.16 293.22 188.16 295.19 188.16 297.29 188.16 299.26 188.16 301.36 188.16 303.32 188.16 305.42 188.16 307.39 188.16 309.49 188.16 311.46 188.16 313.56 188.16 315.52 188.16 317.83 187.63 317.83 186.84 317.83 186.84 317.85 186.59 317.85 186.59 319.45 186.59 319.82 186.59 321.92 186.59 323.89 186.59 325.98 186.59 327.95 186.59 330.05 186.59 332.02 186.59 334.12 186.59 336.09 186.59 338.18 186.59 340.15 186.59 342.25 186.59 344.22 186.59 346.31 186.59 348.29 186.59 350.38 186.59 352.35 186.59 354.45 186.59 356.42 186.59 358.51 186.59 360.48 186.59 362.58 186.59 364.55 186.59 366.65 186.59 368.62 186.59 370.71 186.59 372.68 186.59 374.78 186.59 376.75 186.59 378.84 186.59 380.81 186.59 382.91 186.59 384.88 186.59 386.98 186.59 388.94 186.59 391.04 186.59 393.01 186.59 395.11 186.59 397.08 186.59 399.17 186.59 401.14 186.59 403.24 186.59 404.52 179.2 404.52 179.2 411.61 186.59 411.61 187.63 411.61 188.39 411.61 189.28 411.61 190.33 411.61 191.08 411.61 192.87 411.61 193.92 411.61 194.68 411.61 196.47 411.61 197.51 411.61 198.27 411.61 200.06 411.61 201.11 411.61 201.86 411.61 203.65 411.61 204.7 411.61 205.45 411.61 207.24 411.61 208.29 411.61 209.05 411.61 210.84 411.61 211.88 411.61 214.43 411.61 215.48 411.61 216.23 411.61 218.02 411.61 219.07 411.61 219.82 411.61 220.72 411.61 221.51 411.61 221.76 411.61 221.76 404.52 221.76 403.24 221.76 401.14 221.76 399.17 221.76 397.08 221.76 395.11 221.76 393.01 221.76 391.04 221.76 388.94 221.76 386.98 221.76 384.88 221.76 382.91 221.76 380.81 221.76 378.84 221.76 376.75 221.76 374.78 221.76 372.68 221.76 370.71 221.76 368.62 221.76 366.65 221.76 364.55 221.76 362.58 221.76 360.48 221.76 358.51 221.76 356.42 221.76 354.45 221.76 352.35 221.76 350.38 221.76 348.29 221.76 346.31 221.76 344.22 221.76 342.25 221.76 340.15 221.76 338.18 221.76 336.09 221.76 334.12 221.76 332.02 221.76 330.05 221.76 327.95 221.76 325.98 221.76 323.89 221.76 321.92 221.76 319.82 221.76 319.45 221.76 317.85 221.51 317.85"/><path class="cls-4" d="M382.38,337.14v-.07h-.09l-3.89-3.55v-.09h-.1l-.66-.6-2.43-2.2h0l-14.33-12.82-.14-.16h0l-3.46-3.1-.11-.13s-.55-.51-.82-.51h-.43a.51.51,0,0,0-.5.51c0,.06,0,.11.07.17V465.82h12.89v.06h5.33v-.06h10.42v.06h5.33v-.06h10.87V353.43ZM369,330.63l-4.77-7.49,6.57,7.49Zm-1.31,0h-1.8l-3-7.49Zm6.21,0h-1.79l-6.48-7.4Zm-14.51-13h0L356.73,323V315.3ZM356.73,325l3.1-6.26,4.72,11.89h-7.82Z" transform="translate(-35.23 -54.13)"/><polygon class="cls-4" points="481.2 390.39 481.2 390.37 481.21 390.37 481.21 338.49 482.65 338.49 482.65 336.39 481.21 336.39 481.21 324.18 481.2 324.18 479.84 324.18 479.74 324.18 479.74 261.64 478.71 261.64 477.83 261.64 477.37 261.64 477.37 261.64 476.59 261.64 476.59 227.38 476.59 221.97 476.39 221.97 475.66 221.97 472.48 218.15 472.47 218.15 458.18 201.07 440.7 221.97 439.94 221.97 439.94 227.38 439.94 261.64 439.26 261.64 438.91 261.64 438.7 261.64 437.87 261.64 436.79 261.64 436.79 324.18 436.7 324.18 435.34 324.18 435.34 336.39 434.01 336.39 434.01 338.49 435.34 338.49 435.34 340.58 435.34 341.83 435.34 343.38 435.34 345.22 435.34 346.77 435.34 348.61 435.34 350.15 435.34 351.99 435.34 353.55 435.34 355.38 435.34 356.94 435.34 358.77 435.34 360.32 435.34 362.16 435.34 363.71 435.34 365.55 435.34 367.1 435.34 368.93 435.34 370.49 435.34 372.32 435.34 373.88 435.34 375.71 435.34 377.26 435.34 379.1 435.34 380.65 435.34 382.49 435.34 384.04 435.34 385.88 435.34 387.43 435.34 389.26 435.34 390.39 432.56 390.39 432.56 405.26 432.56 406.7 432.56 407.48 432.56 411.29 436.7 411.29 436.79 411.29 436.79 411.85 452.91 411.85 454.62 411.85 455.24 411.85 457.61 411.85 458.23 411.85 460.59 411.85 461.22 411.85 462.95 411.85 479.74 411.85 479.74 411.29 483.52 411.29 483.52 407.48 483.52 406.7 483.52 405.26 483.52 390.39 481.2 390.39"/><path class="cls-3" d="M414.69,465.46a25.46,25.46,0,0,0-50.86,0Z" transform="translate(-35.23 -54.13)"/><polygon class="cls-4" points="612.73 241.68 612.73 239.85 570.11 239.85 570.11 241.68 563.9 241.68 563.9 411.62 570.11 411.62 571.49 411.62 611.64 411.62 612.73 411.62 612.73 411.83 619.23 411.83 619.23 411.62 619.23 250.23 619.23 241.68 612.73 241.68"/><polygon class="cls-5" points="162.47 307.42 162.11 307.42 112.43 307.42 111.43 307.42 111.15 307.42 111.15 309.87 111.15 310.56 111.15 312.21 111.15 312.89 111.15 314.55 111.15 315.24 111.15 316.89 111.15 317.58 111.15 319.23 111.15 319.92 111.15 321.57 111.15 322.25 111.15 323.91 111.15 324.59 111.15 326.25 111.15 326.93 111.15 327.71 111.15 328.59 111.15 329.27 111.15 330.93 111.15 331.61 111.15 333.27 111.15 333.95 111.15 335.61 111.15 336.29 111.15 337.95 111.15 338.63 111.15 340.29 111.15 340.97 111.15 342.63 111.15 343.31 111.15 344.97 111.15 345.65 111.15 347.31 111.15 347.99 111.15 349.65 111.15 350.33 111.15 351.99 111.15 352.67 111.15 354.33 111.15 355.01 111.15 356.67 111.15 357.35 111.15 359 111.15 359.69 111.15 361.35 111.15 362.03 111.15 363.69 111.15 364.37 111.15 366.03 111.15 366.71 111.15 368.37 111.15 369.05 111.15 370.7 111.15 371.39 111.15 373.04 111.15 373.73 111.15 375.38 111.15 376.07 111.15 377.72 111.15 378.41 111.15 380.06 111.15 380.75 111.15 382.4 111.15 383.08 111.15 384.74 111.15 385.43 111.15 387.08 111.15 387.77 111.15 389.42 111.15 390.11 111.15 391.76 111.15 392.44 111.15 394.1 111.15 394.78 111.15 396.44 111.15 397.12 111.15 398.78 111.15 399.46 111.15 401.12 111.15 401.8 111.15 403.46 111.15 404.14 111.15 405.8 111.15 406.48 111.15 408.14 111.15 408.82 111.15 410.48 111.15 411.16 111.15 412.82 111.15 413.5 111.15 413.6 112.29 413.6 112.29 413.61 112.93 413.61 112.93 413.6 114.48 413.6 114.48 413.61 115.12 413.61 115.12 413.6 116.67 413.6 116.67 413.61 117.31 413.61 117.31 413.6 118.85 413.6 118.85 413.61 119.49 413.61 119.49 413.6 121.04 413.6 121.04 413.61 121.68 413.61 121.68 413.6 123.23 413.6 123.23 413.61 123.87 413.61 123.87 413.6 125.42 413.6 125.42 413.61 126.06 413.61 126.06 413.6 127.61 413.6 127.61 413.61 128.25 413.61 128.25 413.6 129.79 413.6 129.79 413.61 130.43 413.61 130.43 413.6 131.98 413.6 131.98 413.61 132.62 413.61 132.62 413.6 134.17 413.6 134.17 413.61 134.81 413.61 134.81 413.6 136.36 413.6 136.36 413.61 137 413.61 137 413.6 137.13 413.6 138.54 413.6 138.54 413.61 139.18 413.61 139.18 413.6 140.73 413.6 140.73 413.61 141.37 413.61 141.37 413.6 142.92 413.6 142.92 413.61 143.56 413.61 143.56 413.6 145.11 413.6 145.11 413.61 145.75 413.61 145.75 413.6 147.3 413.6 147.3 413.61 147.93 413.61 147.93 413.6 149.48 413.6 149.48 413.61 150.12 413.61 150.12 413.6 151.67 413.6 151.67 413.61 152.31 413.61 152.31 413.6 153.86 413.6 153.86 413.61 154.5 413.61 154.5 413.6 156.05 413.6 156.05 413.61 156.69 413.61 156.69 413.6 158.24 413.6 158.24 413.61 158.87 413.61 158.87 413.6 160.42 413.6 160.42 413.61 161.06 413.61 161.06 413.6 162.47 413.6 162.47 413.61 163.11 413.61 163.11 413.6 163.11 413.5 163.11 412.82 163.11 411.16 163.11 410.48 163.11 408.82 163.11 408.14 163.11 406.48 163.11 405.8 163.11 404.14 163.11 403.46 163.11 401.8 163.11 401.12 163.11 399.46 163.11 398.78 163.11 397.12 163.11 396.44 163.11 394.78 163.11 394.1 163.11 392.44 163.11 391.76 163.11 390.11 163.11 389.42 163.11 387.77 163.11 387.08 163.11 385.43 163.11 384.74 163.11 383.08 163.11 382.4 163.11 380.75 163.11 380.06 163.11 378.41 163.11 377.72 163.11 376.07 163.11 375.38 163.11 373.73 163.11 373.04 163.11 371.39 163.11 370.7 163.11 369.05 163.11 368.37 163.11 366.71 163.11 366.03 163.11 364.37 163.11 363.69 163.11 362.03 163.11 361.35 163.11 359.69 163.11 359 163.11 357.35 163.11 356.67 163.11 355.01 163.11 354.33 163.11 352.67 163.11 351.99 163.11 350.33 163.11 349.65 163.11 347.99 163.11 347.31 163.11 345.65 163.11 344.97 163.11 343.31 163.11 342.63 163.11 340.97 163.11 340.29 163.11 338.63 163.11 337.95 163.11 336.29 163.11 335.61 163.11 333.95 163.11 333.27 163.11 331.61 163.11 330.93 163.11 329.27 163.11 328.59 163.11 327.71 163.11 326.93 163.11 326.25 163.11 324.59 163.11 323.91 163.11 322.25 163.11 321.57 163.11 319.92 163.11 319.23 163.11 317.58 163.11 316.89 163.11 315.24 163.11 314.55 163.11 312.89 163.11 312.21 163.11 310.56 163.11 309.87 163.11 307.42 162.47 307.42"/><polygon class="cls-5" points="57.95 298.56 57.59 298.56 57.52 298.56 57.52 297.81 50.77 297.81 50.77 293.78 25.58 293.78 25.58 297.81 18.75 297.81 18.75 298.56 18.25 298.56 18.22 298.56 18.22 413.14 18.25 413.14 18.75 413.14 19.91 413.14 19.91 413.2 20.26 413.2 20.26 413.14 20.57 413.14 21.11 413.14 21.79 413.14 21.79 413.2 22.15 413.2 22.15 413.14 22.45 413.14 22.99 413.14 23.68 413.14 23.68 413.2 24.03 413.2 24.03 413.14 24.34 413.14 24.87 413.14 25.56 413.14 25.56 413.2 25.91 413.2 25.91 413.14 26.22 413.14 26.76 413.14 27.45 413.14 27.45 413.2 27.8 413.2 27.8 413.14 28.11 413.14 28.64 413.14 29.33 413.14 29.33 413.2 29.68 413.2 29.68 413.14 29.99 413.14 30.52 413.14 31.21 413.14 31.21 413.2 31.57 413.2 31.57 413.14 31.95 413.14 31.95 413.2 32.3 413.2 32.3 413.14 33.1 413.14 33.1 413.2 33.45 413.2 33.45 413.14 33.84 413.14 33.84 413.2 34.19 413.2 34.19 413.14 34.98 413.14 34.98 413.2 35.34 413.2 35.34 413.14 35.72 413.14 35.72 413.2 36.07 413.2 36.07 413.14 36.87 413.14 36.87 413.2 37.22 413.2 37.22 413.14 37.6 413.14 37.6 413.2 37.96 413.2 37.96 413.14 38.75 413.14 38.75 413.2 39.1 413.2 39.1 413.14 39.49 413.14 39.49 413.2 39.84 413.2 39.84 413.14 40.64 413.14 40.64 413.2 40.99 413.2 40.99 413.14 41.37 413.14 41.37 413.2 41.73 413.2 41.73 413.14 42.52 413.14 42.52 413.2 42.87 413.2 42.87 413.14 43.26 413.14 43.26 413.2 43.61 413.2 43.61 413.14 44.4 413.14 44.4 413.2 44.76 413.2 44.76 413.14 45.14 413.14 45.14 413.2 45.49 413.2 45.49 413.14 45.68 413.14 46.22 413.14 46.29 413.14 46.29 413.2 46.64 413.2 46.64 413.14 47.57 413.14 48.1 413.14 48.17 413.14 48.17 413.2 48.53 413.2 48.53 413.14 49.45 413.14 49.98 413.14 50.06 413.14 50.06 413.2 50.41 413.2 50.41 413.14 51.33 413.14 51.87 413.14 51.94 413.14 51.94 413.2 52.29 413.2 52.29 413.14 53.22 413.14 53.75 413.14 53.83 413.14 53.83 413.2 54.18 413.2 54.18 413.14 55.1 413.14 55.64 413.14 55.71 413.14 55.71 413.2 56.06 413.2 56.06 413.14 56.87 413.14 56.87 413.2 57.4 413.2 57.4 413.14 57.52 413.14 57.59 413.14 57.59 413.2 57.95 413.2 57.95 413.14 58.1 413.14 58.1 412.52 58.1 411.95 58.1 410.24 58.1 409.68 58.1 407.97 58.1 407.4 58.1 405.69 58.1 405.12 58.1 403.42 58.1 402.85 58.1 401.14 58.1 400.57 58.1 398.86 58.1 398.29 58.1 396.59 58.1 396.02 58.1 394.31 58.1 393.74 58.1 392.03 58.1 391.47 58.1 389.76 58.1 389.19 58.1 387.48 58.1 386.91 58.1 385.2 58.1 384.64 58.1 382.93 58.1 382.36 58.1 380.65 58.1 380.08 58.1 378.37 58.1 377.81 58.1 376.1 58.1 375.53 58.1 373.82 58.1 373.26 58.1 371.55 58.1 370.98 58.1 369.27 58.1 368.7 58.1 366.99 58.1 366.43 58.1 364.72 58.1 364.15 58.1 362.44 58.1 361.87 58.1 360.17 58.1 359.6 58.1 357.89 58.1 357.32 58.1 355.62 58.1 355.05 58.1 353.33 58.1 352.77 58.1 351.06 58.1 350.49 58.1 348.79 58.1 348.21 58.1 346.51 58.1 345.94 58.1 344.23 58.1 343.66 58.1 341.95 58.1 341.39 58.1 339.68 58.1 339.11 58.1 337.4 58.1 336.83 58.1 335.13 58.1 334.56 58.1 332.85 58.1 332.28 58.1 330.57 58.1 330.01 58.1 328.3 58.1 327.73 58.1 326.02 58.1 325.45 58.1 323.75 58.1 323.18 58.1 321.47 58.1 320.9 58.1 319.19 58.1 318.62 58.1 316.92 58.1 316.35 58.1 314.64 58.1 314.07 58.1 312.36 58.1 311.79 58.1 310.08 58.1 309.52 58.1 307.81 58.1 307.24 58.1 305.53 58.1 304.97 58.1 303.26 58.1 302.69 58.1 300.98 58.1 300.41 58.1 299.72 58.1 298.56 57.95 298.56"/><path class="cls-5" d="M330.19,438.54h-.37l-9.32-4.44h0L314.36,437v-2.89h.34v-1h-.34v-1H297.87v1h-.34v1h.34v2.95h-2.39l-.92-.58h.12v-4.74h-.27v-2H291.9v-2.7h.76v-2.25h-1v-.18h-.45v-8.28h.45v-1.1h.19V414.2H292v-1h.25v-1h.2v-.56h-1v-.31h-1.35l.52-.84h-1v-.32h-.33v-3.59h.33v-1.1h-.85v-.34H289V405h-.29c-.24-3.37-2.28-6.67-5-9.09l-1.78-1.61h0l-.12-.11-.38-.34h.26v-1H281v-.18h-.19v-.36h-.21v-.82h.21v-.4h-1.16v-2.54h.21v-.32h.38v-.39h-.15a3.1,3.1,0,0,0-1.35-2.54h0v-.38h.08v-.45h-.21v-.29h-.9V383a.42.42,0,0,0-.19-.35.29.29,0,0,0,.07-.18v-.3a.26.26,0,1,0-.51,0v.3a.26.26,0,0,0,.07.17.41.41,0,0,0-.22.36v1.24h-.87v.29h-.26v.45h.1v.38h0a3.1,3.1,0,0,0-1.35,2.54h-.26v.39h.41v.32H275v2.54h-1.17v.4H274v.82h-.21v.36h-.18v.18h-.73v1h.34l-.45.4-.05.05h0L271,395.9c-2.68,2.42-4.71,5.72-5,9.09h-.29v.22H266v.34h-1v1.1h.44v3.59H265v.32h-.92l.53.84h-1.36v.31h-1v.56h.19v1h.26v1h.12v1.05H263v1.1h.44v8.29H263v.17h-.46v1.48h-.16v.77H263v2.7h-2.46v2H260v4.74h.09l-.92.58h-2.34v-2h0v-1h.35v-1h-.35v-1H240.34v1H240v1h.34V437l-6.1-2.92h0L225,438.54h-.36v1.62H225v.66h1.19v16.25h-.57v1h.57v9.82H328.56V458h.6v-1h-.6V440.82h1.2v-.66h.43Zm-52.56,2.3h0Zm14.92,0h0Zm23.38,0Zm-23.52-14.53h-.25v-1h.25Zm-.5-1v1h-.22v-1Zm-11.7-33.78v.82h-.59v-.82Zm-5.83,0h.6v.82h-.6Zm-11.61,34.78v-1H263v1Zm-28.54,14.53h0Z" transform="translate(-35.23 -54.13)"/><polygon class="cls-5" points="343.91 378.82 343.08 378.82 343.08 378.24 341.8 378.24 341.8 378.82 336.72 378.82 335.63 378.82 335.63 378.24 334.35 378.24 334.35 378.82 333.52 378.82 333.52 396.64 323.32 393.95 323.32 393.88 323.33 393.88 323.33 393.1 323.44 393.1 323.44 392.33 316.27 392.33 316.27 393.1 316.39 393.1 316.39 393.88 316.39 393.96 309.26 396.25 309.26 388.24 309.26 388.24 308.93 388.24 308.93 387.43 308.92 387.43 308.24 387.43 307.56 387.43 307.56 388.24 307.22 388.24 307.22 396.91 305.34 397.52 305.34 398.34 305.69 398.23 305.69 399.46 303.57 406.45 303.57 413.2 305.69 413.2 305.69 413.16 306.15 413.16 306.15 413.18 306.59 413.18 306.59 413.2 307.86 413.2 309.53 413.2 309.53 413.16 312.24 413.16 312.24 413.2 313.52 413.2 315.19 413.2 315.19 413.16 315.53 413.16 315.53 413.18 316.6 413.18 316.6 413.2 322.79 413.2 322.79 413.18 323.86 413.18 323.86 413.16 326.26 413.16 326.26 413.2 327.54 413.2 329.21 413.2 329.21 413.16 331.93 413.16 331.93 413.2 333.2 413.2 333.2 413.2 333.52 413.2 334.01 413.2 334.03 413.2 334.35 413.2 335.63 413.2 336.13 413.2 336.72 413.2 341.8 413.2 343.08 413.2 343.91 413.2 343.91 413.2 343.91 404.85 343.91 378.82 343.91 378.82"/><polygon class="cls-5" points="444.92 406.41 444.92 379.69 444.94 379.69 444.94 378.07 445.44 378.07 445.44 376.45 444.92 376.45 444.92 371.15 425.68 371.15 425.68 365.3 388.77 365.3 388.69 365.3 367.43 365.3 367.43 371.15 359.99 371.15 359.99 376.45 359.21 376.45 359.21 378.07 359.99 378.07 359.99 379.69 359.99 406.41 359.21 406.41 359.21 412.3 388.69 412.3 388.77 412.3 389.47 412.3 419.67 412.3 445.88 412.3 445.88 406.41 444.92 406.41"/><polygon class="cls-5" points="519.98 396.86 519.98 362.54 519.98 361.45 519.98 355.69 515.53 355.69 515.53 344.98 511.78 344.98 511.78 331.81 511.78 330.75 512.17 330.75 512.17 329.31 511.78 329.31 511.78 328.5 508.02 328.5 497.86 323.15 487.7 328.5 483.94 328.5 483.94 329.31 483.56 329.31 483.56 330.75 483.94 330.75 483.94 331.81 483.94 344.98 480.19 344.98 480.19 355.42 475.75 355.42 475.75 361.45 475.75 362.54 475.75 396.86 458.7 396.86 458.7 412.3 485.84 412.3 486.44 412.3 487.98 412.3 488.02 412.3 488.81 412.3 492.54 412.3 492.55 412.3 492.91 412.3 494.11 412.3 494.42 412.3 494.44 412.3 494.9 412.3 501.24 412.3 501.41 412.3 502.81 412.3 503.6 412.3 507.32 412.3 507.38 412.3 507.7 412.3 508.9 412.3 509.69 412.3 510 412.3 537.02 412.3 537.02 409.3 537.02 406.54 537.02 404.07 537.02 401.32 537.02 396.86 519.98 396.86"/><rect class="cls-5" x="588.74" y="297.99" width="60.36" height="113.93"/><rect class="cls-6" x="591.2" y="297.99" width="0.79" height="113.93"/><rect class="cls-7" x="591.99" y="297.99" width="0.79" height="113.93"/><rect class="cls-6" x="595.54" y="297.99" width="0.79" height="113.93"/><rect class="cls-7" x="596.34" y="297.99" width="0.79" height="113.93"/><rect class="cls-6" x="603.51" y="297.99" width="0.79" height="113.93"/><rect class="cls-7" x="604.31" y="297.99" width="0.79" height="113.93"/><rect class="cls-6" x="611.83" y="297.99" width="0.79" height="113.93"/><rect class="cls-7" x="612.62" y="297.99" width="0.79" height="113.93"/><rect class="cls-6" x="619.53" y="297.99" width="0.79" height="113.93"/><rect class="cls-7" x="620.32" y="297.99" width="0.79" height="113.93"/><rect class="cls-6" x="627.23" y="297.99" width="0.79" height="113.93"/><rect class="cls-7" x="628.02" y="297.99" width="0.79" height="113.93"/><rect class="cls-6" x="634.93" y="297.99" width="0.79" height="113.93"/><rect class="cls-7" x="635.73" y="297.99" width="0.79" height="113.93"/><rect class="cls-6" x="641.75" y="297.99" width="0.79" height="113.93"/><rect class="cls-7" x="642.54" y="297.99" width="0.79" height="113.93"/><rect class="cls-6" x="588.81" y="302.04" width="60.28" height="1.28"/><rect class="cls-7" x="588.81" y="303.32" width="60.28" height="1.28"/><rect class="cls-6" x="588.81" y="313.98" width="60.28" height="1.28"/><rect class="cls-7" x="588.81" y="315.25" width="60.28" height="1.28"/><rect class="cls-6" x="588.81" y="325.91" width="60.28" height="1.28"/><rect class="cls-7" x="588.81" y="327.19" width="60.28" height="1.28"/><rect class="cls-6" x="588.81" y="337.85" width="60.28" height="1.28"/><rect class="cls-7" x="588.81" y="339.13" width="60.28" height="1.28"/><rect class="cls-6" x="588.81" y="349.79" width="60.28" height="1.28"/><rect class="cls-7" x="588.81" y="351.06" width="60.28" height="1.28"/><rect class="cls-6" x="588.81" y="361.72" width="60.28" height="1.28"/><rect class="cls-7" x="588.81" y="363" width="60.28" height="1.28"/><rect class="cls-6" x="588.81" y="373.66" width="60.28" height="1.28"/><rect class="cls-7" x="588.81" y="374.93" width="60.28" height="1.28"/><rect class="cls-6" x="588.81" y="387.3" width="60.28" height="1.28"/><rect class="cls-7" x="588.81" y="388.58" width="60.28" height="1.28"/><rect class="cls-6" x="588.81" y="400.94" width="60.28" height="1.28"/><rect class="cls-7" x="588.81" y="402.22" width="60.28" height="1.28"/><rect class="cls-6" x="599.63" y="297.99" width="0.79" height="113.93"/><rect class="cls-7" x="600.43" y="297.99" width="0.79" height="113.93"/><rect class="cls-6" x="608.06" y="297.99" width="0.79" height="113.93"/><rect class="cls-7" x="608.85" y="297.99" width="0.79" height="113.93"/><rect class="cls-6" x="615.64" y="297.99" width="0.79" height="113.93"/><rect class="cls-7" x="616.43" y="297.99" width="0.79" height="113.93"/><rect class="cls-6" x="623.14" y="297.99" width="0.79" height="113.93"/><rect class="cls-7" x="623.93" y="297.99" width="0.79" height="113.93"/><rect class="cls-6" x="630.84" y="297.99" width="0.79" height="113.93"/><rect class="cls-7" x="631.63" y="297.99" width="0.79" height="113.93"/><rect class="cls-6" x="638.54" y="297.99" width="0.79" height="113.93"/><rect class="cls-7" x="639.34" y="297.99" width="0.79" height="113.93"/><rect class="cls-6" x="644.96" y="297.99" width="0.79" height="113.93"/><rect class="cls-7" x="645.75" y="297.99" width="0.79" height="113.93"/><polygon class="cls-5" points="618.96 328.17 588.74 300.51 588.74 297.99 618.96 325.64 618.96 328.17"/><polygon class="cls-5" points="618.96 328.17 649.17 300.51 649.17 297.99 618.96 325.64 618.96 328.17"/><rect class="cls-5" x="593.65" y="297.99" width="0.96" height="6.65"/><rect class="cls-5" x="598.1" y="297.99" width="0.96" height="10.38"/><rect class="cls-5" x="601.76" y="297.99" width="0.96" height="13.43"/><rect class="cls-5" x="606.17" y="297.99" width="0.96" height="17.91"/><rect class="cls-5" x="610.1" y="297.99" width="0.96" height="21.48"/><rect class="cls-5" x="614.03" y="297.99" width="0.96" height="24.71"/><rect class="cls-5" x="617.99" y="297.99" width="0.96" height="27.66"/><rect class="cls-5" x="621.6" y="297.99" width="0.96" height="25.9"/><rect class="cls-5" x="625.57" y="297.99" width="0.96" height="22.39"/><rect class="cls-5" x="629.3" y="297.99" width="0.96" height="19.34"/><rect class="cls-5" x="633.31" y="297.99" width="0.96" height="15.56"/><rect class="cls-5" x="636.92" y="297.99" width="0.96" height="12.36"/><rect class="cls-5" x="640.41" y="297.99" width="0.96" height="9.67"/><rect class="cls-5" x="643.62" y="297.99" width="0.96" height="6.18"/><rect class="cls-5" x="647.19" y="297.99" width="0.96" height="3.09"/><rect class="cls-5" x="589.68" y="297.99" width="0.96" height="3.09"/><path class="cls-4" d="M756.72,459.13V430.4h-.16v-11H736.33v-4.85H724.55v4.85h-3.73V404.78H721v-3.73h.24v-1.27h-.43v-.38h0l-.16-.35-1-2.16h0l-.18-.38h0l-.65-1.37V395h0v-.65h0v-2.1h0v0h0v-2.09h0V388h0v-4.15h0v-1.06h0l-.57-.44h0l0,0,0,0v-1.78h0v-1.67H718V377.2h-.22v1.69h-.18v1.67h0v1.78l0,0,0,0h0l-.56.45h0v1.06h0V388h0v2.1h0v2.11h0V395h0v.1l-.67,1.39h0l-.18.36h0l-.29.61h0l-.92,1.92v.36h-.67v1.27h.24v3.73h.18v14.66h-6.59v11H708v28.73h-.45v7.09h49.65v-7.09Zm-39.4-66.88v-.39l.26.21v.18h0v.2h-.26v-.2Zm0-4.23v-.38l.26.2V388h0v.2h-.26V388Zm1.21,4.21v.22h-.32v-.2h0v-.18l.32-.25v.41ZM717.32,386v-.39l.26.2V386h0v.12h-.26V386Zm0-2.12v-.39l.29.23v.16h0v.21h-.26v-.21Zm1.21,2.1v.14h-.32V386h0v-.18l.32-.26V386Zm0,7.73h-.32V393l.12-.1.2.16Zm-1.82,2.76.22-.14h.65v.87l-.32-.25h0l-.57-.44Zm2.42,0v0l-.59.45h.21l.43-.34.18.38.25.55h-1.41v-.2l.55-.39h-.21l-.34.24v-.86h.69Zm-3.82,3,0-.07.62-.45.21.52Zm.79-1.67.67.43-.7.5,0-.91Zm1.24-2.63h.09v.09l-.09-.07Zm.18,0h.06v.22l-.07-.07Zm.69,4.3v-.12l.15-.11-.09.23Zm-.72,0-.08-.23.17.13v.1Zm-.42-1,.51.32v.53l-.23-.16Zm.08.54-.61-.42.34-.25Zm1.06-1.12.55.39-.55.35Zm0,1.41v-.53l.48-.3-.28.68Zm.67-.94.33.23-.6.43Zm.09-.08.7-.44,0,.94Zm.86.5,0-.77.28.61Zm.31-.06.25.56-.53-.38Zm-1.27-.51-.66-.46v-.05h1.45Zm-1.29-2.62v.23l-.12.08,0-.39Zm0,.4v.31h-.48Zm0,2.66-.58-.37v0l.59-.42Zm-1.65.13-.21-.14.23-.48Zm0,.12-.45.32.22-.47Zm.19,0,.38-.28.73.51.15.37h-1Zm1.49.71v.25h-1.11l-.1-.25Zm.63,0h1.18l-.1.25h-1.08Zm.2-.11.15-.37.72-.5.39.28-.24.59Zm1.38-.51.7.49v0h-.92Zm-1.58-2.72v-.33l.52.33Zm0-.5v-.19l.12-.1,0,.39Zm-.63-.68h-.26v-.07l.26-.21Zm-.17.35,0,.51-.53.34h0l.45-1Zm-.35,1.57.52.41v.16h-1.36l.42-.9Zm.51.68-.69.5-.73-.47v0Zm-2.25,1.92h.91l.1.25h-.64l-.37-.24Zm4.11.25.1-.25h.9l-.35.24Zm-.44-3.59-.53-.34,0-.52.14-.11.45,1Zm-.51-1.07-.08.07v-.07Zm-.17,0v.14l-.11.09v-.23Zm-1-1.31h.26V394l-.26-.2Zm0-3.36h.26v.11l-.07.06-.19-.14Zm0-.86h.26v.21l-.26-.2Zm0-3.37h.26v.12l-.07.06-.19-.15Zm0-.78h.26v.21l-.26-.21Zm0-1.25h.26v.11l-.07.06-.19-.14Zm0-.87h.29v.23l-.29-.22Zm1.21,4h-.32v-.71l.12-.1.2.16Zm-.32-.9,0,0h0Zm.21,0,.11-.08v.16Zm.11-.24-.21.16-.11-.1v-.08h.32Zm-.32-.8h.27l-.27.21Zm0-1,0,0,0,0Zm0,6.26,0,0h0Zm0-2.1h0l0,0Zm0,4.22,0,0h0Zm.21,0,.11-.08v.16Zm.11-.24-.21.16-.11-.09v-.09h.32Zm-.32-.89h.29l-.29.22Zm.32-.11h-.32v-.71l.12-.09.2.16Zm-.11-.88.11-.08v.16Zm.11-.24-.21.16-.11-.09v-.08h.32Zm-.32-.87h.31l-.31.25Zm.32-.11h-.32v-.71l.12-.1.2.16Zm-.11-.89.11-.08v.17Zm.11-.23-.21.16-.11-.1v-.08h.32Zm-.32-.89h.29l-.29.23Zm.32-2.14h-.32v-.72l.12-.09.2.16Zm-.11-.89.11-.08v.16Zm.11-.24-.21.16-.11-.09v-.08h.32Zm-.33-.88h.3l-.3.22Zm0-.11V383l.25.2Zm-.59,0h-.29l.29-.22Zm-.2,1.23-.09.07v-.14Zm.1.08.07.05v.76h-.26v-.67Zm-.1,2-.09.06v-.13Zm.1.07.07.06v.75h-.26v-.66Zm-.19.92h.26v.22l-.26-.21Zm.26,1-.07.06-.19-.15v0h.26Zm-.17.13-.09.07v-.13Zm.1.08.07.06v.75h-.26v-.66Zm-.19,1.08.26.21v.18h0v.2h-.26v-.59Zm.09.95-.09.07v-.14Zm.1.08.07.06v.74h-.26v-.66Zm-.19.91h.26v.22l-.26-.21Zm.26,1-.07.06-.19-.15v0h.26Zm-.17.14-.09.06v-.13Zm.1.07.07.06v.75h-.26V393Zm-.19,1.09.26.2v.37l-.26.2V394Zm-2,5.7.15.1h-.15Zm5,.1.14-.1v.1ZM718.53,395h-.32v-.28l.32.25Zm-.32-1.2h.31l-.31.25Zm.32-3.47h-.32v-.2h0V390l.32-.25v.6Zm0-2.11h-.32V388h0v-.17l.32-.25V388h0Zm-.32-4.15v-.21h0v-.17l.34-.26v.41h0v.23Zm.33-1-.29-.22h.29Zm-1.22-.07v-.15h.19Zm1.34,11.31h-.13v.44l-.32-.25v-.34l.32-.25v.39h.13Zm-.11-11.57h-.35v-.27Zm-.57-.44h0Zm-.15-3.36H718v.07h-.15Zm0,.22H718v.07h-.15Zm0,.22H718v.08h-.15Zm0,.23H718v.07h-.15Zm0,.23H718V380h-.15Zm0,.22H718v.07h-.15Zm0,.23H718v.07h-.15Zm0,.23H718v.06h-.15Zm0,.22H718v.07h-.15Zm0,.22H718v.07h-.15Zm0,.23H718v.07h-.15Zm0,.22H718v.08h-.15Zm0,.23H718v.07h-.15Zm0,.22H718V382h-.15Zm.15.23v.07h-.15v-.07Zm-.37.65h-.34l.34-.27Z" transform="translate(-35.23 -54.13)"/><path class="cls-3" d="M208.6,465.53a26.79,26.79,0,0,0-53.53,0Z" transform="translate(-35.23 -54.13)"/><path class="cls-3" d="M120.26,465.37a26.79,26.79,0,0,0-53.53,0Z" transform="translate(-35.23 -54.13)"/><path class="cls-2" d="M98.25,460.16A7.13,7.13,0,1,1,91.12,453,7.13,7.13,0,0,1,98.25,460.16Z" transform="translate(-35.23 -54.13)"/><path class="cls-2" d="M201.26,461.28a4.88,4.88,0,1,1-4.88-4.87A4.88,4.88,0,0,1,201.26,461.28Z" transform="translate(-35.23 -54.13)"/><path class="cls-2" d="M83.22,456.82a11.74,11.74,0,1,1-11.74-11.74A11.74,11.74,0,0,1,83.22,456.82Z" transform="translate(-35.23 -54.13)"/><path class="cls-1" d="M66.79,461.43a7.14,7.14,0,1,1-7.14-7.13A7.14,7.14,0,0,1,66.79,461.43Z" transform="translate(-35.23 -54.13)"/><path class="cls-2" d="M389.26,464.88a11.39,11.39,0,0,0-22.76,0Z" transform="translate(-35.23 -54.13)"/><path class="cls-2" d="M330.13,465.59a11.39,11.39,0,0,0-22.76,0Z" transform="translate(-35.23 -54.13)"/><path class="cls-3" d="M606.4,465.37a20.26,20.26,0,0,0-40.48,0Z" transform="translate(-35.23 -54.13)"/><path class="cls-2" d="M230.25,465.59a11.39,11.39,0,0,0-22.76,0Z" transform="translate(-35.23 -54.13)"/><path class="cls-2" d="M608.71,460.16a4.93,4.93,0,0,0-3.44,1.39,4.94,4.94,0,0,0-6.83,0,4.95,4.95,0,0,0-8.34,3.36h23.55A5,5,0,0,0,608.71,460.16Z" transform="translate(-35.23 -54.13)"/><path class="cls-1" d="M623.64,461.72a3.54,3.54,0,0,1-4.93,0,3.52,3.52,0,0,0-2.43,1,3.55,3.55,0,0,0-6,2.41h16.9A3.55,3.55,0,0,0,623.64,461.72Z" transform="translate(-35.23 -54.13)"/><path class="cls-1" d="M589.12,461.49a3.54,3.54,0,0,1-4.93,0,3.54,3.54,0,0,1-4.87,0,3.55,3.55,0,0,0-3.55,3.38h16.9A3.56,3.56,0,0,0,589.12,461.49Z" transform="translate(-35.23 -54.13)"/><path class="cls-1" d="M486.58,461.41a3.51,3.51,0,0,0-2.46,1,3.54,3.54,0,0,0-4.9,0,3.55,3.55,0,0,0-6,2.41h16.91A3.57,3.57,0,0,0,486.58,461.41Z" transform="translate(-35.23 -54.13)"/><path class="cls-2" d="M400.26,459.29a7.13,7.13,0,1,1-7.14-7.13A7.13,7.13,0,0,1,400.26,459.29Z" transform="translate(-35.23 -54.13)"/><path class="cls-3" d="M397.07,460.08a4.92,4.92,0,0,0-3.43,1.39,4.94,4.94,0,0,0-6.83,0,4.95,4.95,0,0,0-8.34,3.36H402A5,5,0,0,0,397.07,460.08Z" transform="translate(-35.23 -54.13)"/><path class="cls-3" d="M372.34,460.16a4.93,4.93,0,0,0-3.44,1.39,4.94,4.94,0,0,0-6.83,0,4.95,4.95,0,0,0-8.34,3.37h23.55A5,5,0,0,0,372.34,460.16Z" transform="translate(-35.23 -54.13)"/><path class="cls-1" d="M407.13,461.41a3.55,3.55,0,0,0-2.47,1,3.53,3.53,0,0,0-4.89,0,3.55,3.55,0,0,0-6,2.41h16.9A3.55,3.55,0,0,0,407.13,461.41Z" transform="translate(-35.23 -54.13)"/><path class="cls-1" d="M363.31,461.41a3.51,3.51,0,0,0-2.46,1,3.54,3.54,0,0,0-4.9,0,3.55,3.55,0,0,0-6,2.41h16.9A3.55,3.55,0,0,0,363.31,461.41Z" transform="translate(-35.23 -54.13)"/><path class="cls-1" d="M211.81,461.59a3.54,3.54,0,0,0-2.47,1,3.54,3.54,0,0,0-4.9,0,3.55,3.55,0,0,0-6,2.42h16.9A3.57,3.57,0,0,0,211.81,461.59Z" transform="translate(-35.23 -54.13)"/><path class="cls-3" d="M725.44,466.1a12.47,12.47,0,0,0-24.92,0Z" transform="translate(-35.23 -54.13)"/><path class="cls-3" d="M762.66,466.1a12.47,12.47,0,0,0-24.91,0Z" transform="translate(-35.23 -54.13)"/><path class="cls-2" d="M704.61,460.16a5.48,5.48,0,0,0-3.83,1.55,5.5,5.5,0,0,0-7.6,0,5.52,5.52,0,0,0-9.29,3.75h26.23A5.52,5.52,0,0,0,704.61,460.16Z" transform="translate(-35.23 -54.13)"/><path class="cls-1" d="M691.12,461.59a3.58,3.58,0,0,1-4.94,0,3.56,3.56,0,0,1-4.86,0,3.55,3.55,0,0,0-3.55,3.38h16.9A3.56,3.56,0,0,0,691.12,461.59Z" transform="translate(-35.23 -54.13)"/><path class="cls-1" d="M716.34,461.59a3.56,3.56,0,0,1-4.93,0,3.57,3.57,0,0,1-4.87,0A3.57,3.57,0,0,0,703,465h16.9A3.55,3.55,0,0,0,716.34,461.59Z" transform="translate(-35.23 -54.13)"/><path class="cls-1" d="M746.89,461.59a3.56,3.56,0,0,1-4.93,0,3.57,3.57,0,0,1-4.87,0,3.57,3.57,0,0,0-3.56,3.38h16.91A3.56,3.56,0,0,0,746.89,461.59Z" transform="translate(-35.23 -54.13)"/><rect class="cls-5" y="410.03" width="731.08" height="17.44"/></g><g id="Name_Banner_White" data-name="Name Banner White"><path class="cls-5" d="M146.1,130.87l60.31,71.53-5.5,3.72-19.38-23L175.8,187l14.09,26.57-5.51,3.71L140.6,134.59Zm26.54,50.24,4.62-3.12L160.67,158.4Z" transform="translate(-35.23 -54.13)"/><path class="cls-5" d="M201.29,99.21l3.07,5.89-10.25,5.35L234,187.05l-5.9,3.07-39.92-76.6-10.37,5.4L174.77,113Z" transform="translate(-35.23 -54.13)"/><path class="cls-5" d="M235.48,84.7l30.34,80.89,15.56-5.84,2.33,6.22-21.78,8.17L229.26,87Z" transform="translate(-35.23 -54.13)"/><path class="cls-5" d="M348.2,57.2a13.33,13.33,0,0,1,14.7,11.71l7.49,66a13.33,13.33,0,0,1-11.7,14.71l-13.21,1.49L335,58.7Zm-5.86,7.35,9,79.23,6.61-.75a6.58,6.58,0,0,0,5.85-7.35l-7.49-66A6.59,6.59,0,0,0,349,63.8Z" transform="translate(-35.23 -54.13)"/><path class="cls-5" d="M417.4,54.51l-.11,6.64-16.61-.27-.59,36.54,13.29.22-.11,6.64L400,104.07l-.59,36.54,16.61.27-.11,6.64-23.25-.38,1.51-93Z" transform="translate(-35.23 -54.13)"/><path class="cls-5" d="M453.42,57.27,452,119.68,466.6,59l6.59.86-21.9,91L444.7,150l2.13-93.54Z" transform="translate(-35.23 -54.13)"/><path class="cls-5" d="M568.1,85.91a13.32,13.32,0,0,1,7.54,17.22l-7.25,18.57-6.19-2.42,7.26-18.57a6.65,6.65,0,0,0-12.38-4.84l-24.2,61.89a6.65,6.65,0,1,0,12.38,4.84L552.52,144l6.19,2.42L551.45,165a13.29,13.29,0,1,1-24.75-9.68l24.19-61.89A13.32,13.32,0,0,1,568.1,85.91Z" transform="translate(-35.23 -54.13)"/><path class="cls-5" d="M621.48,110.93a13.34,13.34,0,0,1,5.24,18l-32,58.23a13.29,13.29,0,1,1-23.29-12.81l32-58.23A13.33,13.33,0,0,1,621.48,110.93Zm-3.2,5.83a6.58,6.58,0,0,0-9,2.62l-32,58.22A6.65,6.65,0,1,0,588.88,184l32-58.23A6.58,6.58,0,0,0,618.28,116.76Z" transform="translate(-35.23 -54.13)"/><path class="cls-5" d="M667.27,139.69l-28.83,62.45L678,147.57l5.35,3.94-55.17,74.91-5.35-3.94L651.63,160,612.1,214.6l-5.35-3.94,55.17-74.91Z" transform="translate(-35.23 -54.13)"/><circle class="cls-5" cx="261.41" cy="58.19" r="13.24"/><circle class="cls-5" cx="467.68" cy="58.19" r="13.24"/></g></svg>