<?xml version="1.0" encoding="utf-8"?>
<!-- Generator: Adobe Illustrator 16.0.4, SVG Export Plug-In . SVG Version: 6.00 Build 0)  -->
<!DOCTYPE svg PUBLIC "-//W3C//DTD SVG 1.0//EN" "http://www.w3.org/TR/2001/REC-SVG-20010904/DTD/svg10.dtd">
<svg version="1.0" id="Layer_1" xmlns="http://www.w3.org/2000/svg" xmlns:xlink="http://www.w3.org/1999/xlink" x="0px" y="0px"
	 width="389.096px" height="78.712px" viewBox="0 0 389.096 78.712" enable-background="new 0 0 389.096 78.712"
	 xml:space="preserve">
<g>
	<path fill="#FFFFFF" d="M300.564,25.72c0,0.52-0.178,0.962-0.532,1.316c-0.354,0.355-0.792,0.529-1.315,0.529
		s-0.959-0.168-1.305-0.519c-0.349-0.343-0.519-0.778-0.519-1.31c0-0.513,0.177-0.954,0.523-1.308
		c0.354-0.358,0.792-0.535,1.321-0.535c0.51,0,0.942,0.168,1.287,0.507C300.387,24.747,300.564,25.193,300.564,25.72z
		 M300.344,25.734c0-0.468-0.157-0.856-0.471-1.171c-0.311-0.311-0.691-0.466-1.144-0.466c-0.467,0-0.856,0.158-1.163,0.473
		c-0.309,0.311-0.459,0.701-0.459,1.165c0,0.469,0.161,0.86,0.479,1.179c0.312,0.311,0.688,0.466,1.143,0.466
		c0.444,0,0.825-0.157,1.144-0.472C300.187,26.592,300.344,26.203,300.344,25.734z M299.617,26.889h-0.4l-0.251-0.565
		c-0.13-0.284-0.264-0.428-0.41-0.428h-0.22v0.993h-0.328v-2.363h0.654c0.293,0,0.512,0.061,0.666,0.2
		c0.123,0.111,0.19,0.261,0.19,0.445c0,0.159-0.054,0.295-0.159,0.411c-0.102,0.117-0.249,0.192-0.436,0.231v0.012
		c0.13,0.03,0.258,0.174,0.385,0.438L299.617,26.889z M299.167,25.209c0-0.135-0.036-0.233-0.115-0.295
		c-0.083-0.068-0.226-0.104-0.426-0.104h-0.29v0.808h0.35C299.006,25.618,299.167,25.481,299.167,25.209z"/>
	<g>
		<path fill="#FFFFFF" d="M37.156,11.61L21.21,54.755h-5.536L0,11.61h5.626l11.945,34.208c0.381,1.084,0.671,2.357,0.872,3.822h0.12
			c0.161-1.224,0.491-2.518,0.994-3.882L31.741,11.61H37.156z"/>
		<path fill="#FFFFFF" d="M46.713,12.904c0,0.902-0.316,1.665-0.948,2.287c-0.632,0.622-1.399,0.933-2.301,0.933
			c-0.883,0-1.64-0.301-2.271-0.902c-0.632-0.602-0.948-1.374-0.948-2.317c0-0.902,0.316-1.66,0.948-2.271
			c0.631-0.612,1.388-0.918,2.271-0.918c0.902,0,1.669,0.306,2.301,0.918C46.397,11.245,46.713,12.002,46.713,12.904z M45.87,54.755
			h-4.934V23.946h4.934V54.755z"/>
		<path fill="#FFFFFF" d="M69.843,46.511c0,2.527-0.943,4.624-2.829,6.288c-2.065,1.805-4.884,2.708-8.454,2.708
			c-2.928,0-5.476-0.622-7.642-1.865v-5.295c2.407,1.966,5.074,2.948,8.003,2.948c3.911,0,5.866-1.434,5.866-4.303
			c0-1.203-0.431-2.196-1.294-2.979c-0.862-0.782-2.547-1.725-5.054-2.828c-2.588-1.123-4.423-2.287-5.506-3.49
			c-1.305-1.424-1.955-3.279-1.955-5.566c0-2.567,1.012-4.699,3.039-6.394c2.025-1.694,4.633-2.542,7.822-2.542
			c2.447,0,4.643,0.481,6.589,1.444v4.964c-2.026-1.464-4.353-2.196-6.981-2.196c-1.645,0-2.959,0.401-3.94,1.203
			c-0.984,0.802-1.475,1.835-1.475,3.099c0,1.364,0.412,2.427,1.234,3.189c0.743,0.702,2.286,1.555,4.634,2.558
			c2.626,1.104,4.522,2.236,5.686,3.4C69.091,42.339,69.843,44.225,69.843,46.511z"/>
		<path fill="#FFFFFF" d="M98.743,54.755h-4.935v-4.874h-0.121c-2.046,3.751-5.205,5.626-9.477,5.626
			c-7.362,0-11.042-4.382-11.042-13.147V23.946h4.935v17.63c0,6.479,2.486,9.719,7.461,9.719c2.387,0,4.356-0.867,5.911-2.603
			s2.332-4.066,2.332-6.995V23.946h4.935V54.755z"/>
		<path fill="#FFFFFF" d="M125.923,54.755h-4.934v-4.813h-0.121c-2.146,3.711-5.306,5.565-9.478,5.565
			c-3.129,0-5.566-0.862-7.311-2.587c-1.665-1.625-2.497-3.741-2.497-6.349c0-5.757,3.389-9.106,10.169-10.049l9.237-1.294
			c0-5.214-2.117-7.822-6.349-7.822c-3.711,0-7.06,1.253-10.049,3.761v-5.054c0.943-0.682,2.397-1.324,4.362-1.926
			c2.186-0.662,4.223-0.993,6.108-0.993c7.241,0,10.862,3.841,10.862,11.523V54.755z M120.989,39.17l-7.461,1.053
			c-2.708,0.382-4.564,1.053-5.566,2.016c-0.883,0.843-1.324,2.157-1.324,3.941c0,1.484,0.526,2.708,1.58,3.671
			c1.053,0.963,2.492,1.444,4.317,1.444c2.487,0,4.519-0.862,6.093-2.588c1.574-1.725,2.362-3.881,2.362-6.469V39.17z"/>
		<path fill="#FFFFFF" d="M135.84,54.755h-4.934V9.144h4.934V54.755z"/>
		<path fill="#FFFFFF" d="M177.26,43.864c0,3.35-1.112,6.058-3.339,8.124c-2.527,2.346-6.188,3.52-10.981,3.52
			c-1.605,0-3.39-0.251-5.356-0.752c-1.965-0.501-3.419-1.073-4.362-1.715v-5.987c1.343,1.203,3.029,2.166,5.054,2.889
			c1.885,0.661,3.671,0.992,5.355,0.992c5.537,0,8.304-2.156,8.304-6.469c0-1.865-0.702-3.52-2.106-4.964
			c-1.244-1.263-3.561-2.858-6.951-4.784c-3.549-2.005-6.036-3.932-7.461-5.776c-1.423-1.846-2.135-4.022-2.135-6.529
			c0-3.31,1.213-6.037,3.64-8.184c2.547-2.226,5.897-3.34,10.05-3.34c3.87,0,6.699,0.512,8.484,1.534v5.657
			c-2.267-1.765-5.185-2.648-8.755-2.648c-2.527,0-4.533,0.642-6.017,1.925c-1.405,1.203-2.106,2.738-2.106,4.604
			c0,2.006,0.642,3.681,1.925,5.024c1.084,1.124,3.24,2.578,6.469,4.363c3.529,1.946,6.078,3.821,7.642,5.626
			C176.378,39,177.26,41.296,177.26,43.864z"/>
		<path fill="#FFFFFF" d="M195.181,54.455c-1.164,0.661-2.708,0.993-4.634,0.993c-5.375,0-8.062-3.029-8.062-9.087V28.128h-5.296
			v-4.182h5.296v-7.522c1.563-0.501,3.208-1.033,4.934-1.595v9.117h7.763v4.182h-7.763v17.39c0,2.066,0.352,3.536,1.054,4.408
			c0.702,0.873,1.876,1.309,3.52,1.309c1.225,0,2.287-0.331,3.19-0.992V54.455z"/>
		<path fill="#FFFFFF" d="M224.127,54.755h-4.936v-4.874h-0.121c-2.045,3.751-5.204,5.626-9.477,5.626
			c-7.361,0-11.043-4.382-11.043-13.147V23.946h4.936v17.63c0,6.479,2.486,9.719,7.463,9.719c2.386,0,4.355-0.867,5.91-2.603
			s2.332-4.066,2.332-6.995V23.946h4.936V54.755z"/>
		<path fill="#FFFFFF" d="M256.041,54.755h-4.934V49.52h-0.119c-2.289,3.992-5.817,5.987-10.592,5.987
			c-3.791,0-6.84-1.343-9.146-4.031c-2.407-2.769-3.609-6.56-3.609-11.373c0-5.135,1.281-9.237,3.85-12.306
			c2.567-3.068,5.988-4.603,10.261-4.603c4.212,0,7.291,1.665,9.237,4.995h0.119V9.144h4.934V54.755z M251.107,40.825v-4.543
			c0-2.467-0.803-4.543-2.408-6.228c-1.664-1.765-3.771-2.648-6.316-2.648c-3.009,0-5.376,1.098-7.102,3.294
			c-1.725,2.196-2.588,5.24-2.588,9.132c0,3.711,0.895,6.589,2.68,8.635c1.643,1.885,3.791,2.828,6.438,2.828
			c2.807,0,5.084-1.023,6.829-3.069C250.285,46.26,251.107,43.793,251.107,40.825z"/>
		<path fill="#FFFFFF" d="M265.646,12.904c0,0.902-0.315,1.665-0.948,2.287c-0.632,0.622-1.398,0.933-2.303,0.933
			c-0.881,0-1.639-0.301-2.271-0.902c-0.631-0.602-0.947-1.374-0.947-2.317c0-0.902,0.316-1.66,0.947-2.271
			c0.632-0.612,1.39-0.918,2.271-0.918c0.904,0,1.671,0.306,2.303,0.918C265.33,11.245,265.646,12.002,265.646,12.904z
			 M264.803,54.755h-4.934V23.946h4.934V54.755z"/>
		<path fill="#FFFFFF" d="M298.705,39.23c0,4.915-1.383,8.856-4.15,11.825c-2.77,2.968-6.5,4.452-11.193,4.452
			c-4.633,0-8.303-1.484-11.012-4.452c-2.647-2.869-3.971-6.65-3.971-11.344c0-5.355,1.504-9.497,4.514-12.426
			c2.787-2.728,6.518-4.092,11.191-4.092c4.594,0,8.178,1.425,10.756,4.272C297.417,30.315,298.705,34.236,298.705,39.23z
			 M293.651,39.411c0-3.951-0.894-6.96-2.678-9.026c-1.726-1.985-4.142-2.978-7.252-2.978c-3.068,0-5.524,1.002-7.37,3.008
			c-1.946,2.146-2.918,5.186-2.918,9.117c0,3.689,0.932,6.573,2.798,8.649c1.865,2.076,4.361,3.114,7.49,3.114
			c3.251,0,5.728-1.053,7.433-3.159C292.818,46.09,293.651,43.182,293.651,39.411z"/>
	</g>
	<g>
		<path fill="#FFFFFF" d="M5.452,75.954H0v-9.093h5.244v1.667H2.047v2.023h2.974v1.661H2.047v2.079h3.405V75.954z"/>
		<path fill="#FFFFFF" d="M14.687,75.954h-2.429l-1.565-2.961c-0.055-0.102-0.116-0.305-0.186-0.609h-0.024
			c-0.035,0.14-0.104,0.352-0.21,0.635l-1.572,2.936H6.259l2.897-4.547l-2.65-4.546h2.492l1.3,2.727
			c0.105,0.22,0.196,0.476,0.272,0.767h0.025c0.05-0.178,0.146-0.441,0.286-0.792l1.446-2.701h2.282l-2.727,4.509L14.687,75.954z"/>
		<path fill="#FFFFFF" d="M22.5,69.758c0,0.893-0.315,1.619-0.945,2.182c-0.659,0.588-1.551,0.881-2.676,0.881h-0.977v3.133h-2.047
			v-9.093h3.207C21.354,66.861,22.5,67.827,22.5,69.758z M20.345,69.834c0-0.935-0.545-1.401-1.636-1.401h-0.807v2.834h0.807
			C19.799,71.267,20.345,70.79,20.345,69.834z"/>
		<path fill="#FFFFFF" d="M29.368,75.954h-5.452v-9.093h5.244v1.667h-3.197v2.023h2.974v1.661h-2.974v2.079h3.405V75.954z"/>
		<path fill="#FFFFFF" d="M37.905,75.954h-2.353l-0.92-2.34c-0.304-0.761-0.712-1.142-1.223-1.142h-0.445v3.481h-2.047v-9.093h3.245
			c2.207,0,3.311,0.825,3.311,2.474c0,0.643-0.189,1.185-0.565,1.629c-0.359,0.418-0.855,0.71-1.49,0.875v0.025
			c0.533,0.169,0.966,0.636,1.3,1.401L37.905,75.954z M35.317,69.587c0-0.795-0.476-1.192-1.426-1.192h-0.926v2.529h0.889
			c0.452,0,0.813-0.133,1.084-0.398C35.191,70.272,35.317,69.959,35.317,69.587z"/>
		<path fill="#FFFFFF" d="M45.395,68.528h-2.594v7.426h-2.053v-7.426h-2.58v-1.667h7.228V68.528z"/>
		<path fill="#FFFFFF" d="M55.898,73.398c0,0.753-0.247,1.365-0.741,1.839c-0.609,0.583-1.539,0.875-2.79,0.875
			c-0.943,0-1.728-0.169-2.353-0.508v-2.028c0.723,0.616,1.524,0.926,2.403,0.926c0.457,0,0.801-0.1,1.034-0.299
			c0.194-0.168,0.292-0.378,0.292-0.627c0-0.292-0.145-0.558-0.431-0.799c-0.228-0.187-0.646-0.421-1.256-0.704
			c-1.386-0.655-2.079-1.543-2.079-2.663c0-0.815,0.302-1.47,0.903-1.963c0.603-0.491,1.407-0.737,2.412-0.737
			c0.884,0,1.62,0.116,2.207,0.348v1.896c-0.612-0.423-1.31-0.635-2.091-0.635c-0.39,0-0.7,0.085-0.93,0.254
			c-0.23,0.17-0.345,0.391-0.345,0.666c0,0.291,0.101,0.534,0.305,0.729c0.19,0.181,0.558,0.401,1.103,0.659
			c0.808,0.389,1.385,0.767,1.732,1.135C55.69,72.21,55.898,72.755,55.898,73.398z"/>
		<path fill="#FFFFFF" d="M65.773,71.344c0,1.437-0.417,2.59-1.252,3.461c-0.835,0.871-1.917,1.307-3.243,1.307
			c-1.29,0-2.344-0.418-3.165-1.256c-0.832-0.85-1.249-1.959-1.249-3.328c0-1.425,0.408-2.578,1.224-3.462
			c0.832-0.905,1.945-1.356,3.335-1.356c1.289,0,2.336,0.422,3.142,1.268C65.371,68.823,65.773,69.945,65.773,71.344z
			 M63.617,71.458c0-0.955-0.207-1.694-0.621-2.219c-0.397-0.512-0.941-0.768-1.63-0.768c-0.735,0-1.314,0.281-1.737,0.844
			c-0.405,0.537-0.608,1.238-0.608,2.105c0,0.93,0.224,1.658,0.672,2.187c0.417,0.49,0.959,0.735,1.624,0.735
			c0.68,0,1.228-0.238,1.642-0.716C63.398,73.115,63.617,72.392,63.617,71.458z"/>
		<path fill="#FFFFFF" d="M72.782,75.954h-5.416v-9.093h2.049v7.431h3.367V75.954z"/>
		<path fill="#FFFFFF" d="M81.248,72.016c0,2.73-1.272,4.096-3.816,4.096c-2.469,0-3.703-1.334-3.703-4.001v-5.25h2.053v5.275
			c0,1.471,0.575,2.206,1.725,2.206c1.128,0,1.693-0.71,1.693-2.13v-5.352h2.047V72.016z"/>
		<path fill="#FFFFFF" d="M89.702,68.528h-2.594v7.426h-2.053v-7.426h-2.58v-1.667h7.227V68.528z"/>
		<path fill="#FFFFFF" d="M93.065,75.954h-2.048v-9.093h2.048V75.954z"/>
		<path fill="#FFFFFF" d="M103.56,71.344c0,1.437-0.418,2.59-1.252,3.461c-0.835,0.871-1.916,1.307-3.243,1.307
			c-1.289,0-2.344-0.418-3.164-1.256c-0.833-0.85-1.25-1.959-1.25-3.328c0-1.425,0.408-2.578,1.224-3.462
			c0.832-0.905,1.944-1.356,3.335-1.356c1.289,0,2.337,0.422,3.142,1.268S103.56,69.945,103.56,71.344z M101.404,71.458
			c0-0.955-0.207-1.694-0.622-2.219c-0.396-0.512-0.939-0.768-1.629-0.768c-0.735,0-1.314,0.281-1.737,0.844
			c-0.406,0.537-0.607,1.238-0.607,2.105c0,0.93,0.223,1.658,0.671,2.187c0.419,0.49,0.959,0.735,1.623,0.735
			c0.68,0,1.228-0.238,1.642-0.716C101.184,73.115,101.404,72.392,101.404,71.458z"/>
		<path fill="#FFFFFF" d="M113.332,75.954h-2.066l-3.747-5.713c-0.212-0.322-0.364-0.572-0.458-0.755h-0.024
			c0.033,0.334,0.05,0.824,0.05,1.471v4.997h-1.933v-9.093h2.205l3.608,5.535c0.123,0.182,0.274,0.429,0.457,0.742h0.024
			c-0.033-0.22-0.05-0.637-0.05-1.249v-5.028h1.933V75.954z"/>
		<path fill="#FFFFFF" d="M121.019,73.398c0,0.753-0.248,1.365-0.741,1.839c-0.609,0.583-1.539,0.875-2.791,0.875
			c-0.943,0-1.727-0.169-2.352-0.508v-2.028c0.723,0.616,1.523,0.926,2.402,0.926c0.458,0,0.802-0.1,1.035-0.299
			c0.193-0.168,0.292-0.378,0.292-0.627c0-0.292-0.145-0.558-0.431-0.799c-0.229-0.187-0.647-0.421-1.256-0.704
			c-1.387-0.655-2.08-1.543-2.08-2.663c0-0.815,0.3-1.47,0.903-1.963c0.603-0.491,1.406-0.737,2.412-0.737
			c0.883,0,1.619,0.116,2.207,0.348v1.896c-0.613-0.423-1.31-0.635-2.092-0.635c-0.389,0-0.699,0.085-0.929,0.254
			c-0.23,0.17-0.345,0.391-0.345,0.666c0,0.291,0.102,0.534,0.305,0.729c0.19,0.181,0.557,0.401,1.103,0.659
			c0.808,0.389,1.385,0.767,1.731,1.135C120.81,72.21,121.019,72.755,121.019,73.398z"/>
		<path fill="#FFFFFF" d="M131.485,68.528h-3.208v2.232h2.948v1.661h-2.948v3.532h-2.048v-9.093h5.256V68.528z"/>
		<path fill="#FFFFFF" d="M141.41,71.344c0,1.437-0.417,2.59-1.252,3.461s-1.916,1.307-3.243,1.307
			c-1.289,0-2.344-0.418-3.164-1.256c-0.833-0.85-1.25-1.959-1.25-3.328c0-1.425,0.408-2.578,1.224-3.462
			c0.832-0.905,1.945-1.356,3.335-1.356c1.289,0,2.336,0.422,3.142,1.268S141.41,69.945,141.41,71.344z M139.254,71.458
			c0-0.955-0.207-1.694-0.621-2.219c-0.397-0.512-0.939-0.768-1.63-0.768c-0.735,0-1.314,0.281-1.737,0.844
			c-0.405,0.537-0.607,1.238-0.607,2.105c0,0.93,0.223,1.658,0.671,2.187c0.419,0.49,0.959,0.735,1.623,0.735
			c0.681,0,1.228-0.238,1.642-0.716C139.035,73.115,139.254,72.392,139.254,71.458z"/>
		<path fill="#FFFFFF" d="M149.99,75.954h-2.352l-0.919-2.34c-0.304-0.761-0.712-1.142-1.224-1.142h-0.443v3.481h-2.048v-9.093
			h3.246c2.207,0,3.31,0.825,3.31,2.474c0,0.643-0.188,1.185-0.564,1.629c-0.359,0.418-0.856,0.71-1.49,0.875v0.025
			c0.533,0.169,0.965,0.636,1.3,1.401L149.99,75.954z M147.404,69.587c0-0.795-0.475-1.192-1.426-1.192h-0.926v2.529h0.888
			c0.452,0,0.814-0.133,1.085-0.398C147.278,70.272,147.404,69.959,147.404,69.587z"/>
		<path fill="#FFFFFF" d="M160.482,75.954h-5.453v-9.093h5.243v1.667h-3.195v2.023h2.973v1.661h-2.973v2.079h3.405V75.954z"/>
		<path fill="#FFFFFF" d="M170.21,75.954h-2.067l-3.747-5.713c-0.212-0.322-0.364-0.572-0.457-0.755h-0.025
			c0.033,0.334,0.05,0.824,0.05,1.471v4.997h-1.934v-9.093h2.206l3.608,5.535c0.123,0.182,0.274,0.429,0.457,0.742h0.025
			c-0.034-0.22-0.05-0.637-0.05-1.249v-5.028h1.933V75.954z"/>
		<path fill="#FFFFFF" d="M178.765,68.528h-2.592v7.426h-2.055v-7.426h-2.58v-1.667h7.227V68.528z"/>
		<path fill="#FFFFFF" d="M185.532,75.954h-5.451v-9.093h5.244v1.667h-3.197v2.023h2.975v1.661h-2.975v2.079h3.404V75.954z"/>
		<path fill="#FFFFFF" d="M194.07,75.954h-2.353l-0.918-2.34c-0.306-0.761-0.714-1.142-1.225-1.142h-0.444v3.481h-2.047v-9.093
			h3.246c2.205,0,3.31,0.825,3.31,2.474c0,0.643-0.188,1.185-0.565,1.629c-0.359,0.418-0.855,0.71-1.49,0.875v0.025
			c0.534,0.169,0.966,0.636,1.3,1.401L194.07,75.954z M191.482,69.587c0-0.795-0.476-1.192-1.427-1.192h-0.925v2.529h0.888
			c0.452,0,0.814-0.133,1.084-0.398C191.355,70.272,191.482,69.959,191.482,69.587z"/>
		<path fill="#FFFFFF" d="M202.078,69.758c0,0.893-0.314,1.619-0.944,2.182c-0.659,0.588-1.551,0.881-2.675,0.881h-0.978v3.133
			h-2.047v-9.093h3.208C200.934,66.861,202.078,67.827,202.078,69.758z M199.924,69.834c0-0.935-0.546-1.401-1.637-1.401h-0.806
			v2.834h0.806C199.378,71.267,199.924,70.79,199.924,69.834z"/>
		<path fill="#FFFFFF" d="M210.482,75.954h-2.352l-0.92-2.34c-0.305-0.761-0.713-1.142-1.223-1.142h-0.444v3.481h-2.049v-9.093
			h3.246c2.208,0,3.31,0.825,3.31,2.474c0,0.643-0.187,1.185-0.563,1.629c-0.358,0.418-0.856,0.71-1.49,0.875v0.025
			c0.532,0.169,0.966,0.636,1.3,1.401L210.482,75.954z M207.896,69.587c0-0.795-0.476-1.192-1.427-1.192h-0.925v2.529h0.887
			c0.453,0,0.815-0.133,1.084-0.398C207.77,70.272,207.896,69.959,207.896,69.587z"/>
		<path fill="#FFFFFF" d="M213.896,75.954h-2.049v-9.093h2.049V75.954z"/>
		<path fill="#FFFFFF" d="M221.571,73.398c0,0.753-0.248,1.365-0.743,1.839c-0.609,0.583-1.539,0.875-2.79,0.875
			c-0.942,0-1.728-0.169-2.353-0.508v-2.028c0.723,0.616,1.524,0.926,2.404,0.926c0.455,0,0.8-0.1,1.032-0.299
			c0.194-0.168,0.292-0.378,0.292-0.627c0-0.292-0.144-0.558-0.432-0.799c-0.228-0.187-0.647-0.421-1.254-0.704
			c-1.387-0.655-2.081-1.543-2.081-2.663c0-0.815,0.302-1.47,0.904-1.963c0.602-0.491,1.407-0.737,2.413-0.737
			c0.884,0,1.618,0.116,2.207,0.348v1.896c-0.615-0.423-1.312-0.635-2.094-0.635c-0.389,0-0.698,0.085-0.928,0.254
			c-0.232,0.17-0.347,0.391-0.347,0.666c0,0.291,0.103,0.534,0.304,0.729c0.189,0.181,0.56,0.401,1.104,0.659
			c0.808,0.389,1.384,0.767,1.73,1.135C221.361,72.21,221.571,72.755,221.571,73.398z"/>
		<path fill="#FFFFFF" d="M228.559,75.954h-5.453v-9.093h5.244v1.667h-3.195v2.023h2.974v1.661h-2.974v2.079h3.404V75.954z"/>
		<path fill="#FFFFFF" d="M241.848,71.293c0,1.411-0.442,2.541-1.323,3.389c-0.882,0.847-2.056,1.271-3.522,1.271h-3.222v-9.093
			h3.222C240.231,66.861,241.848,68.338,241.848,71.293z M239.691,71.318c0-0.85-0.241-1.521-0.723-2.016
			c-0.504-0.517-1.216-0.774-2.137-0.774h-1.003v5.764h1.016c0.895,0,1.597-0.272,2.104-0.817
			C239.444,72.946,239.691,72.227,239.691,71.318z"/>
		<path fill="#FFFFFF" d="M248.893,75.954h-5.453v-9.093h5.244v1.667h-3.197v2.023h2.977v1.661h-2.977v2.079h3.406V75.954z"/>
		<path fill="#FFFFFF" d="M258.075,66.861l-3.132,9.093h-2.32l-3.094-9.093h2.205l1.896,6.327c0.105,0.343,0.168,0.646,0.185,0.907
			h0.038c0.029-0.292,0.094-0.603,0.196-0.932l1.883-6.303H258.075z"/>
		<path fill="#FFFFFF" d="M264.71,75.954h-5.452v-9.093h5.243v1.667h-3.196v2.023h2.975v1.661h-2.975v2.079h3.405V75.954z"/>
		<path fill="#FFFFFF" d="M271.674,75.954h-5.415v-9.093h2.048v7.431h3.367V75.954z"/>
		<path fill="#FFFFFF" d="M281.004,71.344c0,1.437-0.418,2.59-1.253,3.461s-1.915,1.307-3.242,1.307
			c-1.29,0-2.345-0.418-3.165-1.256c-0.832-0.85-1.249-1.959-1.249-3.328c0-1.425,0.408-2.578,1.224-3.462
			c0.833-0.905,1.944-1.356,3.336-1.356c1.289,0,2.337,0.422,3.141,1.268C280.602,68.823,281.004,69.945,281.004,71.344z
			 M278.848,71.458c0-0.955-0.208-1.694-0.621-2.219c-0.396-0.512-0.941-0.768-1.63-0.768c-0.734,0-1.314,0.281-1.737,0.844
			c-0.406,0.537-0.609,1.238-0.609,2.105c0,0.93,0.225,1.658,0.672,2.187c0.419,0.49,0.961,0.735,1.625,0.735
			c0.68,0,1.228-0.238,1.641-0.716C278.629,73.115,278.848,72.392,278.848,71.458z"/>
		<path fill="#FFFFFF" d="M289.241,69.758c0,0.893-0.315,1.619-0.944,2.182c-0.66,0.588-1.553,0.881-2.677,0.881h-0.976v3.133
			h-2.049v-9.093h3.21C288.096,66.861,289.241,67.827,289.241,69.758z M287.086,69.834c0-0.935-0.545-1.401-1.635-1.401h-0.807
			v2.834h0.807C286.541,71.267,287.086,70.79,287.086,69.834z"/>
		<path fill="#FFFFFF" d="M296.109,75.954h-5.452v-9.093h5.245v1.667h-3.197v2.023h2.975v1.661h-2.975v2.079h3.404V75.954z"/>
		<path fill="#FFFFFF" d="M304.646,75.954h-2.353l-0.919-2.34c-0.306-0.761-0.713-1.142-1.225-1.142h-0.443v3.481h-2.047v-9.093
			h3.246c2.205,0,3.309,0.825,3.309,2.474c0,0.643-0.188,1.185-0.564,1.629c-0.359,0.418-0.855,0.71-1.49,0.875v0.025
			c0.533,0.169,0.966,0.636,1.3,1.401L304.646,75.954z M302.06,69.587c0-0.795-0.476-1.192-1.427-1.192h-0.926v2.529h0.887
			c0.453,0,0.814-0.133,1.085-0.398C301.932,70.272,302.06,69.959,302.06,69.587z"/>
		<path fill="#FFFFFF" d="M311.529,73.398c0,0.753-0.248,1.365-0.744,1.839c-0.608,0.583-1.537,0.875-2.789,0.875
			c-0.942,0-1.727-0.169-2.352-0.508v-2.028c0.723,0.616,1.523,0.926,2.403,0.926c0.456,0,0.8-0.1,1.032-0.299
			c0.194-0.168,0.293-0.378,0.293-0.627c0-0.292-0.145-0.558-0.432-0.799c-0.228-0.187-0.647-0.421-1.256-0.704
			c-1.387-0.655-2.08-1.543-2.08-2.663c0-0.815,0.301-1.47,0.904-1.963c0.603-0.491,1.406-0.737,2.413-0.737
			c0.884,0,1.618,0.116,2.206,0.348v1.896c-0.613-0.423-1.311-0.635-2.093-0.635c-0.39,0-0.698,0.085-0.929,0.254
			c-0.23,0.17-0.346,0.391-0.346,0.666c0,0.291,0.102,0.534,0.305,0.729c0.189,0.181,0.559,0.401,1.104,0.659
			c0.809,0.389,1.384,0.767,1.73,1.135C311.319,72.21,311.529,72.755,311.529,73.398z"/>
	</g>
	<g>
		
			<linearGradient id="SVGID_1_" gradientUnits="userSpaceOnUse" x1="2181.001" y1="1404.5288" x2="2181.001" y2="1468.875" gradientTransform="matrix(1 0 0 1 -1831.2617 -1399.9121)">
			<stop  offset="0" style="stop-color:#E6E5F3"/>
			<stop  offset="0.0441" style="stop-color:#B9D7F1"/>
			<stop  offset="0.1032" style="stop-color:#7FC7EE"/>
			<stop  offset="0.1476" style="stop-color:#52BEED"/>
			<stop  offset="0.1718" style="stop-color:#39BBEC"/>
			<stop  offset="0.3181" style="stop-color:#4696C6"/>
			<stop  offset="0.4971" style="stop-color:#4B72A6"/>
			<stop  offset="0.6613" style="stop-color:#4C5991"/>
			<stop  offset="0.8051" style="stop-color:#4C4583"/>
			<stop  offset="0.9229" style="stop-color:#4C387B"/>
			<stop  offset="1" style="stop-color:#4B3378"/>
		</linearGradient>
		<path opacity="0.46" fill="url(#SVGID_1_)" d="M371.816,18.655c0,7.9-9.879,14.307-22.08,14.307
			c-12.189,0-22.074-6.407-22.074-14.307c0-7.903,9.885-14.311,22.074-14.311C361.938,4.344,371.816,10.751,371.816,18.655z"/>
		
			<radialGradient id="SVGID_2_" cx="2177.2158" cy="1413.6841" r="68.073" gradientTransform="matrix(0.9982 0 0 0.9982 -1823.5574 -1398.349)" gradientUnits="userSpaceOnUse">
			<stop  offset="0" style="stop-color:#39BBEC"/>
			<stop  offset="0.8589" style="stop-color:#4B3378"/>
			<stop  offset="1" style="stop-color:#39BBEC"/>
		</radialGradient>
		<path fill="url(#SVGID_2_)" stroke="#4B3378" stroke-width="0.6784" d="M384.129,20.935c10.167,18.982,3.026,42.633-15.969,52.809
			c-18.984,10.17-42.631,3.026-52.805-15.963c-10.175-18.989-3.028-42.633,15.964-52.812
			C350.304-5.203,373.949,1.943,384.129,20.935z"/>
		
			<radialGradient id="SVGID_3_" cx="2177.3262" cy="1411.9995" r="74.5072" gradientTransform="matrix(0.9982 0 0 0.9982 -1823.5574 -1398.349)" gradientUnits="userSpaceOnUse">
			<stop  offset="0" style="stop-color:#39BBEC"/>
			<stop  offset="0.9158" style="stop-color:#4B3378"/>
		</radialGradient>
		<path fill="url(#SVGID_3_)" d="M353.178,62.616c16.742-1.588,29.766-14.284,32.469-30.118
			c-3.483-18.331-20.41-31.329-39.354-29.536c-16.55,1.565-29.471,13.946-32.462,29.489
			C316.975,51.095,334.051,64.422,353.178,62.616z"/>
		<g>
			<g>
				
					<image overflow="visible" opacity="0.75" width="303" height="144" xlink:href="1DB97E5FD49EAFAC.png"  transform="matrix(0.24 0 0 0.24 314.207 23.6968)">
				</image>
				<g>
					<g>
						<path fill="#232020" d="M316.366,54.767V25.856h5.562v24.107h8.146v4.804H316.366z"/>
						<path fill="#232020" d="M332.391,54.767V25.856h5.568v28.911H332.391z"/>
						<path fill="#232020" d="M352.991,54.767h-5.946l-7.182-28.911h5.768l4.014,19.051c0.199,0.97,0.351,2.191,0.443,3.668h0.143
							l0.099-0.765c0.094-0.955,0.234-1.955,0.428-3.003l4.005-18.951h5.611L352.991,54.767z"/>
						<path fill="#232020" d="M361.866,54.767V25.856h13.282v4.801h-7.72v7.216h7.237v4.793h-7.237v7.297h8.227v4.804H361.866z"/>
						<path fill="#232020" d="M380.65,55.125c-0.925,0-1.695-0.298-2.307-0.903c-0.613-0.607-0.918-1.39-0.918-2.342
							c0-0.992,0.305-1.783,0.895-2.377c0.601-0.596,1.377-0.89,2.33-0.89c0.999,0,1.776,0.307,2.346,0.924
							c0.576,0.611,0.862,1.389,0.862,2.343c0,0.914-0.293,1.683-0.866,2.31C382.412,54.815,381.631,55.125,380.65,55.125z
							 M382.707,45.471h-4.293l-0.789-19.615h5.868L382.707,45.471z"/>
					</g>
				</g>
			</g>
			<g>
				<linearGradient id="SVGID_4_" gradientUnits="userSpaceOnUse" x1="322.8428" y1="32.2939" x2="322.8428" y2="55.4439">
					<stop  offset="0" style="stop-color:#FFFFFF"/>
					<stop  offset="0.2084" style="stop-color:#F9FCFE"/>
					<stop  offset="0.4019" style="stop-color:#ECF6FD"/>
					<stop  offset="0.5895" style="stop-color:#D9EDFA"/>
					<stop  offset="0.7735" style="stop-color:#BDE2F7"/>
					<stop  offset="0.9532" style="stop-color:#99D4F4"/>
					<stop  offset="0.9939" style="stop-color:#8FD0F3"/>
				</linearGradient>
				<path fill="url(#SVGID_4_)" d="M315.988,54.388V25.48h5.564v24.108h8.145v4.8H315.988z"/>
				<linearGradient id="SVGID_5_" gradientUnits="userSpaceOnUse" x1="334.7969" y1="32.2939" x2="334.7969" y2="55.4439">
					<stop  offset="0" style="stop-color:#FFFFFF"/>
					<stop  offset="0.2084" style="stop-color:#F9FCFE"/>
					<stop  offset="0.4019" style="stop-color:#ECF6FD"/>
					<stop  offset="0.5895" style="stop-color:#D9EDFA"/>
					<stop  offset="0.7735" style="stop-color:#BDE2F7"/>
					<stop  offset="0.9532" style="stop-color:#99D4F4"/>
					<stop  offset="0.9939" style="stop-color:#8FD0F3"/>
				</linearGradient>
				<path fill="url(#SVGID_5_)" d="M332.012,54.388V25.48h5.57v28.908H332.012z"/>
				<linearGradient id="SVGID_6_" gradientUnits="userSpaceOnUse" x1="349.7422" y1="32.2939" x2="349.7422" y2="55.4439">
					<stop  offset="0" style="stop-color:#FFFFFF"/>
					<stop  offset="0.2084" style="stop-color:#F9FCFE"/>
					<stop  offset="0.4019" style="stop-color:#ECF6FD"/>
					<stop  offset="0.5895" style="stop-color:#D9EDFA"/>
					<stop  offset="0.7735" style="stop-color:#BDE2F7"/>
					<stop  offset="0.9532" style="stop-color:#99D4F4"/>
					<stop  offset="0.9939" style="stop-color:#8FD0F3"/>
				</linearGradient>
				<path fill="url(#SVGID_6_)" d="M352.615,54.388h-5.947L339.49,25.48h5.768l4.012,19.049c0.197,0.968,0.345,2.188,0.448,3.672
					h0.134l0.104-0.769c0.091-0.954,0.229-1.953,0.423-3.002l4.009-18.95h5.606L352.615,54.388z"/>
				<linearGradient id="SVGID_7_" gradientUnits="userSpaceOnUse" x1="368.3848" y1="32.2939" x2="368.3848" y2="55.4439">
					<stop  offset="0" style="stop-color:#FFFFFF"/>
					<stop  offset="0.2084" style="stop-color:#F9FCFE"/>
					<stop  offset="0.4019" style="stop-color:#ECF6FD"/>
					<stop  offset="0.5895" style="stop-color:#D9EDFA"/>
					<stop  offset="0.7735" style="stop-color:#BDE2F7"/>
					<stop  offset="0.9532" style="stop-color:#99D4F4"/>
					<stop  offset="0.9939" style="stop-color:#8FD0F3"/>
				</linearGradient>
				<path fill="url(#SVGID_7_)" d="M361.487,54.388V25.48h13.292v4.799h-7.725v7.218h7.237v4.796h-7.237v7.295h8.229v4.8H361.487z"
					/>
				<linearGradient id="SVGID_8_" gradientUnits="userSpaceOnUse" x1="380.2617" y1="32.2935" x2="380.2617" y2="55.4426">
					<stop  offset="0" style="stop-color:#FFFFFF"/>
					<stop  offset="0.2084" style="stop-color:#F9FCFE"/>
					<stop  offset="0.4019" style="stop-color:#ECF6FD"/>
					<stop  offset="0.5895" style="stop-color:#D9EDFA"/>
					<stop  offset="0.7735" style="stop-color:#BDE2F7"/>
					<stop  offset="0.9532" style="stop-color:#99D4F4"/>
					<stop  offset="0.9939" style="stop-color:#8FD0F3"/>
				</linearGradient>
				<path fill="url(#SVGID_8_)" d="M380.275,54.75c-0.926,0-1.697-0.302-2.313-0.908c-0.604-0.604-0.915-1.38-0.915-2.337
					c0-0.996,0.298-1.787,0.904-2.375c0.595-0.597,1.369-0.892,2.324-0.892c0.996,0,1.775,0.309,2.348,0.917
					c0.565,0.612,0.853,1.396,0.853,2.35c0,0.912-0.289,1.683-0.866,2.311C382.035,54.437,381.264,54.75,380.275,54.75z
					 M382.328,45.097h-4.289l-0.791-19.617h5.871L382.328,45.097z"/>
			</g>
		</g>
	</g>
</g>
</svg>
