<?xml version="1.0" encoding="utf-8"?>
<!-- Generator: Adobe Illustrator 18.1.0, SVG Export Plug-In . SVG Version: 6.00 Build 0)  -->
<!DOCTYPE svg PUBLIC "-//W3C//DTD SVG 1.1//EN" "http://www.w3.org/Graphics/SVG/1.1/DTD/svg11.dtd">
<svg version="1.1" id="Layer_1" xmlns="http://www.w3.org/2000/svg" xmlns:xlink="http://www.w3.org/1999/xlink" x="0px" y="0px"
	 viewBox="0 0 40 40" enable-background="new 0 0 40 40" xml:space="preserve">
<g id="android">
	<circle fill="#C5DF9C" cx="20" cy="20" r="20"/>
	<g>
		<path fill="#FFFFFF" d="M21.4,14.1l0.2-0.2l0.2-0.2l0.3-0.5c0-0.1,0-0.1,0-0.2c-0.1,0-0.1,0-0.2,0l-0.4,0.5l-0.2,0.2L21.1,14
			c-0.5-0.2-1-0.3-1.6-0.3c-0.6,0-1.1,0.1-1.6,0.3l-0.2-0.2l-0.2-0.2L17.3,13c0-0.1-0.1-0.1-0.2,0c-0.1,0-0.1,0.1,0,0.2l0.3,0.5
			l0.2,0.2l0.2,0.2c-1.1,0.5-1.9,1.5-1.9,2.7h7.5C23.3,15.7,22.5,14.7,21.4,14.1z M17.9,15.7c-0.2,0-0.4-0.2-0.4-0.4
			c0-0.2,0.2-0.4,0.4-0.4c0.2,0,0.4,0.2,0.4,0.4C18.3,15.6,18.1,15.7,17.9,15.7z M21.2,15.7c-0.2,0-0.4-0.2-0.4-0.4
			c0-0.2,0.2-0.4,0.4-0.4c0.2,0,0.4,0.2,0.4,0.4C21.6,15.6,21.4,15.7,21.2,15.7z"/>
		<path fill="#FFFFFF" d="M15.8,17.4L15.8,17.4L15.8,18v0.5v4.7c0,0.5,0.4,0.9,0.9,0.9h0.6c0,0.1,0,0.1,0,0.2v0v0.3v1.4
			c0,0.4,0.4,0.8,0.8,0.8c0.4,0,0.8-0.4,0.8-0.8v-1.4v-0.3v0c0-0.1,0-0.2,0-0.2h1.5c0,0.1,0,0.1,0,0.2v0v0.3v1.4
			c0,0.4,0.4,0.8,0.8,0.8c0.4,0,0.8-0.4,0.8-0.8v-1.4v-0.3v0c0-0.1,0-0.2,0-0.2h0.6c0.5,0,0.9-0.4,0.9-0.9v-4.7V18v-0.7h-0.1H15.8z"
			/>
		<path fill="#FFFFFF" d="M14.4,17.4c-0.4,0-0.8,0.4-0.8,0.8v3.5c0,0.4,0.4,0.8,0.8,0.8c0.4,0,0.8-0.4,0.8-0.8v-3.5
			C15.2,17.7,14.9,17.4,14.4,17.4z"/>
		<path fill="#FFFFFF" d="M24.7,17.4c-0.4,0-0.8,0.4-0.8,0.8v3.5c0,0.4,0.4,0.8,0.8,0.8c0.4,0,0.8-0.4,0.8-0.8v-3.5
			C25.5,17.7,25.1,17.4,24.7,17.4z"/>
	</g>
</g>
</svg>
