<?xml version="1.0" encoding="utf-8"?>
<!-- Generator: Adobe Illustrator 18.1.0, SVG Export Plug-In . SVG Version: 6.00 Build 0)  -->
<!DOCTYPE svg PUBLIC "-//W3C//DTD SVG 1.1//EN" "http://www.w3.org/Graphics/SVG/1.1/DTD/svg11.dtd">
<svg version="1.1" id="Layer_1" xmlns="http://www.w3.org/2000/svg" xmlns:xlink="http://www.w3.org/1999/xlink" x="0px" y="0px"
	 viewBox="0 0 40 40" enable-background="new 0 0 40 40" xml:space="preserve">
<g id="apple">
	<circle fill="#CCCCCC" cx="20" cy="20" r="20"/>
	<g>
		<path fill="#FFFFFF" d="M23.3,20.4c0-1.8,1.4-2.6,1.5-2.6c-0.8-1.2-2.1-1.4-2.5-1.4c-1.1-0.1-2.1,0.6-2.7,0.6
			c-0.5,0-1.4-0.6-2.3-0.6c-1.2,0-2.3,0.7-2.9,1.7c-1.2,2.1-0.3,5.3,0.9,7c0.6,0.8,1.3,1.8,2.2,1.8c0.9,0,1.2-0.6,2.3-0.6
			c1.1,0,1.4,0.6,2.3,0.6c0.9,0,1.5-0.9,2.1-1.7c0.7-1,0.9-1.9,1-2C25.1,23.2,23.3,22.5,23.3,20.4z"/>
		<path fill="#FFFFFF" d="M21.6,15.2c0.5-0.6,0.8-1.4,0.7-2.2c-0.7,0-1.5,0.5-2,1.1c-0.4,0.5-0.8,1.4-0.7,2.1
			C20.3,16.2,21.1,15.8,21.6,15.2z"/>
	</g>
</g>
</svg>
