<?xml version="1.0" encoding="utf-8"?>
<!-- Generator: Adobe Illustrator 18.1.0, SVG Export Plug-In . SVG Version: 6.00 Build 0)  -->
<!DOCTYPE svg PUBLIC "-//W3C//DTD SVG 1.1//EN" "http://www.w3.org/Graphics/SVG/1.1/DTD/svg11.dtd">
<svg version="1.1" id="Layer_1" xmlns="http://www.w3.org/2000/svg" xmlns:xlink="http://www.w3.org/1999/xlink" x="0px" y="0px"
	 viewBox="0 0 40 40" enable-background="new 0 0 40 40" xml:space="preserve">
<g id="behance">
	<circle fill="#18ACE3" cx="20" cy="20" r="20"/>
	<path fill="#FFFFFF" d="M19.1,16.5c0.3,0.4,0.4,0.8,0.4,1.3c0,0.5-0.1,0.9-0.4,1.2c-0.1,0.2-0.4,0.3-0.6,0.5c0.4,0.2,0.8,0.4,1,0.7
		c0.2,0.3,0.3,0.8,0.3,1.2c0,0.5-0.1,1-0.4,1.3c-0.2,0.3-0.4,0.5-0.6,0.7c-0.3,0.2-0.6,0.3-1,0.4C17.5,24,17.1,24,16.6,24h-3.8v-8.5
		h4.1C17.9,15.6,18.7,15.9,19.1,16.5z M14.5,17v1.9h2.1c0.4,0,0.7-0.1,0.9-0.2c0.2-0.1,0.3-0.4,0.3-0.7c0-0.4-0.2-0.7-0.5-0.8
		c-0.3-0.1-0.6-0.1-1-0.1H14.5z M14.5,20.3v2.3h2.1c0.4,0,0.7,0,0.9-0.1c0.4-0.2,0.6-0.5,0.6-1.1c0-0.4-0.2-0.7-0.5-0.9
		c-0.2-0.1-0.5-0.1-0.8-0.1H14.5z M24.9,17.9c0.4,0.2,0.8,0.5,1.1,0.9c0.3,0.4,0.4,0.8,0.5,1.3c0,0.3,0.1,0.7,0.1,1.2h-4.6
		c0,0.6,0.2,1.1,0.7,1.3c0.3,0.2,0.6,0.2,0.9,0.2c0.4,0,0.7-0.1,0.9-0.3c0.1-0.1,0.2-0.2,0.3-0.4h1.7c0,0.4-0.2,0.7-0.6,1.1
		c-0.6,0.6-1.3,0.9-2.4,0.9c-0.8,0-1.6-0.3-2.2-0.8c-0.6-0.5-1-1.3-1-2.5c0-1.1,0.3-1.9,0.9-2.5c0.6-0.6,1.3-0.9,2.2-0.9
		C23.9,17.6,24.4,17.7,24.9,17.9z M22.4,19.3c-0.2,0.2-0.4,0.6-0.4,1h2.8c0-0.4-0.2-0.8-0.4-1c-0.3-0.2-0.6-0.3-1-0.3
		C23,19,22.7,19.1,22.4,19.3z M25.2,16h-3.6V17h3.6V16z"/>
</g>
</svg>
