<?xml version="1.0" encoding="utf-8"?>
<!-- Generator: Adobe Illustrator 18.1.0, SVG Export Plug-In . SVG Version: 6.00 Build 0)  -->
<!DOCTYPE svg PUBLIC "-//W3C//DTD SVG 1.1//EN" "http://www.w3.org/Graphics/SVG/1.1/DTD/svg11.dtd">
<svg version="1.1" id="Layer_1" xmlns="http://www.w3.org/2000/svg" xmlns:xlink="http://www.w3.org/1999/xlink" x="0px" y="0px"
	 viewBox="0 0 40 40" enable-background="new 0 0 40 40" xml:space="preserve">
<g id="deviantart">
	<circle fill="#95A595" cx="20" cy="20" r="20"/>
	<path fill="#FFFFFF" d="M17.6,18.2c3.3-1,6.1,1,6.1,1l-2.3,0.6l-0.7-1.2c-0.6-0.1-1.3-0.2-2.1,0l1.6,3.2l6.8-1.9
		c0,0-2.5-3.8-9.8-2.6c0,0-0.1,0-0.1,0l-0.7-1.4L14.3,16l0.9,1.8c-4.4,1.8-2.5,6.2-2.5,6.2l6.8-1.9L17.6,18.2z M14.6,21.7
		c0,0-0.7-1.4,1.2-2.7l1,2.1L14.6,21.7z"/>
</g>
</svg>
