<?xml version="1.0" encoding="utf-8"?>
<!-- Generator: Adobe Illustrator 18.1.0, SVG Export Plug-In . SVG Version: 6.00 Build 0)  -->
<!DOCTYPE svg PUBLIC "-//W3C//DTD SVG 1.1//EN" "http://www.w3.org/Graphics/SVG/1.1/DTD/svg11.dtd">
<svg version="1.1" id="Layer_1" xmlns="http://www.w3.org/2000/svg" xmlns:xlink="http://www.w3.org/1999/xlink" x="0px" y="0px"
	 viewBox="0 0 40 40" enable-background="new 0 0 40 40" xml:space="preserve">
<g id="dribbble_3_">
	<circle fill="#D97AA5" cx="20" cy="20" r="20"/>
	<path fill-rule="evenodd" clip-rule="evenodd" fill="#FFFFFF" d="M26.1,18.6c-0.1-0.4-0.2-0.8-0.4-1.2c-0.2-0.4-0.4-0.8-0.6-1.1
		c-0.2-0.3-0.5-0.7-0.8-1c-0.3-0.3-0.6-0.6-1-0.8c-0.3-0.2-0.7-0.4-1.1-0.6c-0.4-0.2-0.8-0.3-1.2-0.4c-0.4-0.1-0.9-0.1-1.3-0.1
		c-0.4,0-0.9,0-1.3,0.1c-0.4,0.1-0.8,0.2-1.2,0.4c-0.4,0.2-0.8,0.4-1.1,0.6c-0.3,0.2-0.7,0.5-1,0.8c-0.3,0.3-0.6,0.6-0.8,1
		c-0.2,0.3-0.4,0.7-0.6,1.1c-0.2,0.4-0.3,0.8-0.4,1.2c-0.1,0.4-0.1,0.9-0.1,1.3c0,0.4,0,0.9,0.1,1.3c0.1,0.4,0.2,0.8,0.4,1.2
		c0.2,0.4,0.4,0.8,0.6,1.1c0.2,0.3,0.5,0.7,0.8,1c0.3,0.3,0.6,0.6,1,0.8c0.3,0.2,0.7,0.4,1.1,0.6c0.4,0.2,0.8,0.3,1.2,0.4
		c0.4,0.1,0.9,0.1,1.3,0.1c0.4,0,0.9,0,1.3-0.1c0.4-0.1,0.8-0.2,1.2-0.4c0.4-0.2,0.8-0.4,1.1-0.6c0.3-0.2,0.7-0.5,1-0.8
		c0.3-0.3,0.6-0.6,0.8-1c0.2-0.3,0.4-0.7,0.6-1.1c0.2-0.4,0.3-0.8,0.4-1.2c0.1-0.4,0.1-0.9,0.1-1.3C26.2,19.4,26.1,19,26.1,18.6z
		 M25.2,19.8c-0.1,0-2-0.4-3.9-0.2c0-0.1-0.1-0.2-0.1-0.3c-0.1-0.3-0.2-0.5-0.4-0.8c2.2-0.9,3.1-2.2,3.1-2.2
		C24.7,17.3,25.2,18.5,25.2,19.8z M23.3,15.7c0,0-0.8,1.2-2.9,2c-1-1.7-2-3.1-2.1-3.3c0.4-0.1,0.9-0.2,1.3-0.2
		C21.1,14.3,22.4,14.8,23.3,15.7z M18.3,14.5C18.3,14.5,18.3,14.5,18.3,14.5C18.3,14.5,18.3,14.5,18.3,14.5
		C18.3,14.5,18.3,14.5,18.3,14.5z M17.3,14.8c0.1,0.1,1.1,1.5,2.1,3.2c-2.7,0.7-5,0.7-5.1,0.7C14.6,17,15.7,15.6,17.3,14.8z
		 M14.1,19.9c0-0.1,0-0.1,0-0.2c0.1,0,2.9,0.1,5.7-0.8c0.2,0.3,0.3,0.6,0.5,0.9c-0.1,0-0.1,0-0.2,0.1c-3,1-4.5,3.7-4.5,3.7s0,0,0,0
		C14.6,22.6,14.1,21.3,14.1,19.9z M19.7,25.4c-1.3,0-2.6-0.5-3.5-1.3c0.1,0.1,0.1,0.1,0.1,0.1s1.1-2.3,4.4-3.5c0,0,0,0,0,0
		c0.8,2,1.1,3.7,1.2,4.2C21.2,25.3,20.4,25.4,19.7,25.4z M22.8,24.5c-0.1-0.3-0.4-2-1.1-4c1.8-0.3,3.4,0.2,3.5,0.2
		C24.9,22.3,24,23.6,22.8,24.5z"/>
</g>
</svg>
