<?xml version="1.0" encoding="utf-8"?>
<!-- Generator: Adobe Illustrator 18.1.0, SVG Export Plug-In . SVG Version: 6.00 Build 0)  -->
<!DOCTYPE svg PUBLIC "-//W3C//DTD SVG 1.1//EN" "http://www.w3.org/Graphics/SVG/1.1/DTD/svg11.dtd">
<svg version="1.1" id="Layer_1" xmlns="http://www.w3.org/2000/svg" xmlns:xlink="http://www.w3.org/1999/xlink" x="0px" y="0px"
	 viewBox="0 0 40 40" enable-background="new 0 0 40 40" xml:space="preserve">
<g id="envato">
	<circle fill="#9ACD6B" cx="20" cy="20" r="20"/>
	<path fill="#FFFFFF" d="M26.2,20c0,1.7-0.3,3.3-1.3,4.7c-1.6,2.2-4.6,3.1-7.2,2.1c-2.6-0.9-4.3-3.3-4.3-6c0-1.5,0.6-2.8,1.6-3.8
		c0.1-0.1,0.2-0.3,0.4-0.2c0.2,0.1,0.1,0.3,0.1,0.4c-0.4,1.4-0.4,2.7,0.2,4.1c0,0,0,0.1,0.1,0.1c0.1,0.1,0.1,0.3,0.3,0.3
		c0.2,0,0.2-0.3,0.2-0.4c0.2-3.3,1.9-5.8,4.6-7.7c0.9-0.6,2.1-0.7,3.2-0.7c0.4,0,0.6,0.3,0.8,0.7c0.7,1.2,1,2.5,1.2,3.9
		C26.1,18.4,26.2,19.2,26.2,20z"/>
</g>
</svg>
