<?xml version="1.0" encoding="utf-8"?>
<!-- Generator: Adobe Illustrator 18.1.0, SVG Export Plug-In . SVG Version: 6.00 Build 0)  -->
<!DOCTYPE svg PUBLIC "-//W3C//DTD SVG 1.1//EN" "http://www.w3.org/Graphics/SVG/1.1/DTD/svg11.dtd">
<svg version="1.1" id="Layer_1" xmlns="http://www.w3.org/2000/svg" xmlns:xlink="http://www.w3.org/1999/xlink" x="0px" y="0px"
	 viewBox="0 0 40 40" enable-background="new 0 0 40 40" xml:space="preserve">
<g id="evernote">
	<circle fill="#8AC979" cx="20" cy="20" r="20"/>
	<path fill="#FFFFFF" d="M15.2,15.8C15.2,15.8,15.2,15.8,15.2,15.8h1.3c0.1,0,0.1-0.1,0.1-0.1c0,0,0-1.1,0-1.4v0
		c0-0.3,0.1-0.5,0.1-0.7l0-0.1c0,0,0,0,0,0L14.2,16c0,0,0,0,0,0c0.1,0,0.1-0.1,0.1-0.1C14.6,15.9,14.8,15.8,15.2,15.8z M25.4,15.5
		c-0.1-0.6-0.4-0.8-0.7-0.9c-0.3-0.1-1-0.2-1.8-0.3c-0.7-0.1-1.4-0.1-1.9-0.1c-0.1-0.4-0.3-0.7-0.6-0.9c-0.8-0.3-2.1-0.2-2.4-0.2
		c-0.3,0.1-0.5,0.2-0.7,0.4C17.1,13.8,17,14,17,14.2c0,0.2,0,0.5,0,0.8c0,0.3,0,0.6,0,0.6c0,0.3-0.2,0.5-0.5,0.5h-1.3
		c-0.3,0-0.5,0-0.7,0.1c-0.2,0.1-0.3,0.2-0.4,0.3C14,16.8,14,17.1,14,17.4c0,0,0,0.2,0.1,0.7c0,0.4,0.4,2.9,0.8,3.7
		c0.1,0.3,0.2,0.4,0.5,0.6c0.6,0.3,2.1,0.6,2.8,0.7c0.7,0.1,1.1,0.3,1.4-0.3c0,0,0.1-0.1,0.1-0.3c0.2-0.7,0.3-1.3,0.3-1.7
		c0,0,0.1,0,0.1,0c0,0.3-0.1,1.4,0.7,1.7c0.3,0.1,1,0.2,1.6,0.3c0.6,0.1,1,0.3,1,1.9c0,0.9-0.2,1.1-1.2,1.1c-0.8,0-1.2,0-1.2-0.6
		c0-0.5,0.5-0.5,0.9-0.5c0.2,0,0-0.1,0-0.5c0-0.3,0.2-0.5,0-0.5c-1.4,0-2.2,0-2.2,1.7c0,1.6,0.6,1.8,2.5,1.8c1.5,0,2.1,0,2.7-2
		c0.1-0.4,0.4-1.6,0.6-3.5C25.8,20.3,25.5,16.5,25.4,15.5z M22.7,19.7c-0.2,0-0.4,0-0.5,0c0-0.4,0.2-0.9,0.8-0.8
		c0.6,0,0.7,0.6,0.7,1C23.4,19.8,23.1,19.7,22.7,19.7z"/>
</g>
</svg>
