<?xml version="1.0" encoding="utf-8"?>
<!-- Generator: Adobe Illustrator 18.1.0, SVG Export Plug-In . SVG Version: 6.00 Build 0)  -->
<!DOCTYPE svg PUBLIC "-//W3C//DTD SVG 1.1//EN" "http://www.w3.org/Graphics/SVG/1.1/DTD/svg11.dtd">
<svg version="1.1" id="Layer_1" xmlns="http://www.w3.org/2000/svg" xmlns:xlink="http://www.w3.org/1999/xlink" x="0px" y="0px"
	 viewBox="0 0 40 40" enable-background="new 0 0 40 40" xml:space="preserve">
<g id="google_x2B_">
	<circle fill="#4E4E54" cx="20" cy="20" r="20"/>
	<g>
		<path fill="#FFFFFF" d="M20,21.3c-0.4-0.3-1.1-1-1.1-1.4c0-0.5,0.1-0.7,0.8-1.2c0.7-0.6,1.2-1.4,1.2-2.3c0-1.1-0.5-2.2-1.4-2.5
			h1.4l1-0.7h-4.4c-2,0-3.8,1.5-3.8,3.2c0,1.8,1.3,3.2,3.3,3.2c0.1,0,0.3,0,0.4,0c-0.1,0.2-0.2,0.5-0.2,0.8c0,0.5,0.3,0.9,0.6,1.2
			c-0.3,0-0.5,0-0.8,0c-2.4,0-4.3,1.5-4.3,3.1c0,1.6,2,2.6,4.5,2.6c2.8,0,4.3-1.6,4.3-3.1C21.5,22.9,21.1,22.1,20,21.3z M17.6,19.1
			c-1.1,0-2.2-1.3-2.4-2.7c-0.2-1.5,0.6-2.6,1.7-2.6c1.1,0,2.2,1.2,2.4,2.7C19.5,18,18.8,19.2,17.6,19.1z M17.2,26.6
			c-1.7,0-2.9-1.1-2.9-2.3c0-1.2,1.5-2.3,3.2-2.3c0.4,0,0.8,0.1,1.1,0.2c0.9,0.6,1.6,1,1.7,1.7c0,0.1,0.1,0.3,0.1,0.4
			C20.4,25.6,19.6,26.6,17.2,26.6z"/>
		<polygon fill="#FFFFFF" points="24.6,19.3 24.6,17.6 23.3,17.6 23.3,19.3 21.6,19.3 21.6,20.6 23.3,20.6 23.3,22.3 24.6,22.3 
			24.6,20.6 26.3,20.6 26.3,19.3 		"/>
	</g>
</g>
</svg>
