<?xml version="1.0" encoding="utf-8"?>
<!-- Generator: Adobe Illustrator 18.1.0, SVG Export Plug-In . SVG Version: 6.00 Build 0)  -->
<!DOCTYPE svg PUBLIC "-//W3C//DTD SVG 1.1//EN" "http://www.w3.org/Graphics/SVG/1.1/DTD/svg11.dtd">
<svg version="1.1" id="Layer_1" xmlns="http://www.w3.org/2000/svg" xmlns:xlink="http://www.w3.org/1999/xlink" x="0px" y="0px"
	 viewBox="0 0 40 40" enable-background="new 0 0 40 40" xml:space="preserve">
<g id="instagram">
	<circle fill="#C8C5B3" cx="20" cy="20" r="20"/>
	<path fill="#FFFFFF" d="M23.7,13.1h-8.3c-1.4,0-2.6,1.2-2.6,2.6v2.7V24c0,1.4,1.2,2.6,2.6,2.6h8.3c1.4,0,2.6-1.2,2.6-2.6v-5.5v-2.7
		C26.3,14.3,25.1,13.1,23.7,13.1z M24.4,14.7l0.3,0V15v2l-2.3,0l0-2.3L24.4,14.7z M17.6,18.5c0.4-0.6,1.1-1,1.9-1s1.5,0.4,1.9,1
		c0.3,0.4,0.4,0.9,0.4,1.4c0,1.3-1.1,2.4-2.4,2.4s-2.4-1.1-2.4-2.4C17.2,19.3,17.3,18.9,17.6,18.5z M25,24c0,0.7-0.6,1.3-1.3,1.3
		h-8.3c-0.7,0-1.3-0.6-1.3-1.3v-5.5h2c-0.2,0.4-0.3,0.9-0.3,1.4c0,2,1.7,3.7,3.7,3.7c2,0,3.7-1.7,3.7-3.7c0-0.5-0.1-1-0.3-1.4h2V24z
		"/>
</g>
</svg>
