<?xml version="1.0" encoding="utf-8"?>
<!-- Generator: Adobe Illustrator 18.1.0, SVG Export Plug-In . SVG Version: 6.00 Build 0)  -->
<!DOCTYPE svg PUBLIC "-//W3C//DTD SVG 1.1//EN" "http://www.w3.org/Graphics/SVG/1.1/DTD/svg11.dtd">
<svg version="1.1" id="Layer_1" xmlns="http://www.w3.org/2000/svg" xmlns:xlink="http://www.w3.org/1999/xlink" x="0px" y="0px"
	 viewBox="0 0 40 40" enable-background="new 0 0 40 40" xml:space="preserve">
<g id="linkedin">
	<circle fill="#91C9DB" cx="20" cy="20" r="20"/>
	<path fill="#FFFFFF" d="M16,26.2h-2.7v-8.5H16V26.2z M14.6,16.6L14.6,16.6c-1,0-1.6-0.7-1.6-1.5c0-0.8,0.6-1.5,1.6-1.5
		c1,0,1.6,0.6,1.6,1.5C16.2,15.9,15.6,16.6,14.6,16.6z M26.7,26.2h-3v-4.4c0-1.2-0.5-1.9-1.5-1.9c-0.8,0-1.2,0.5-1.4,1
		c-0.1,0.2-0.1,0.4-0.1,0.7v4.6h-3c0,0,0-7.8,0-8.5h3V19c0.2-0.6,1.1-1.4,2.7-1.4c1.9,0,3.4,1.2,3.4,3.9V26.2z"/>
</g>
</svg>
