<?xml version="1.0" encoding="utf-8"?>
<!-- Generator: Adobe Illustrator 18.1.0, SVG Export Plug-In . SVG Version: 6.00 Build 0)  -->
<!DOCTYPE svg PUBLIC "-//W3C//DTD SVG 1.1//EN" "http://www.w3.org/Graphics/SVG/1.1/DTD/svg11.dtd">
<svg version="1.1" id="Layer_1" xmlns="http://www.w3.org/2000/svg" xmlns:xlink="http://www.w3.org/1999/xlink" x="0px" y="0px"
	 viewBox="0 0 40 40" enable-background="new 0 0 40 40" xml:space="preserve">
<g id="paypal">
	<circle fill="#4EA1D9" cx="20" cy="20" r="20"/>
	<path fill="#FFFFFF" d="M26.5,16.7c0-0.6-0.2-1-0.4-1.5c-0.7-1.2-2-1.8-3.3-1.8h-6.7l-3,13.2h3.9l1-4.4h2.8c0,0,0.1,0,0.1,0
		c1.6,0,3-0.6,4.1-1.7c0.7-0.7,1.2-1.6,1.4-2.7C26.5,17.5,26.6,17.1,26.5,16.7z M22.7,18c-0.1,0.4-0.4,0.8-0.7,1.2
		c-0.1,0.1-0.3,0.2-0.4,0.3c-0.4,0.2-0.8,0.4-1.2,0.4h-1.8l0.8-3.4l0.1-0.3h1.9c0.3,0,0.6,0.1,0.9,0.3C22.7,16.8,22.9,17.3,22.7,18z
		"/>
</g>
</svg>
