<?xml version="1.0" encoding="utf-8"?>
<!-- Generator: Adobe Illustrator 18.1.0, SVG Export Plug-In . SVG Version: 6.00 Build 0)  -->
<!DOCTYPE svg PUBLIC "-//W3C//DTD SVG 1.1//EN" "http://www.w3.org/Graphics/SVG/1.1/DTD/svg11.dtd">
<svg version="1.1" id="Layer_1" xmlns="http://www.w3.org/2000/svg" xmlns:xlink="http://www.w3.org/1999/xlink" x="0px" y="0px"
	 viewBox="0 0 40 40" enable-background="new 0 0 40 40" xml:space="preserve">
<g id="pinterest">
	<circle fill="#F16361" cx="20" cy="20" r="20"/>
	<path fill="#FFFFFF" d="M19.5,13.3c-3.8,0-6.9,3.1-6.9,6.9c0,2.8,1.7,5.2,4.1,6.3c0-0.5,0-1.1,0.1-1.6c0.1-0.6,0.9-3.7,0.9-3.7
		s-0.2-0.4-0.2-1.1c0-1,0.6-1.8,1.3-1.8c0.6,0,0.9,0.5,0.9,1c0,0.6-0.4,1.6-0.6,2.4c-0.2,0.7,0.4,1.3,1.1,1.3c1.3,0,2.2-1.7,2.2-3.6
		c0-1.5-1-2.6-2.9-2.6c-2.1,0-3.4,1.6-3.4,3.3c0,0.6,0.2,1,0.5,1.3c0.1,0.2,0.1,0.2,0.1,0.4c0,0.1-0.1,0.4-0.1,0.6
		c0,0.2-0.2,0.2-0.3,0.2c-1-0.4-1.4-1.4-1.4-2.6c0-1.9,1.6-4.3,4.9-4.3c2.6,0,4.3,1.9,4.3,3.9c0,2.7-1.5,4.7-3.7,4.7
		c-0.7,0-1.4-0.4-1.7-0.9c0,0-0.4,1.6-0.5,1.9c-0.1,0.5-0.4,1.1-0.7,1.5c0.6,0.2,1.3,0.3,1.9,0.3c3.8,0,6.9-3.1,6.9-6.9
		C26.4,16.4,23.3,13.3,19.5,13.3z"/>
</g>
</svg>
