<?xml version="1.0" encoding="utf-8"?>
<!-- Generator: Adobe Illustrator 18.1.0, SVG Export Plug-In . SVG Version: 6.00 Build 0)  -->
<!DOCTYPE svg PUBLIC "-//W3C//DTD SVG 1.1//EN" "http://www.w3.org/Graphics/SVG/1.1/DTD/svg11.dtd">
<svg version="1.1" id="Layer_1" xmlns="http://www.w3.org/2000/svg" xmlns:xlink="http://www.w3.org/1999/xlink" x="0px" y="0px"
	 viewBox="0 0 40 40" enable-background="new 0 0 40 40" xml:space="preserve">
<g id="skype">
	<circle fill="#38C3F2" cx="20" cy="20" r="20"/>
	<path fill="#FFFFFF" d="M26.1,21.6c0.1-0.5,0.2-0.9,0.2-1.4c0-3.7-3-6.6-6.6-6.6c-0.4,0-0.8,0-1.1,0.1c-0.6-0.4-1.3-0.6-2-0.6
		c-2.1,0-3.8,1.7-3.8,3.8c0,0.7,0.2,1.4,0.5,1.9C13,19.3,13,19.7,13,20.2c0,3.7,3,6.6,6.6,6.6c0.4,0,0.8,0,1.2-0.1
		c0.5,0.3,1.2,0.5,1.8,0.5c2.1,0,3.8-1.7,3.8-3.8C26.5,22.7,26.3,22.1,26.1,21.6z M23,23.3c-0.3,0.4-0.8,0.8-1.3,1
		c-0.6,0.2-1.3,0.4-2.1,0.4c-0.9,0-1.7-0.2-2.4-0.5c-0.4-0.2-0.8-0.6-1.1-1c-0.3-0.4-0.4-0.8-0.4-1.2c0-0.2,0.1-0.5,0.3-0.6
		c0.2-0.2,0.4-0.3,0.7-0.3c0.2,0,0.4,0.1,0.6,0.2c0.2,0.1,0.3,0.3,0.4,0.6c0.1,0.3,0.2,0.5,0.4,0.7c0.1,0.2,0.3,0.3,0.6,0.4
		c0.2,0.1,0.6,0.2,1,0.2c0.5,0,1-0.1,1.3-0.3c0.3-0.2,0.5-0.5,0.5-0.8c0-0.3-0.1-0.5-0.3-0.6c-0.2-0.2-0.4-0.3-0.7-0.4
		c-0.3-0.1-0.7-0.2-1.2-0.3c-0.7-0.1-1.3-0.3-1.7-0.5c-0.5-0.2-0.9-0.5-1.1-0.8c-0.3-0.4-0.4-0.8-0.4-1.3c0-0.5,0.2-1,0.4-1.3
		c0.3-0.4,0.7-0.7,1.3-0.9c0.5-0.2,1.2-0.3,1.9-0.3c0.6,0,1.1,0.1,1.5,0.2c0.4,0.1,0.8,0.3,1.1,0.5c0.3,0.2,0.5,0.5,0.6,0.7
		c0.1,0.3,0.2,0.5,0.2,0.8c0,0.2-0.1,0.5-0.3,0.6c-0.2,0.2-0.4,0.3-0.7,0.3c-0.2,0-0.4-0.1-0.6-0.2c-0.1-0.1-0.3-0.3-0.4-0.5
		c-0.2-0.3-0.4-0.6-0.6-0.7c-0.2-0.2-0.6-0.3-1.1-0.3c-0.5,0-0.9,0.1-1.1,0.3c-0.3,0.2-0.4,0.4-0.4,0.6c0,0.2,0,0.3,0.1,0.4
		c0.1,0.1,0.2,0.2,0.4,0.3c0.2,0.1,0.4,0.2,0.5,0.2c0.2,0.1,0.5,0.1,0.9,0.2c0.5,0.1,1,0.2,1.5,0.4c0.4,0.1,0.8,0.3,1.1,0.5
		c0.3,0.2,0.6,0.5,0.7,0.8c0.2,0.3,0.3,0.7,0.3,1.2C23.5,22.4,23.3,22.9,23,23.3z"/>
</g>
</svg>
