<?xml version="1.0" encoding="utf-8"?>
<!-- Generator: Adobe Illustrator 18.1.0, SVG Export Plug-In . SVG Version: 6.00 Build 0)  -->
<!DOCTYPE svg PUBLIC "-//W3C//DTD SVG 1.1//EN" "http://www.w3.org/Graphics/SVG/1.1/DTD/svg11.dtd">
<svg version="1.1" id="Layer_1" xmlns="http://www.w3.org/2000/svg" xmlns:xlink="http://www.w3.org/1999/xlink" x="0px" y="0px"
	 viewBox="0 0 40 40" enable-background="new 0 0 40 40" xml:space="preserve">
<g id="soundcloud">
	<circle fill="#18ACE3" cx="20" cy="20" r="20"/>
	<g>
		<g>
			<path fill="#FFFFFF" d="M27.5,21.7c0-1.5-1.1-2.7-2.4-2.9c0-2.3-1.8-4.1-3.9-4.1c-1.4,0-2.6,0.8-3.3,1.9c-0.3-0.1-0.7-0.2-1-0.2
				c-1.3,0-2.4,1.1-2.4,2.4c-1.5,0-2.7,1.3-2.7,2.9c0,1.6,1.2,2.9,2.8,2.9c0,0,0.1,0,0.1,0v0h10.3v0C26.3,24.5,27.5,23.3,27.5,21.7z
				"/>
		</g>
	</g>
</g>
</svg>
