<?xml version="1.0" encoding="utf-8"?>
<!-- Generator: Adobe Illustrator 18.1.0, SVG Export Plug-In . SVG Version: 6.00 Build 0)  -->
<!DOCTYPE svg PUBLIC "-//W3C//DTD SVG 1.1//EN" "http://www.w3.org/Graphics/SVG/1.1/DTD/svg11.dtd">
<svg version="1.1" id="Layer_1" xmlns="http://www.w3.org/2000/svg" xmlns:xlink="http://www.w3.org/1999/xlink" x="0px" y="0px"
	 viewBox="0 0 40 40" enable-background="new 0 0 40 40" xml:space="preserve">
<g id="tumblr">
	<circle fill="#4E7DA2" cx="20" cy="20" r="20"/>
	<path fill="#FFFFFF" d="M20.4,12.9v3.7h3.4v2.3h-3.4v3.7c0,0.8,0,1.4,0.1,1.6c0.1,0.2,0.3,0.4,0.5,0.6c0.3,0.2,0.7,0.3,1.1,0.3
		c0.7,0,1.5-0.2,2.2-0.7v2.3c-0.6,0.3-1.2,0.5-1.7,0.6c-0.5,0.1-1,0.2-1.6,0.2c-0.7,0-1.2-0.1-1.8-0.3c-0.5-0.2-0.9-0.4-1.3-0.7
		c-0.4-0.3-0.6-0.6-0.7-1C17.1,25,17,24.5,17,23.9v-5.1h-1.6v-2c0.6-0.2,1.1-0.5,1.5-0.8c0.4-0.3,0.7-0.8,1-1.2
		c0.2-0.5,0.4-1.1,0.5-1.8H20.4z"/>
</g>
</svg>
