<?xml version="1.0" encoding="utf-8"?>
<!-- Generator: Adobe Illustrator 18.1.0, SVG Export Plug-In . SVG Version: 6.00 Build 0)  -->
<!DOCTYPE svg PUBLIC "-//W3C//DTD SVG 1.1//EN" "http://www.w3.org/Graphics/SVG/1.1/DTD/svg11.dtd">
<svg version="1.1" id="Layer_1" xmlns="http://www.w3.org/2000/svg" xmlns:xlink="http://www.w3.org/1999/xlink" x="0px" y="0px"
	 viewBox="0 0 40 40" enable-background="new 0 0 40 40" xml:space="preserve">
<g id="vimeo">
	<circle fill="#87D3E0" cx="20" cy="20" r="20"/>
	<path fill="#FFFFFF" d="M26.8,16.7c-0.1,1.3-1,3.1-2.8,5.4c-1.9,2.4-3.4,3.6-4.7,3.6c-0.8,0-1.5-0.7-2-2.2c-0.4-1.3-0.7-2.7-1.1-4
		c-0.4-1.5-0.8-2.2-1.3-2.2c-0.1,0-0.5,0.2-1.1,0.6l-0.6-0.8c0.7-0.6,1.3-1.2,2-1.8c0.9-0.8,1.6-1.2,2-1.2c1.1-0.1,1.7,0.6,2,2.2
		c0.3,1.7,0.4,2.7,0.5,3.1c0.3,1.4,0.6,2.1,1,2.1c0.3,0,0.7-0.4,1.3-1.3c0.6-0.9,0.9-1.6,0.9-2.1c0.1-0.8-0.2-1.2-0.9-1.2
		c-0.3,0-0.7,0.1-1,0.2c0.7-2.2,2-3.2,3.9-3.2C26.2,14.1,26.9,15,26.8,16.7z"/>
</g>
</svg>
