<?xml version="1.0" encoding="utf-8"?>
<!-- Generator: Adobe Illustrator 18.1.0, SVG Export Plug-In . SVG Version: 6.00 Build 0)  -->
<!DOCTYPE svg PUBLIC "-//W3C//DTD SVG 1.1//EN" "http://www.w3.org/Graphics/SVG/1.1/DTD/svg11.dtd">
<svg version="1.1" id="Layer_1" xmlns="http://www.w3.org/2000/svg" xmlns:xlink="http://www.w3.org/1999/xlink" x="0px" y="0px"
	 viewBox="0 0 40 40" enable-background="new 0 0 40 40" xml:space="preserve">
<g id="wordpress">
	<circle fill="#DDDCDC" cx="20" cy="20" r="20"/>
	<path fill="#FFFFFF" d="M13,19.8c0,2.7,1.6,5,3.8,6.1l-3.3-8.9C13.3,17.9,13,18.9,13,19.8z M24.5,19.5c0-0.8-0.3-1.4-0.6-1.9
		c-0.3-0.6-0.7-1-0.7-1.6c0-0.6,0.5-1.2,1.1-1.2c0,0,0.1,0,0.1,0c-1.2-1.1-2.8-1.8-4.6-1.8c-2.4,0-4.5,1.2-5.7,3.1
		c0.2,0,0.3,0,0.4,0c0.7,0,1.8-0.1,1.8-0.1c0.4,0,0.4,0.5,0,0.6c0,0-0.4,0-0.8,0.1l2.5,7.4l1.5-4.5l-1.1-2.9c-0.4,0-0.7-0.1-0.7-0.1
		c-0.4,0-0.3-0.6,0-0.6c0,0,1.1,0.1,1.8,0.1c0.7,0,1.8-0.1,1.8-0.1c0.4,0,0.4,0.5,0,0.6c0,0-0.4,0-0.8,0.1l2.5,7.3l0.7-2.3
		C24.3,20.8,24.5,20.1,24.5,19.5z M20,20.4l-2,6c0.6,0.2,1.3,0.3,1.9,0.3c0.8,0,1.6-0.1,2.3-0.4c0,0,0-0.1,0-0.1L20,20.4z
		 M25.9,16.6c0,0.2,0,0.5,0,0.7c0,0.7-0.1,1.5-0.5,2.4l-2.1,6c2-1.2,3.4-3.4,3.4-5.9C26.7,18.7,26.4,17.5,25.9,16.6z"/>
</g>
</svg>
