<?xml version="1.0" encoding="utf-8"?>
<!-- Generator: Adobe Illustrator 18.1.0, SVG Export Plug-In . SVG Version: 6.00 Build 0)  -->
<!DOCTYPE svg PUBLIC "-//W3C//DTD SVG 1.1//EN" "http://www.w3.org/Graphics/SVG/1.1/DTD/svg11.dtd">
<svg version="1.1" id="Layer_1" xmlns="http://www.w3.org/2000/svg" xmlns:xlink="http://www.w3.org/1999/xlink" x="0px" y="0px"
	 viewBox="0 0 40 40" enable-background="new 0 0 40 40" xml:space="preserve">
<g id="youtube_2_">
	<g>
		<circle fill="#F16361" cx="20" cy="20" r="20"/>
	</g>
	<path fill="#FFFFFF" d="M26.3,16.7c0-0.1,0-0.1,0-0.2c0,0,0,0,0-0.1c-0.2-0.5-0.7-0.9-1.2-0.9h0.1c0,0-2.3-0.3-5.3-0.4
		c-3,0-5.3,0.4-5.3,0.4h0.1c-0.6,0-1,0.4-1.2,0.9c0,0,0,0,0,0.1c0,0,0,0.1,0,0.2c-0.1,0.6-0.2,1.8-0.2,3.2c0,1.4,0.1,2.6,0.2,3.2
		c0,0.1,0,0.1,0,0.1c0,0,0,0,0,0.1c0.2,0.5,0.7,0.9,1.2,0.9h-0.1c0,0,2.3,0.3,5.3,0.4c3,0,5.3-0.4,5.3-0.4h-0.1c0.6,0,1-0.4,1.2-0.9
		c0,0,0,0,0-0.1c0,0,0-0.1,0-0.1c0.1-0.6,0.2-1.8,0.2-3.2C26.5,18.5,26.4,17.3,26.3,16.7z M21.8,20.2l-2.7,2c-0.1,0-0.1,0.1-0.2,0.1
		c-0.1,0-0.1,0-0.1,0c-0.1-0.1-0.2-0.2-0.2-0.3v-3.9c0-0.1,0.1-0.2,0.2-0.3c0.1-0.1,0.2,0,0.3,0l2.7,2c0.1,0.1,0.1,0.2,0.1,0.3
		C22,20,21.9,20.1,21.8,20.2z"/>
</g>
</svg>
